G04 EAGLE Gerber RS-274X export*
G75*
%MOMM*%
%FSLAX34Y34*%
%LPD*%
%INTop Copper*%
%IPPOS*%
%AMOC8*
5,1,8,0,0,1.08239X$1,22.5*%
G01*
%ADD10C,1.524000*%
%ADD11R,1.508000X1.508000*%
%ADD12C,1.508000*%
%ADD13C,1.524000*%
%ADD14P,1.649562X8X202.500000*%
%ADD15C,1.308000*%
%ADD16C,0.152400*%
%ADD17C,0.756400*%

G36*
X787643Y10200D02*
X787643Y10200D01*
X787660Y10210D01*
X787680Y10214D01*
X787769Y10267D01*
X787860Y10316D01*
X787874Y10330D01*
X787891Y10340D01*
X787958Y10419D01*
X788030Y10494D01*
X788038Y10512D01*
X788051Y10527D01*
X788090Y10623D01*
X788133Y10717D01*
X788135Y10737D01*
X788143Y10755D01*
X788161Y10922D01*
X788161Y28876D01*
X788157Y28899D01*
X788160Y28923D01*
X788138Y29020D01*
X788122Y29118D01*
X788110Y29140D01*
X788105Y29163D01*
X788053Y29248D01*
X788006Y29336D01*
X787989Y29352D01*
X787976Y29373D01*
X787900Y29437D01*
X787828Y29505D01*
X787806Y29515D01*
X787788Y29531D01*
X787695Y29567D01*
X787605Y29609D01*
X787581Y29611D01*
X787559Y29620D01*
X787459Y29625D01*
X787361Y29636D01*
X787337Y29631D01*
X787313Y29632D01*
X787217Y29605D01*
X787120Y29584D01*
X787100Y29571D01*
X787076Y29565D01*
X786994Y29508D01*
X786909Y29457D01*
X786893Y29439D01*
X786874Y29425D01*
X786814Y29346D01*
X786749Y29270D01*
X786740Y29248D01*
X786726Y29229D01*
X786665Y29073D01*
X786378Y28002D01*
X782934Y22037D01*
X778063Y17166D01*
X772098Y13722D01*
X765444Y11939D01*
X758556Y11939D01*
X751902Y13722D01*
X745937Y17166D01*
X741066Y22037D01*
X737622Y28002D01*
X735839Y34656D01*
X735839Y41544D01*
X737622Y48198D01*
X741066Y54163D01*
X745937Y59034D01*
X751902Y62478D01*
X758556Y64261D01*
X765444Y64261D01*
X772098Y62478D01*
X778063Y59034D01*
X782934Y54163D01*
X786378Y48198D01*
X786665Y47127D01*
X786675Y47105D01*
X786679Y47082D01*
X786725Y46994D01*
X786766Y46903D01*
X786782Y46886D01*
X786794Y46864D01*
X786866Y46796D01*
X786933Y46723D01*
X786954Y46712D01*
X786972Y46695D01*
X787062Y46653D01*
X787149Y46606D01*
X787173Y46601D01*
X787195Y46591D01*
X787294Y46580D01*
X787392Y46563D01*
X787416Y46567D01*
X787439Y46564D01*
X787537Y46585D01*
X787635Y46600D01*
X787656Y46611D01*
X787680Y46616D01*
X787765Y46668D01*
X787854Y46713D01*
X787870Y46730D01*
X787891Y46743D01*
X787956Y46818D01*
X788025Y46890D01*
X788035Y46911D01*
X788051Y46930D01*
X788088Y47022D01*
X788131Y47111D01*
X788134Y47135D01*
X788143Y47158D01*
X788161Y47324D01*
X788161Y562276D01*
X788157Y562299D01*
X788160Y562323D01*
X788138Y562420D01*
X788122Y562518D01*
X788110Y562540D01*
X788105Y562563D01*
X788053Y562648D01*
X788006Y562736D01*
X787989Y562752D01*
X787976Y562773D01*
X787900Y562837D01*
X787828Y562905D01*
X787806Y562915D01*
X787788Y562931D01*
X787695Y562967D01*
X787605Y563009D01*
X787581Y563011D01*
X787559Y563020D01*
X787459Y563025D01*
X787361Y563036D01*
X787337Y563031D01*
X787313Y563032D01*
X787217Y563005D01*
X787120Y562984D01*
X787100Y562971D01*
X787076Y562965D01*
X786994Y562908D01*
X786909Y562857D01*
X786893Y562839D01*
X786874Y562825D01*
X786814Y562746D01*
X786749Y562670D01*
X786740Y562648D01*
X786726Y562629D01*
X786665Y562473D01*
X786378Y561402D01*
X782934Y555437D01*
X778063Y550566D01*
X772098Y547122D01*
X765444Y545339D01*
X758556Y545339D01*
X751902Y547122D01*
X745937Y550566D01*
X741066Y555437D01*
X738568Y559763D01*
X737622Y561402D01*
X735839Y568056D01*
X735839Y574944D01*
X737622Y581598D01*
X741066Y587563D01*
X745937Y592434D01*
X749895Y594719D01*
X749932Y594749D01*
X749974Y594772D01*
X750026Y594827D01*
X750085Y594875D01*
X750110Y594915D01*
X750144Y594950D01*
X750175Y595019D01*
X750216Y595083D01*
X750227Y595130D01*
X750247Y595173D01*
X750255Y595248D01*
X750273Y595322D01*
X750269Y595370D01*
X750274Y595417D01*
X750258Y595492D01*
X750251Y595567D01*
X750232Y595611D01*
X750222Y595658D01*
X750183Y595723D01*
X750153Y595792D01*
X750120Y595828D01*
X750096Y595869D01*
X750038Y595918D01*
X749987Y595974D01*
X749945Y595998D01*
X749909Y596029D01*
X749839Y596057D01*
X749772Y596094D01*
X749725Y596103D01*
X749681Y596121D01*
X749552Y596135D01*
X749531Y596139D01*
X749524Y596138D01*
X749514Y596139D01*
X10922Y596139D01*
X10902Y596136D01*
X10883Y596138D01*
X10781Y596116D01*
X10679Y596100D01*
X10662Y596090D01*
X10642Y596086D01*
X10553Y596033D01*
X10462Y595984D01*
X10448Y595970D01*
X10431Y595960D01*
X10364Y595881D01*
X10292Y595806D01*
X10284Y595788D01*
X10271Y595773D01*
X10232Y595677D01*
X10189Y595583D01*
X10187Y595563D01*
X10179Y595545D01*
X10161Y595378D01*
X10161Y469842D01*
X10172Y469772D01*
X10174Y469700D01*
X10192Y469651D01*
X10200Y469600D01*
X10234Y469536D01*
X10259Y469469D01*
X10291Y469428D01*
X10316Y469382D01*
X10368Y469333D01*
X10412Y469277D01*
X10456Y469249D01*
X10494Y469213D01*
X10559Y469183D01*
X10619Y469144D01*
X10670Y469131D01*
X10717Y469109D01*
X10788Y469101D01*
X10858Y469084D01*
X10910Y469088D01*
X10961Y469082D01*
X11032Y469097D01*
X11103Y469103D01*
X11151Y469123D01*
X11202Y469134D01*
X11263Y469171D01*
X11329Y469199D01*
X11385Y469244D01*
X11413Y469261D01*
X11428Y469278D01*
X11460Y469304D01*
X14968Y472812D01*
X21737Y475616D01*
X29063Y475616D01*
X35832Y472812D01*
X41012Y467632D01*
X42744Y463452D01*
X42768Y463413D01*
X42784Y463369D01*
X42832Y463309D01*
X42873Y463243D01*
X42909Y463213D01*
X42937Y463177D01*
X43003Y463135D01*
X43063Y463086D01*
X43105Y463069D01*
X43144Y463044D01*
X43220Y463025D01*
X43292Y462998D01*
X43338Y462996D01*
X43383Y462984D01*
X43460Y462990D01*
X43538Y462987D01*
X43582Y463000D01*
X43628Y463003D01*
X43699Y463034D01*
X43774Y463056D01*
X43812Y463082D01*
X43854Y463100D01*
X43961Y463185D01*
X43976Y463196D01*
X43979Y463200D01*
X43985Y463205D01*
X45665Y464885D01*
X48997Y466265D01*
X52603Y466265D01*
X55935Y464885D01*
X58485Y462335D01*
X59865Y459003D01*
X59865Y455397D01*
X58485Y452065D01*
X55935Y449515D01*
X52603Y448135D01*
X48997Y448135D01*
X45665Y449515D01*
X43985Y451195D01*
X43948Y451222D01*
X43917Y451256D01*
X43849Y451294D01*
X43785Y451339D01*
X43742Y451352D01*
X43701Y451375D01*
X43625Y451388D01*
X43550Y451411D01*
X43504Y451410D01*
X43459Y451418D01*
X43382Y451407D01*
X43304Y451405D01*
X43261Y451389D01*
X43216Y451382D01*
X43147Y451347D01*
X43073Y451320D01*
X43038Y451292D01*
X42997Y451271D01*
X42942Y451215D01*
X42881Y451167D01*
X42857Y451128D01*
X42824Y451095D01*
X42758Y450976D01*
X42748Y450960D01*
X42747Y450955D01*
X42744Y450948D01*
X41012Y446768D01*
X35832Y441588D01*
X29063Y438784D01*
X21737Y438784D01*
X14968Y441588D01*
X11460Y445096D01*
X11402Y445138D01*
X11350Y445187D01*
X11303Y445209D01*
X11261Y445240D01*
X11192Y445261D01*
X11127Y445291D01*
X11075Y445297D01*
X11025Y445312D01*
X10954Y445310D01*
X10883Y445318D01*
X10832Y445307D01*
X10780Y445306D01*
X10712Y445281D01*
X10642Y445266D01*
X10597Y445239D01*
X10549Y445221D01*
X10493Y445176D01*
X10431Y445139D01*
X10397Y445100D01*
X10357Y445067D01*
X10318Y445007D01*
X10271Y444953D01*
X10252Y444904D01*
X10224Y444860D01*
X10206Y444791D01*
X10179Y444724D01*
X10171Y444653D01*
X10163Y444622D01*
X10165Y444599D01*
X10161Y444558D01*
X10161Y317442D01*
X10172Y317372D01*
X10174Y317300D01*
X10192Y317251D01*
X10200Y317200D01*
X10234Y317136D01*
X10259Y317069D01*
X10291Y317028D01*
X10316Y316982D01*
X10368Y316933D01*
X10412Y316877D01*
X10456Y316849D01*
X10494Y316813D01*
X10559Y316783D01*
X10619Y316744D01*
X10670Y316731D01*
X10717Y316709D01*
X10788Y316701D01*
X10858Y316684D01*
X10910Y316688D01*
X10961Y316682D01*
X11032Y316697D01*
X11103Y316703D01*
X11151Y316723D01*
X11202Y316734D01*
X11263Y316771D01*
X11329Y316799D01*
X11385Y316844D01*
X11413Y316861D01*
X11428Y316878D01*
X11460Y316904D01*
X14968Y320412D01*
X21737Y323216D01*
X29063Y323216D01*
X35832Y320412D01*
X41012Y315232D01*
X42744Y311052D01*
X42768Y311013D01*
X42784Y310969D01*
X42832Y310909D01*
X42873Y310843D01*
X42909Y310813D01*
X42937Y310777D01*
X43003Y310735D01*
X43063Y310686D01*
X43105Y310669D01*
X43144Y310644D01*
X43220Y310625D01*
X43292Y310598D01*
X43338Y310596D01*
X43383Y310584D01*
X43460Y310590D01*
X43538Y310587D01*
X43582Y310600D01*
X43628Y310603D01*
X43699Y310634D01*
X43774Y310656D01*
X43812Y310682D01*
X43854Y310700D01*
X43961Y310785D01*
X43976Y310796D01*
X43979Y310800D01*
X43985Y310805D01*
X45665Y312485D01*
X48997Y313865D01*
X52603Y313865D01*
X55935Y312485D01*
X58485Y309935D01*
X59865Y306603D01*
X59865Y302997D01*
X58485Y299665D01*
X55935Y297115D01*
X52603Y295735D01*
X48997Y295735D01*
X45665Y297115D01*
X43985Y298795D01*
X43948Y298822D01*
X43917Y298856D01*
X43849Y298894D01*
X43785Y298939D01*
X43742Y298952D01*
X43701Y298975D01*
X43625Y298988D01*
X43550Y299011D01*
X43504Y299010D01*
X43459Y299018D01*
X43382Y299007D01*
X43304Y299005D01*
X43261Y298989D01*
X43216Y298982D01*
X43147Y298947D01*
X43073Y298920D01*
X43038Y298892D01*
X42997Y298871D01*
X42942Y298815D01*
X42881Y298767D01*
X42857Y298728D01*
X42824Y298695D01*
X42758Y298576D01*
X42748Y298560D01*
X42747Y298555D01*
X42744Y298548D01*
X41012Y294368D01*
X35832Y289188D01*
X29063Y286384D01*
X21737Y286384D01*
X14968Y289188D01*
X11460Y292696D01*
X11402Y292738D01*
X11350Y292787D01*
X11303Y292809D01*
X11261Y292840D01*
X11192Y292861D01*
X11127Y292891D01*
X11075Y292897D01*
X11025Y292912D01*
X10954Y292910D01*
X10883Y292918D01*
X10832Y292907D01*
X10780Y292906D01*
X10712Y292881D01*
X10642Y292866D01*
X10597Y292839D01*
X10549Y292821D01*
X10493Y292776D01*
X10431Y292739D01*
X10397Y292700D01*
X10357Y292667D01*
X10318Y292607D01*
X10271Y292553D01*
X10252Y292504D01*
X10224Y292460D01*
X10206Y292391D01*
X10179Y292324D01*
X10171Y292253D01*
X10163Y292222D01*
X10165Y292199D01*
X10161Y292158D01*
X10161Y10922D01*
X10164Y10902D01*
X10162Y10883D01*
X10184Y10781D01*
X10200Y10679D01*
X10210Y10662D01*
X10214Y10642D01*
X10267Y10553D01*
X10316Y10462D01*
X10330Y10448D01*
X10340Y10431D01*
X10419Y10364D01*
X10494Y10292D01*
X10512Y10284D01*
X10527Y10271D01*
X10623Y10232D01*
X10717Y10189D01*
X10737Y10187D01*
X10755Y10179D01*
X10922Y10161D01*
X787400Y10161D01*
X787420Y10164D01*
X787439Y10162D01*
X787541Y10184D01*
X787643Y10200D01*
G37*
%LPC*%
G36*
X511555Y402612D02*
X511555Y402612D01*
X511555Y403352D01*
X511552Y403372D01*
X511554Y403391D01*
X511532Y403493D01*
X511516Y403595D01*
X511506Y403612D01*
X511502Y403632D01*
X511449Y403721D01*
X511400Y403812D01*
X511386Y403826D01*
X511376Y403843D01*
X511297Y403910D01*
X511222Y403982D01*
X511204Y403990D01*
X511189Y404003D01*
X511093Y404042D01*
X510999Y404085D01*
X510979Y404087D01*
X510961Y404095D01*
X510794Y404113D01*
X475433Y404113D01*
X475343Y404099D01*
X475252Y404091D01*
X475223Y404079D01*
X475191Y404074D01*
X475110Y404031D01*
X475026Y403995D01*
X474994Y403969D01*
X474973Y403958D01*
X474951Y403935D01*
X474895Y403890D01*
X472098Y401093D01*
X467702Y401093D01*
X467263Y401532D01*
X467205Y401574D01*
X467153Y401623D01*
X467106Y401645D01*
X467064Y401675D01*
X466995Y401697D01*
X466930Y401727D01*
X466878Y401732D01*
X466828Y401748D01*
X466757Y401746D01*
X466686Y401754D01*
X466635Y401743D01*
X466583Y401741D01*
X466515Y401717D01*
X466445Y401702D01*
X466400Y401675D01*
X466352Y401657D01*
X466296Y401612D01*
X466234Y401575D01*
X466200Y401536D01*
X466160Y401503D01*
X466121Y401443D01*
X466074Y401388D01*
X466055Y401340D01*
X466027Y401296D01*
X466009Y401227D01*
X465982Y401160D01*
X465974Y401089D01*
X465966Y401058D01*
X465968Y401035D01*
X465964Y400994D01*
X465964Y348306D01*
X465975Y348236D01*
X465977Y348164D01*
X465995Y348115D01*
X466003Y348064D01*
X466037Y348000D01*
X466062Y347933D01*
X466094Y347892D01*
X466119Y347846D01*
X466170Y347797D01*
X466215Y347741D01*
X466259Y347713D01*
X466297Y347677D01*
X466362Y347647D01*
X466422Y347608D01*
X466473Y347595D01*
X466520Y347573D01*
X466591Y347565D01*
X466661Y347548D01*
X466713Y347552D01*
X466764Y347546D01*
X466835Y347561D01*
X466906Y347567D01*
X466954Y347587D01*
X467005Y347598D01*
X467066Y347635D01*
X467132Y347663D01*
X467188Y347708D01*
X467216Y347725D01*
X467231Y347742D01*
X467263Y347768D01*
X467702Y348207D01*
X472098Y348207D01*
X474895Y345410D01*
X474969Y345357D01*
X475039Y345297D01*
X475069Y345285D01*
X475095Y345266D01*
X475182Y345239D01*
X475267Y345205D01*
X475308Y345201D01*
X475330Y345194D01*
X475362Y345195D01*
X475433Y345187D01*
X510794Y345187D01*
X510814Y345190D01*
X510833Y345188D01*
X510935Y345210D01*
X511037Y345226D01*
X511054Y345236D01*
X511074Y345240D01*
X511163Y345293D01*
X511254Y345342D01*
X511268Y345356D01*
X511285Y345366D01*
X511352Y345445D01*
X511424Y345520D01*
X511432Y345538D01*
X511445Y345553D01*
X511484Y345649D01*
X511527Y345743D01*
X511529Y345763D01*
X511537Y345781D01*
X511555Y345948D01*
X511555Y346688D01*
X516881Y352014D01*
X516923Y352072D01*
X516972Y352124D01*
X516994Y352171D01*
X517025Y352213D01*
X517046Y352282D01*
X517076Y352347D01*
X517082Y352399D01*
X517097Y352449D01*
X517095Y352520D01*
X517103Y352591D01*
X517092Y352642D01*
X517091Y352694D01*
X517066Y352762D01*
X517051Y352832D01*
X517024Y352877D01*
X517006Y352925D01*
X516961Y352981D01*
X516925Y353043D01*
X516885Y353077D01*
X516853Y353117D01*
X516792Y353156D01*
X516738Y353203D01*
X516689Y353222D01*
X516646Y353250D01*
X516576Y353268D01*
X516510Y353295D01*
X516438Y353303D01*
X516407Y353311D01*
X516384Y353309D01*
X516343Y353313D01*
X488133Y353313D01*
X488043Y353299D01*
X487952Y353291D01*
X487923Y353279D01*
X487891Y353274D01*
X487810Y353231D01*
X487726Y353195D01*
X487694Y353169D01*
X487673Y353158D01*
X487651Y353135D01*
X487595Y353090D01*
X484798Y350293D01*
X480402Y350293D01*
X477293Y353402D01*
X477293Y357798D01*
X480402Y360907D01*
X484798Y360907D01*
X487595Y358110D01*
X487669Y358057D01*
X487739Y357997D01*
X487769Y357985D01*
X487795Y357966D01*
X487882Y357939D01*
X487967Y357905D01*
X488008Y357901D01*
X488030Y357894D01*
X488062Y357895D01*
X488133Y357887D01*
X534347Y357887D01*
X540712Y351522D01*
X540729Y351510D01*
X540741Y351494D01*
X540828Y351438D01*
X540912Y351378D01*
X540931Y351372D01*
X540948Y351361D01*
X541048Y351336D01*
X541147Y351306D01*
X541167Y351306D01*
X541186Y351301D01*
X541289Y351309D01*
X541393Y351312D01*
X541412Y351319D01*
X541432Y351320D01*
X541527Y351361D01*
X541624Y351396D01*
X541640Y351409D01*
X541658Y351417D01*
X541789Y351522D01*
X542312Y352045D01*
X549888Y352045D01*
X555245Y346688D01*
X555245Y339112D01*
X549888Y333755D01*
X542312Y333755D01*
X536955Y339112D01*
X536955Y346688D01*
X537478Y347211D01*
X537490Y347227D01*
X537506Y347240D01*
X537562Y347327D01*
X537622Y347411D01*
X537628Y347430D01*
X537639Y347447D01*
X537664Y347547D01*
X537694Y347646D01*
X537694Y347666D01*
X537699Y347685D01*
X537691Y347788D01*
X537688Y347892D01*
X537681Y347911D01*
X537680Y347930D01*
X537639Y348025D01*
X537604Y348123D01*
X537591Y348138D01*
X537583Y348157D01*
X537478Y348288D01*
X532676Y353090D01*
X532602Y353143D01*
X532532Y353203D01*
X532502Y353215D01*
X532476Y353234D01*
X532389Y353261D01*
X532304Y353295D01*
X532263Y353299D01*
X532241Y353306D01*
X532209Y353305D01*
X532137Y353313D01*
X525057Y353313D01*
X524986Y353302D01*
X524915Y353300D01*
X524866Y353282D01*
X524814Y353274D01*
X524751Y353240D01*
X524684Y353215D01*
X524643Y353183D01*
X524597Y353158D01*
X524548Y353106D01*
X524492Y353062D01*
X524463Y353018D01*
X524428Y352980D01*
X524397Y352915D01*
X524359Y352855D01*
X524346Y352804D01*
X524324Y352757D01*
X524316Y352686D01*
X524299Y352616D01*
X524303Y352564D01*
X524297Y352513D01*
X524312Y352442D01*
X524318Y352371D01*
X524338Y352323D01*
X524349Y352272D01*
X524386Y352211D01*
X524414Y352145D01*
X524459Y352089D01*
X524475Y352061D01*
X524493Y352046D01*
X524519Y352014D01*
X529845Y346688D01*
X529845Y339112D01*
X524488Y333755D01*
X516912Y333755D01*
X511555Y339112D01*
X511555Y339852D01*
X511552Y339872D01*
X511554Y339891D01*
X511532Y339993D01*
X511516Y340095D01*
X511506Y340112D01*
X511502Y340132D01*
X511449Y340221D01*
X511400Y340312D01*
X511386Y340326D01*
X511376Y340343D01*
X511297Y340410D01*
X511222Y340482D01*
X511204Y340490D01*
X511189Y340503D01*
X511093Y340542D01*
X510999Y340585D01*
X510979Y340587D01*
X510961Y340595D01*
X510794Y340613D01*
X475433Y340613D01*
X475343Y340599D01*
X475252Y340591D01*
X475223Y340579D01*
X475191Y340574D01*
X475110Y340531D01*
X475026Y340495D01*
X474994Y340469D01*
X474973Y340458D01*
X474951Y340435D01*
X474895Y340390D01*
X472098Y337593D01*
X467702Y337593D01*
X467263Y338032D01*
X467205Y338074D01*
X467153Y338123D01*
X467106Y338145D01*
X467064Y338175D01*
X466995Y338197D01*
X466930Y338227D01*
X466878Y338232D01*
X466828Y338248D01*
X466757Y338246D01*
X466686Y338254D01*
X466635Y338243D01*
X466583Y338241D01*
X466515Y338217D01*
X466445Y338202D01*
X466400Y338175D01*
X466352Y338157D01*
X466296Y338112D01*
X466234Y338075D01*
X466200Y338036D01*
X466160Y338003D01*
X466121Y337943D01*
X466074Y337888D01*
X466055Y337840D01*
X466027Y337796D01*
X466009Y337727D01*
X465982Y337660D01*
X465974Y337589D01*
X465966Y337558D01*
X465968Y337535D01*
X465964Y337494D01*
X465964Y295909D01*
X434310Y264255D01*
X434257Y264181D01*
X434197Y264112D01*
X434185Y264082D01*
X434166Y264056D01*
X434139Y263969D01*
X434105Y263884D01*
X434101Y263843D01*
X434094Y263821D01*
X434095Y263788D01*
X434087Y263717D01*
X434087Y238060D01*
X434106Y237945D01*
X434123Y237829D01*
X434125Y237823D01*
X434126Y237817D01*
X434181Y237714D01*
X434234Y237609D01*
X434239Y237605D01*
X434242Y237600D01*
X434326Y237520D01*
X434410Y237437D01*
X434416Y237434D01*
X434420Y237430D01*
X434437Y237422D01*
X434557Y237356D01*
X436980Y236353D01*
X438120Y235213D01*
X438178Y235171D01*
X438230Y235122D01*
X438277Y235100D01*
X438319Y235069D01*
X438388Y235048D01*
X438453Y235018D01*
X438505Y235012D01*
X438555Y234997D01*
X438626Y234999D01*
X438697Y234991D01*
X438748Y235002D01*
X438800Y235003D01*
X438868Y235028D01*
X438938Y235043D01*
X438983Y235070D01*
X439031Y235088D01*
X439087Y235133D01*
X439149Y235169D01*
X439183Y235209D01*
X439223Y235241D01*
X439262Y235302D01*
X439309Y235356D01*
X439328Y235405D01*
X439356Y235448D01*
X439374Y235518D01*
X439401Y235584D01*
X439409Y235656D01*
X439417Y235687D01*
X439415Y235710D01*
X439419Y235751D01*
X439419Y239453D01*
X512078Y312112D01*
X512090Y312129D01*
X512106Y312141D01*
X512162Y312228D01*
X512222Y312312D01*
X512228Y312331D01*
X512239Y312348D01*
X512264Y312448D01*
X512294Y312547D01*
X512294Y312567D01*
X512299Y312586D01*
X512291Y312689D01*
X512288Y312793D01*
X512281Y312812D01*
X512280Y312832D01*
X512239Y312927D01*
X512204Y313024D01*
X512191Y313040D01*
X512183Y313058D01*
X512078Y313189D01*
X511555Y313712D01*
X511555Y317293D01*
X511544Y317364D01*
X511542Y317435D01*
X511524Y317484D01*
X511516Y317536D01*
X511482Y317599D01*
X511457Y317666D01*
X511425Y317707D01*
X511400Y317753D01*
X511348Y317802D01*
X511304Y317858D01*
X511260Y317886D01*
X511222Y317922D01*
X511157Y317952D01*
X511097Y317991D01*
X511046Y318004D01*
X510999Y318026D01*
X510928Y318034D01*
X510858Y318051D01*
X510806Y318047D01*
X510755Y318053D01*
X510684Y318038D01*
X510613Y318032D01*
X510565Y318012D01*
X510514Y318001D01*
X510453Y317964D01*
X510387Y317936D01*
X510331Y317891D01*
X510303Y317875D01*
X510288Y317857D01*
X510256Y317831D01*
X507638Y315213D01*
X500833Y315213D01*
X500743Y315199D01*
X500652Y315191D01*
X500623Y315179D01*
X500591Y315174D01*
X500510Y315131D01*
X500426Y315095D01*
X500394Y315069D01*
X500373Y315058D01*
X500351Y315035D01*
X500295Y314990D01*
X497498Y312193D01*
X493102Y312193D01*
X489993Y315302D01*
X489993Y319698D01*
X493102Y322807D01*
X497498Y322807D01*
X500295Y320010D01*
X500369Y319957D01*
X500439Y319897D01*
X500469Y319885D01*
X500495Y319866D01*
X500582Y319839D01*
X500667Y319805D01*
X500708Y319801D01*
X500730Y319794D01*
X500762Y319795D01*
X500833Y319787D01*
X505428Y319787D01*
X505518Y319801D01*
X505609Y319809D01*
X505639Y319821D01*
X505671Y319826D01*
X505752Y319869D01*
X505836Y319905D01*
X505868Y319931D01*
X505888Y319942D01*
X505911Y319965D01*
X505967Y320010D01*
X514087Y328130D01*
X515650Y329693D01*
X525750Y329693D01*
X527313Y328130D01*
X535433Y320010D01*
X535507Y319957D01*
X535577Y319897D01*
X535607Y319885D01*
X535633Y319866D01*
X535720Y319839D01*
X535805Y319805D01*
X535846Y319801D01*
X535868Y319794D01*
X535900Y319795D01*
X535972Y319787D01*
X536194Y319787D01*
X536214Y319790D01*
X536233Y319788D01*
X536335Y319810D01*
X536437Y319826D01*
X536454Y319836D01*
X536474Y319840D01*
X536563Y319893D01*
X536654Y319942D01*
X536668Y319956D01*
X536685Y319966D01*
X536752Y320045D01*
X536824Y320120D01*
X536832Y320138D01*
X536845Y320153D01*
X536884Y320249D01*
X536927Y320343D01*
X536929Y320363D01*
X536937Y320381D01*
X536955Y320548D01*
X536955Y321288D01*
X542312Y326645D01*
X549888Y326645D01*
X555245Y321288D01*
X555245Y313712D01*
X549888Y308355D01*
X542312Y308355D01*
X536955Y313712D01*
X536955Y314452D01*
X536952Y314472D01*
X536954Y314491D01*
X536932Y314593D01*
X536916Y314695D01*
X536906Y314712D01*
X536902Y314732D01*
X536849Y314821D01*
X536800Y314912D01*
X536786Y314926D01*
X536776Y314943D01*
X536697Y315010D01*
X536622Y315082D01*
X536604Y315090D01*
X536589Y315103D01*
X536493Y315142D01*
X536399Y315185D01*
X536379Y315187D01*
X536361Y315195D01*
X536194Y315213D01*
X533762Y315213D01*
X531144Y317831D01*
X531086Y317873D01*
X531034Y317922D01*
X530987Y317944D01*
X530945Y317975D01*
X530876Y317996D01*
X530811Y318026D01*
X530759Y318032D01*
X530709Y318047D01*
X530638Y318045D01*
X530567Y318053D01*
X530516Y318042D01*
X530464Y318041D01*
X530396Y318016D01*
X530326Y318001D01*
X530281Y317974D01*
X530233Y317956D01*
X530177Y317911D01*
X530115Y317875D01*
X530081Y317835D01*
X530041Y317802D01*
X530002Y317742D01*
X529955Y317688D01*
X529936Y317639D01*
X529908Y317596D01*
X529890Y317526D01*
X529863Y317460D01*
X529855Y317388D01*
X529847Y317357D01*
X529849Y317334D01*
X529845Y317293D01*
X529845Y313712D01*
X524488Y308355D01*
X516912Y308355D01*
X516389Y308878D01*
X516373Y308890D01*
X516360Y308906D01*
X516273Y308962D01*
X516189Y309022D01*
X516170Y309028D01*
X516153Y309039D01*
X516053Y309064D01*
X515954Y309094D01*
X515934Y309094D01*
X515915Y309099D01*
X515812Y309091D01*
X515708Y309088D01*
X515689Y309081D01*
X515670Y309080D01*
X515575Y309039D01*
X515477Y309004D01*
X515462Y308991D01*
X515443Y308983D01*
X515312Y308878D01*
X444216Y237782D01*
X444163Y237708D01*
X444103Y237638D01*
X444091Y237608D01*
X444072Y237582D01*
X444045Y237495D01*
X444011Y237410D01*
X444007Y237369D01*
X444000Y237347D01*
X444001Y237315D01*
X443993Y237243D01*
X443993Y223550D01*
X436881Y216438D01*
X436870Y216422D01*
X436854Y216410D01*
X436798Y216322D01*
X436738Y216239D01*
X436732Y216220D01*
X436721Y216203D01*
X436696Y216102D01*
X436666Y216003D01*
X436666Y215984D01*
X436661Y215964D01*
X436669Y215861D01*
X436672Y215758D01*
X436679Y215739D01*
X436680Y215719D01*
X436721Y215624D01*
X436756Y215527D01*
X436769Y215511D01*
X436777Y215493D01*
X436881Y215362D01*
X438413Y213830D01*
X459233Y193010D01*
X459307Y192957D01*
X459377Y192897D01*
X459407Y192885D01*
X459433Y192866D01*
X459520Y192839D01*
X459605Y192805D01*
X459646Y192801D01*
X459668Y192794D01*
X459700Y192795D01*
X459772Y192787D01*
X556216Y192787D01*
X556313Y192802D01*
X556410Y192812D01*
X556433Y192822D01*
X556459Y192826D01*
X556545Y192872D01*
X556634Y192912D01*
X556654Y192929D01*
X556677Y192942D01*
X556744Y193012D01*
X556815Y193078D01*
X556828Y193101D01*
X556846Y193120D01*
X556887Y193208D01*
X556934Y193294D01*
X556939Y193319D01*
X556950Y193343D01*
X556960Y193440D01*
X556978Y193536D01*
X556974Y193562D01*
X556977Y193587D01*
X556956Y193683D01*
X556942Y193779D01*
X556930Y193802D01*
X556924Y193828D01*
X556875Y193911D01*
X556830Y193998D01*
X556812Y194017D01*
X556798Y194039D01*
X556724Y194102D01*
X556655Y194170D01*
X556626Y194186D01*
X556611Y194199D01*
X556581Y194211D01*
X556508Y194251D01*
X553620Y195447D01*
X551047Y198020D01*
X549655Y201381D01*
X549655Y205019D01*
X551047Y208380D01*
X553620Y210953D01*
X556981Y212345D01*
X560619Y212345D01*
X563980Y210953D01*
X566553Y208380D01*
X567945Y205019D01*
X567945Y201381D01*
X566553Y198020D01*
X563980Y195447D01*
X561092Y194251D01*
X561009Y194200D01*
X560923Y194154D01*
X560905Y194135D01*
X560883Y194122D01*
X560821Y194047D01*
X560754Y193976D01*
X560743Y193952D01*
X560726Y193932D01*
X560691Y193841D01*
X560650Y193753D01*
X560648Y193727D01*
X560638Y193703D01*
X560634Y193605D01*
X560623Y193509D01*
X560629Y193483D01*
X560628Y193457D01*
X560655Y193363D01*
X560676Y193268D01*
X560689Y193246D01*
X560696Y193221D01*
X560752Y193141D01*
X560802Y193057D01*
X560822Y193040D01*
X560837Y193019D01*
X560915Y192960D01*
X560989Y192897D01*
X561013Y192887D01*
X561034Y192872D01*
X561126Y192842D01*
X561217Y192805D01*
X561249Y192802D01*
X561268Y192796D01*
X561301Y192796D01*
X561384Y192787D01*
X623247Y192787D01*
X624810Y191224D01*
X661124Y154910D01*
X662687Y153347D01*
X662687Y90163D01*
X662701Y90072D01*
X662709Y89982D01*
X662721Y89952D01*
X662726Y89920D01*
X662769Y89839D01*
X662805Y89755D01*
X662831Y89723D01*
X662842Y89702D01*
X662865Y89680D01*
X662910Y89624D01*
X673824Y78710D01*
X673898Y78657D01*
X673968Y78597D01*
X673998Y78585D01*
X674024Y78566D01*
X674111Y78539D01*
X674196Y78505D01*
X674237Y78501D01*
X674259Y78494D01*
X674291Y78495D01*
X674363Y78487D01*
X676340Y78487D01*
X676455Y78506D01*
X676571Y78523D01*
X676577Y78525D01*
X676583Y78526D01*
X676686Y78581D01*
X676791Y78634D01*
X676795Y78639D01*
X676800Y78642D01*
X676880Y78726D01*
X676963Y78810D01*
X676966Y78816D01*
X676970Y78820D01*
X676978Y78837D01*
X677044Y78957D01*
X678047Y81380D01*
X680620Y83953D01*
X683981Y85345D01*
X687619Y85345D01*
X690980Y83953D01*
X693553Y81380D01*
X694945Y78019D01*
X694945Y74381D01*
X693553Y71020D01*
X690980Y68447D01*
X687619Y67055D01*
X683981Y67055D01*
X680620Y68447D01*
X678047Y71020D01*
X677044Y73443D01*
X676982Y73543D01*
X676922Y73643D01*
X676917Y73647D01*
X676914Y73652D01*
X676824Y73727D01*
X676735Y73803D01*
X676729Y73805D01*
X676725Y73809D01*
X676616Y73851D01*
X676507Y73895D01*
X676500Y73896D01*
X676495Y73897D01*
X676477Y73898D01*
X676340Y73913D01*
X672153Y73913D01*
X658113Y87953D01*
X658113Y151138D01*
X658099Y151228D01*
X658091Y151319D01*
X658079Y151348D01*
X658074Y151380D01*
X658031Y151461D01*
X657995Y151545D01*
X657969Y151577D01*
X657958Y151598D01*
X657935Y151620D01*
X657890Y151676D01*
X621576Y187990D01*
X621502Y188043D01*
X621432Y188103D01*
X621402Y188115D01*
X621376Y188134D01*
X621289Y188161D01*
X621204Y188195D01*
X621163Y188199D01*
X621141Y188206D01*
X621109Y188205D01*
X621038Y188213D01*
X561384Y188213D01*
X561287Y188198D01*
X561190Y188188D01*
X561167Y188178D01*
X561141Y188174D01*
X561055Y188128D01*
X560966Y188088D01*
X560946Y188071D01*
X560923Y188058D01*
X560856Y187988D01*
X560785Y187922D01*
X560772Y187899D01*
X560754Y187880D01*
X560713Y187792D01*
X560666Y187706D01*
X560661Y187681D01*
X560650Y187657D01*
X560640Y187560D01*
X560622Y187464D01*
X560626Y187438D01*
X560623Y187413D01*
X560644Y187317D01*
X560658Y187221D01*
X560670Y187198D01*
X560676Y187172D01*
X560725Y187089D01*
X560770Y187002D01*
X560788Y186983D01*
X560802Y186961D01*
X560876Y186898D01*
X560945Y186830D01*
X560974Y186814D01*
X560989Y186801D01*
X561019Y186789D01*
X561092Y186749D01*
X563980Y185553D01*
X566553Y182980D01*
X567945Y179619D01*
X567945Y175981D01*
X566553Y172620D01*
X563980Y170047D01*
X560619Y168655D01*
X556981Y168655D01*
X553620Y170047D01*
X551047Y172620D01*
X549655Y175981D01*
X549655Y179619D01*
X551047Y182980D01*
X553620Y185553D01*
X556508Y186749D01*
X556591Y186800D01*
X556677Y186846D01*
X556695Y186865D01*
X556717Y186878D01*
X556779Y186953D01*
X556846Y187024D01*
X556857Y187048D01*
X556874Y187068D01*
X556909Y187159D01*
X556950Y187247D01*
X556952Y187273D01*
X556962Y187297D01*
X556966Y187395D01*
X556977Y187491D01*
X556971Y187517D01*
X556972Y187543D01*
X556945Y187637D01*
X556924Y187732D01*
X556911Y187754D01*
X556904Y187779D01*
X556848Y187859D01*
X556798Y187943D01*
X556778Y187960D01*
X556763Y187981D01*
X556685Y188040D01*
X556611Y188103D01*
X556587Y188113D01*
X556566Y188128D01*
X556474Y188158D01*
X556383Y188195D01*
X556351Y188198D01*
X556332Y188204D01*
X556299Y188204D01*
X556216Y188213D01*
X492804Y188213D01*
X492707Y188198D01*
X492610Y188188D01*
X492587Y188178D01*
X492561Y188174D01*
X492475Y188128D01*
X492386Y188088D01*
X492366Y188071D01*
X492343Y188058D01*
X492276Y187988D01*
X492205Y187922D01*
X492192Y187899D01*
X492174Y187880D01*
X492133Y187792D01*
X492086Y187706D01*
X492081Y187681D01*
X492070Y187657D01*
X492060Y187560D01*
X492042Y187464D01*
X492046Y187438D01*
X492043Y187413D01*
X492064Y187317D01*
X492078Y187221D01*
X492090Y187198D01*
X492096Y187172D01*
X492145Y187089D01*
X492190Y187002D01*
X492208Y186983D01*
X492222Y186961D01*
X492296Y186898D01*
X492365Y186830D01*
X492394Y186814D01*
X492409Y186801D01*
X492439Y186789D01*
X492512Y186749D01*
X495400Y185553D01*
X497973Y182980D01*
X499365Y179619D01*
X499365Y175981D01*
X497973Y172620D01*
X495400Y170047D01*
X492039Y168655D01*
X473161Y168655D01*
X469800Y170047D01*
X467227Y172620D01*
X465835Y175981D01*
X465835Y179619D01*
X467227Y182980D01*
X469800Y185553D01*
X472688Y186749D01*
X472771Y186800D01*
X472857Y186846D01*
X472875Y186865D01*
X472897Y186878D01*
X472959Y186953D01*
X473026Y187024D01*
X473037Y187048D01*
X473054Y187068D01*
X473089Y187159D01*
X473130Y187247D01*
X473132Y187273D01*
X473142Y187297D01*
X473146Y187395D01*
X473157Y187491D01*
X473151Y187517D01*
X473152Y187543D01*
X473125Y187637D01*
X473104Y187732D01*
X473091Y187754D01*
X473084Y187779D01*
X473028Y187859D01*
X472978Y187943D01*
X472958Y187960D01*
X472943Y187981D01*
X472865Y188040D01*
X472791Y188103D01*
X472767Y188113D01*
X472746Y188128D01*
X472654Y188158D01*
X472563Y188195D01*
X472531Y188198D01*
X472512Y188204D01*
X472479Y188204D01*
X472396Y188213D01*
X457562Y188213D01*
X456000Y189776D01*
X443211Y202565D01*
X443201Y202572D01*
X443194Y202581D01*
X443103Y202642D01*
X443098Y202647D01*
X443095Y202648D01*
X443011Y202708D01*
X442999Y202712D01*
X442989Y202719D01*
X442882Y202748D01*
X442776Y202781D01*
X442764Y202780D01*
X442752Y202784D01*
X442642Y202777D01*
X442530Y202774D01*
X442519Y202770D01*
X442507Y202770D01*
X442404Y202728D01*
X442299Y202690D01*
X442289Y202682D01*
X442278Y202678D01*
X442194Y202606D01*
X442107Y202536D01*
X442100Y202526D01*
X442091Y202518D01*
X442034Y202423D01*
X441974Y202329D01*
X441971Y202318D01*
X441965Y202307D01*
X441937Y202207D01*
X441934Y202201D01*
X441933Y202193D01*
X441920Y202146D01*
X441711Y200821D01*
X441216Y199300D01*
X440490Y197875D01*
X439550Y196581D01*
X438419Y195450D01*
X437125Y194510D01*
X435700Y193784D01*
X434179Y193289D01*
X433323Y193154D01*
X433323Y202438D01*
X433320Y202458D01*
X433322Y202477D01*
X433300Y202579D01*
X433283Y202681D01*
X433274Y202698D01*
X433270Y202718D01*
X433217Y202807D01*
X433168Y202898D01*
X433154Y202912D01*
X433144Y202929D01*
X433065Y202996D01*
X432990Y203067D01*
X432972Y203076D01*
X432957Y203089D01*
X432861Y203127D01*
X432767Y203171D01*
X432747Y203173D01*
X432729Y203181D01*
X432562Y203199D01*
X431799Y203199D01*
X431799Y203962D01*
X431796Y203982D01*
X431798Y204001D01*
X431776Y204103D01*
X431759Y204205D01*
X431750Y204222D01*
X431746Y204242D01*
X431693Y204331D01*
X431644Y204422D01*
X431630Y204436D01*
X431620Y204453D01*
X431541Y204520D01*
X431466Y204591D01*
X431448Y204600D01*
X431433Y204613D01*
X431337Y204652D01*
X431243Y204695D01*
X431223Y204697D01*
X431205Y204705D01*
X431038Y204723D01*
X421754Y204723D01*
X421889Y205579D01*
X422384Y207100D01*
X423110Y208525D01*
X423898Y209611D01*
X423904Y209621D01*
X423912Y209630D01*
X423959Y209730D01*
X424009Y209830D01*
X424010Y209842D01*
X424015Y209853D01*
X424028Y209963D01*
X424043Y210074D01*
X424041Y210086D01*
X424043Y210097D01*
X424019Y210206D01*
X423999Y210316D01*
X423993Y210326D01*
X423990Y210338D01*
X423933Y210433D01*
X423879Y210531D01*
X423870Y210539D01*
X423864Y210549D01*
X423780Y210621D01*
X423697Y210696D01*
X423686Y210701D01*
X423677Y210709D01*
X423573Y210751D01*
X423472Y210795D01*
X423460Y210796D01*
X423449Y210801D01*
X423282Y210819D01*
X420947Y210819D01*
X419384Y212382D01*
X378536Y253230D01*
X335211Y296555D01*
X335117Y296623D01*
X335022Y296693D01*
X335016Y296695D01*
X335011Y296699D01*
X334900Y296733D01*
X334788Y296769D01*
X334782Y296769D01*
X334776Y296771D01*
X334659Y296768D01*
X334542Y296767D01*
X334535Y296765D01*
X334530Y296765D01*
X334513Y296758D01*
X334381Y296720D01*
X332957Y296130D01*
X332857Y296069D01*
X332757Y296009D01*
X332753Y296004D01*
X332748Y296001D01*
X332673Y295911D01*
X332597Y295822D01*
X332595Y295816D01*
X332591Y295811D01*
X332549Y295703D01*
X332505Y295594D01*
X332504Y295586D01*
X332503Y295582D01*
X332502Y295563D01*
X332487Y295427D01*
X332487Y179063D01*
X332501Y178972D01*
X332509Y178882D01*
X332521Y178852D01*
X332526Y178820D01*
X332569Y178739D01*
X332605Y178655D01*
X332631Y178623D01*
X332642Y178602D01*
X332665Y178580D01*
X332710Y178524D01*
X426728Y84506D01*
X426822Y84438D01*
X426917Y84368D01*
X426923Y84366D01*
X426928Y84362D01*
X427039Y84328D01*
X427151Y84292D01*
X427157Y84292D01*
X427163Y84290D01*
X427280Y84293D01*
X427396Y84294D01*
X427404Y84296D01*
X427409Y84296D01*
X427426Y84303D01*
X427558Y84341D01*
X429981Y85345D01*
X433619Y85345D01*
X436980Y83953D01*
X439553Y81380D01*
X440945Y78019D01*
X440945Y74381D01*
X439553Y71020D01*
X436980Y68447D01*
X433619Y67055D01*
X429981Y67055D01*
X426620Y68447D01*
X424047Y71020D01*
X422655Y74381D01*
X422655Y78019D01*
X423659Y80442D01*
X423686Y80556D01*
X423714Y80670D01*
X423714Y80676D01*
X423715Y80682D01*
X423704Y80798D01*
X423695Y80915D01*
X423693Y80920D01*
X423692Y80927D01*
X423644Y81034D01*
X423599Y81141D01*
X423594Y81147D01*
X423592Y81151D01*
X423579Y81165D01*
X423494Y81272D01*
X327913Y176853D01*
X327913Y295427D01*
X327894Y295542D01*
X327877Y295658D01*
X327875Y295664D01*
X327874Y295670D01*
X327819Y295772D01*
X327766Y295877D01*
X327761Y295882D01*
X327758Y295887D01*
X327674Y295967D01*
X327590Y296049D01*
X327584Y296053D01*
X327580Y296056D01*
X327563Y296064D01*
X327443Y296130D01*
X326019Y296720D01*
X325905Y296747D01*
X325792Y296776D01*
X325785Y296775D01*
X325779Y296776D01*
X325663Y296765D01*
X325546Y296756D01*
X325541Y296754D01*
X325534Y296753D01*
X325427Y296706D01*
X325320Y296660D01*
X325314Y296655D01*
X325310Y296653D01*
X325296Y296641D01*
X325189Y296555D01*
X231110Y202476D01*
X229547Y200913D01*
X191763Y200913D01*
X191672Y200899D01*
X191582Y200891D01*
X191552Y200879D01*
X191520Y200874D01*
X191439Y200831D01*
X191355Y200795D01*
X191323Y200769D01*
X191302Y200758D01*
X191280Y200735D01*
X191224Y200690D01*
X177516Y186982D01*
X177463Y186908D01*
X177403Y186838D01*
X177391Y186808D01*
X177372Y186782D01*
X177345Y186695D01*
X177311Y186610D01*
X177307Y186569D01*
X177300Y186547D01*
X177301Y186515D01*
X177293Y186443D01*
X177293Y96550D01*
X167610Y86867D01*
X167557Y86793D01*
X167497Y86723D01*
X167485Y86693D01*
X167466Y86667D01*
X167439Y86580D01*
X167405Y86495D01*
X167401Y86454D01*
X167394Y86432D01*
X167395Y86400D01*
X167387Y86328D01*
X167387Y85660D01*
X167406Y85545D01*
X167423Y85429D01*
X167425Y85423D01*
X167426Y85417D01*
X167481Y85314D01*
X167534Y85209D01*
X167539Y85205D01*
X167542Y85200D01*
X167626Y85120D01*
X167710Y85037D01*
X167716Y85034D01*
X167720Y85030D01*
X167737Y85022D01*
X167857Y84956D01*
X170280Y83953D01*
X172853Y81380D01*
X174245Y78019D01*
X174245Y74381D01*
X172853Y71020D01*
X170280Y68447D01*
X166919Y67055D01*
X163281Y67055D01*
X159920Y68447D01*
X157347Y71020D01*
X155955Y74381D01*
X155955Y78019D01*
X157347Y81380D01*
X159920Y83953D01*
X162343Y84956D01*
X162443Y85018D01*
X162543Y85078D01*
X162547Y85083D01*
X162552Y85086D01*
X162627Y85176D01*
X162703Y85265D01*
X162705Y85271D01*
X162709Y85275D01*
X162751Y85384D01*
X162795Y85493D01*
X162796Y85500D01*
X162797Y85505D01*
X162798Y85523D01*
X162813Y85660D01*
X162813Y88538D01*
X165431Y91156D01*
X165473Y91214D01*
X165522Y91266D01*
X165544Y91313D01*
X165575Y91355D01*
X165596Y91424D01*
X165626Y91489D01*
X165632Y91541D01*
X165647Y91591D01*
X165645Y91662D01*
X165653Y91733D01*
X165642Y91784D01*
X165641Y91836D01*
X165616Y91904D01*
X165601Y91974D01*
X165574Y92019D01*
X165556Y92067D01*
X165511Y92123D01*
X165475Y92185D01*
X165435Y92219D01*
X165402Y92259D01*
X165342Y92298D01*
X165288Y92345D01*
X165239Y92364D01*
X165196Y92392D01*
X165126Y92410D01*
X165060Y92437D01*
X164988Y92445D01*
X164957Y92453D01*
X164934Y92451D01*
X164893Y92455D01*
X163281Y92455D01*
X159920Y93847D01*
X157347Y96420D01*
X155955Y99781D01*
X155955Y103419D01*
X157347Y106780D01*
X159920Y109353D01*
X163281Y110745D01*
X166919Y110745D01*
X170280Y109353D01*
X171420Y108213D01*
X171478Y108171D01*
X171530Y108122D01*
X171577Y108100D01*
X171619Y108069D01*
X171688Y108048D01*
X171753Y108018D01*
X171805Y108012D01*
X171855Y107997D01*
X171926Y107999D01*
X171997Y107991D01*
X172048Y108002D01*
X172100Y108003D01*
X172168Y108028D01*
X172238Y108043D01*
X172283Y108070D01*
X172331Y108088D01*
X172387Y108133D01*
X172449Y108169D01*
X172483Y108209D01*
X172523Y108241D01*
X172562Y108302D01*
X172609Y108356D01*
X172628Y108405D01*
X172656Y108448D01*
X172674Y108518D01*
X172701Y108584D01*
X172709Y108656D01*
X172717Y108687D01*
X172715Y108710D01*
X172719Y108751D01*
X172719Y119849D01*
X172708Y119920D01*
X172706Y119991D01*
X172688Y120040D01*
X172680Y120092D01*
X172646Y120155D01*
X172621Y120222D01*
X172589Y120263D01*
X172564Y120309D01*
X172512Y120358D01*
X172468Y120414D01*
X172424Y120443D01*
X172386Y120478D01*
X172321Y120509D01*
X172261Y120547D01*
X172210Y120560D01*
X172163Y120582D01*
X172092Y120590D01*
X172022Y120607D01*
X171970Y120603D01*
X171919Y120609D01*
X171848Y120594D01*
X171777Y120588D01*
X171729Y120568D01*
X171678Y120557D01*
X171617Y120520D01*
X171551Y120492D01*
X171495Y120447D01*
X171467Y120431D01*
X171452Y120413D01*
X171420Y120387D01*
X170280Y119247D01*
X166919Y117855D01*
X163281Y117855D01*
X159920Y119247D01*
X158718Y120449D01*
X157347Y121820D01*
X155955Y125181D01*
X155955Y128819D01*
X157347Y132180D01*
X159920Y134753D01*
X163281Y136145D01*
X166919Y136145D01*
X170280Y134753D01*
X171420Y133613D01*
X171478Y133571D01*
X171530Y133522D01*
X171577Y133500D01*
X171619Y133469D01*
X171688Y133448D01*
X171753Y133418D01*
X171805Y133412D01*
X171855Y133397D01*
X171926Y133399D01*
X171997Y133391D01*
X172048Y133402D01*
X172100Y133403D01*
X172168Y133428D01*
X172238Y133443D01*
X172283Y133470D01*
X172331Y133488D01*
X172387Y133533D01*
X172449Y133569D01*
X172483Y133609D01*
X172523Y133641D01*
X172562Y133702D01*
X172609Y133756D01*
X172628Y133805D01*
X172656Y133848D01*
X172674Y133918D01*
X172701Y133984D01*
X172709Y134056D01*
X172717Y134087D01*
X172715Y134110D01*
X172719Y134151D01*
X172719Y145249D01*
X172708Y145320D01*
X172706Y145391D01*
X172688Y145440D01*
X172680Y145492D01*
X172646Y145555D01*
X172621Y145622D01*
X172589Y145663D01*
X172564Y145709D01*
X172512Y145758D01*
X172468Y145814D01*
X172424Y145843D01*
X172386Y145878D01*
X172321Y145909D01*
X172261Y145947D01*
X172210Y145960D01*
X172163Y145982D01*
X172092Y145990D01*
X172022Y146007D01*
X171970Y146003D01*
X171919Y146009D01*
X171848Y145994D01*
X171777Y145988D01*
X171729Y145968D01*
X171678Y145957D01*
X171617Y145920D01*
X171551Y145892D01*
X171495Y145847D01*
X171467Y145831D01*
X171452Y145813D01*
X171420Y145787D01*
X170280Y144647D01*
X166919Y143255D01*
X163281Y143255D01*
X159920Y144647D01*
X157347Y147220D01*
X155955Y150581D01*
X155955Y154219D01*
X157347Y157580D01*
X159920Y160153D01*
X163281Y161545D01*
X166919Y161545D01*
X170280Y160153D01*
X171420Y159013D01*
X171478Y158971D01*
X171530Y158922D01*
X171577Y158900D01*
X171619Y158869D01*
X171688Y158848D01*
X171753Y158818D01*
X171805Y158812D01*
X171855Y158797D01*
X171926Y158799D01*
X171997Y158791D01*
X172048Y158802D01*
X172100Y158803D01*
X172168Y158828D01*
X172238Y158843D01*
X172283Y158870D01*
X172331Y158888D01*
X172387Y158933D01*
X172449Y158969D01*
X172483Y159009D01*
X172523Y159041D01*
X172562Y159102D01*
X172609Y159156D01*
X172628Y159205D01*
X172656Y159248D01*
X172674Y159318D01*
X172701Y159384D01*
X172709Y159456D01*
X172717Y159487D01*
X172715Y159510D01*
X172719Y159551D01*
X172719Y170649D01*
X172708Y170720D01*
X172706Y170791D01*
X172688Y170840D01*
X172680Y170892D01*
X172646Y170955D01*
X172621Y171022D01*
X172589Y171063D01*
X172564Y171109D01*
X172512Y171158D01*
X172468Y171214D01*
X172424Y171243D01*
X172386Y171278D01*
X172321Y171309D01*
X172261Y171347D01*
X172210Y171360D01*
X172163Y171382D01*
X172092Y171390D01*
X172022Y171407D01*
X171970Y171403D01*
X171919Y171409D01*
X171848Y171394D01*
X171777Y171388D01*
X171729Y171368D01*
X171678Y171357D01*
X171617Y171320D01*
X171551Y171292D01*
X171495Y171247D01*
X171467Y171231D01*
X171452Y171213D01*
X171420Y171187D01*
X170280Y170047D01*
X166919Y168655D01*
X163281Y168655D01*
X159920Y170047D01*
X157347Y172620D01*
X155955Y175981D01*
X155955Y179619D01*
X157347Y182980D01*
X159920Y185553D01*
X163281Y186945D01*
X166919Y186945D01*
X170280Y185553D01*
X171420Y184413D01*
X171478Y184371D01*
X171530Y184322D01*
X171577Y184300D01*
X171619Y184269D01*
X171688Y184248D01*
X171753Y184218D01*
X171805Y184212D01*
X171855Y184197D01*
X171926Y184199D01*
X171997Y184191D01*
X172048Y184202D01*
X172100Y184203D01*
X172168Y184228D01*
X172238Y184243D01*
X172283Y184270D01*
X172331Y184288D01*
X172387Y184333D01*
X172449Y184369D01*
X172483Y184409D01*
X172523Y184441D01*
X172562Y184502D01*
X172609Y184556D01*
X172628Y184605D01*
X172656Y184648D01*
X172674Y184718D01*
X172701Y184784D01*
X172709Y184856D01*
X172717Y184887D01*
X172715Y184910D01*
X172719Y184951D01*
X172719Y188653D01*
X189553Y205487D01*
X227337Y205487D01*
X227428Y205501D01*
X227518Y205509D01*
X227548Y205521D01*
X227580Y205526D01*
X227661Y205569D01*
X227745Y205605D01*
X227777Y205631D01*
X227798Y205642D01*
X227820Y205665D01*
X227876Y205710D01*
X321955Y299789D01*
X322023Y299883D01*
X322093Y299978D01*
X322095Y299984D01*
X322099Y299989D01*
X322133Y300100D01*
X322169Y300212D01*
X322169Y300218D01*
X322171Y300224D01*
X322168Y300341D01*
X322167Y300458D01*
X322165Y300465D01*
X322165Y300470D01*
X322158Y300487D01*
X322120Y300619D01*
X321135Y302997D01*
X321135Y306603D01*
X322515Y309935D01*
X325065Y312485D01*
X327443Y313470D01*
X327543Y313532D01*
X327643Y313591D01*
X327647Y313596D01*
X327652Y313599D01*
X327727Y313690D01*
X327803Y313778D01*
X327805Y313784D01*
X327809Y313789D01*
X327851Y313897D01*
X327895Y314006D01*
X327896Y314014D01*
X327897Y314018D01*
X327898Y314037D01*
X327913Y314173D01*
X327913Y407347D01*
X354653Y434087D01*
X413567Y434087D01*
X413657Y434101D01*
X413748Y434109D01*
X413777Y434121D01*
X413809Y434126D01*
X413890Y434169D01*
X413974Y434205D01*
X414006Y434231D01*
X414027Y434242D01*
X414049Y434265D01*
X414105Y434310D01*
X416902Y437107D01*
X421298Y437107D01*
X424407Y433998D01*
X424407Y429602D01*
X421298Y426493D01*
X416902Y426493D01*
X414105Y429290D01*
X414031Y429343D01*
X413961Y429403D01*
X413931Y429415D01*
X413905Y429434D01*
X413818Y429461D01*
X413733Y429495D01*
X413692Y429499D01*
X413670Y429506D01*
X413638Y429505D01*
X413567Y429513D01*
X356863Y429513D01*
X356772Y429499D01*
X356682Y429491D01*
X356652Y429479D01*
X356620Y429474D01*
X356539Y429431D01*
X356455Y429395D01*
X356423Y429369D01*
X356402Y429358D01*
X356380Y429335D01*
X356324Y429290D01*
X332710Y405676D01*
X332657Y405602D01*
X332597Y405532D01*
X332585Y405502D01*
X332566Y405476D01*
X332539Y405389D01*
X332505Y405304D01*
X332501Y405263D01*
X332494Y405241D01*
X332495Y405209D01*
X332487Y405137D01*
X332487Y388358D01*
X332498Y388288D01*
X332500Y388216D01*
X332518Y388167D01*
X332526Y388116D01*
X332560Y388052D01*
X332585Y387985D01*
X332617Y387944D01*
X332642Y387898D01*
X332694Y387849D01*
X332738Y387793D01*
X332782Y387765D01*
X332820Y387729D01*
X332885Y387699D01*
X332945Y387660D01*
X332996Y387647D01*
X333043Y387625D01*
X333114Y387617D01*
X333184Y387600D01*
X333236Y387604D01*
X333287Y387598D01*
X333358Y387613D01*
X333429Y387619D01*
X333477Y387639D01*
X333528Y387650D01*
X333589Y387687D01*
X333655Y387715D01*
X333711Y387760D01*
X333739Y387777D01*
X333754Y387794D01*
X333786Y387820D01*
X353090Y407124D01*
X354653Y408687D01*
X413567Y408687D01*
X413657Y408701D01*
X413748Y408709D01*
X413777Y408721D01*
X413809Y408726D01*
X413890Y408769D01*
X413974Y408805D01*
X414006Y408831D01*
X414027Y408842D01*
X414049Y408865D01*
X414105Y408910D01*
X416902Y411707D01*
X421298Y411707D01*
X424407Y408598D01*
X424407Y404202D01*
X421298Y401093D01*
X416902Y401093D01*
X414105Y403890D01*
X414031Y403943D01*
X413961Y404003D01*
X413931Y404015D01*
X413905Y404034D01*
X413818Y404061D01*
X413733Y404095D01*
X413692Y404099D01*
X413670Y404106D01*
X413638Y404105D01*
X413567Y404113D01*
X356863Y404113D01*
X356772Y404099D01*
X356682Y404091D01*
X356652Y404079D01*
X356620Y404074D01*
X356539Y404031D01*
X356455Y403995D01*
X356423Y403969D01*
X356402Y403958D01*
X356380Y403935D01*
X356324Y403890D01*
X332710Y380276D01*
X332657Y380202D01*
X332597Y380132D01*
X332585Y380102D01*
X332566Y380076D01*
X332539Y379989D01*
X332505Y379904D01*
X332501Y379863D01*
X332494Y379841D01*
X332495Y379809D01*
X332487Y379737D01*
X332487Y314173D01*
X332506Y314058D01*
X332523Y313942D01*
X332525Y313936D01*
X332526Y313930D01*
X332581Y313828D01*
X332634Y313723D01*
X332639Y313718D01*
X332642Y313713D01*
X332726Y313633D01*
X332810Y313551D01*
X332816Y313547D01*
X332820Y313544D01*
X332837Y313536D01*
X332957Y313470D01*
X334381Y312880D01*
X334495Y312853D01*
X334608Y312824D01*
X334615Y312825D01*
X334621Y312824D01*
X334737Y312835D01*
X334854Y312844D01*
X334859Y312846D01*
X334866Y312847D01*
X334973Y312894D01*
X335080Y312940D01*
X335086Y312945D01*
X335090Y312947D01*
X335104Y312959D01*
X335211Y313045D01*
X365790Y343624D01*
X367353Y345187D01*
X413567Y345187D01*
X413657Y345201D01*
X413748Y345209D01*
X413777Y345221D01*
X413809Y345226D01*
X413890Y345269D01*
X413974Y345305D01*
X414006Y345331D01*
X414027Y345342D01*
X414049Y345365D01*
X414105Y345410D01*
X416902Y348207D01*
X421298Y348207D01*
X424407Y345098D01*
X424407Y340702D01*
X421298Y337593D01*
X416902Y337593D01*
X414105Y340390D01*
X414031Y340443D01*
X413961Y340503D01*
X413931Y340515D01*
X413905Y340534D01*
X413818Y340561D01*
X413733Y340595D01*
X413692Y340599D01*
X413670Y340606D01*
X413638Y340605D01*
X413567Y340613D01*
X369563Y340613D01*
X369472Y340599D01*
X369382Y340591D01*
X369352Y340579D01*
X369320Y340574D01*
X369239Y340531D01*
X369155Y340495D01*
X369123Y340469D01*
X369102Y340458D01*
X369080Y340435D01*
X369024Y340390D01*
X338445Y309811D01*
X338377Y309717D01*
X338307Y309622D01*
X338305Y309616D01*
X338301Y309611D01*
X338267Y309500D01*
X338231Y309388D01*
X338231Y309382D01*
X338229Y309376D01*
X338232Y309259D01*
X338233Y309142D01*
X338235Y309135D01*
X338235Y309130D01*
X338242Y309113D01*
X338280Y308981D01*
X338870Y307557D01*
X338931Y307457D01*
X338991Y307357D01*
X338996Y307353D01*
X338999Y307348D01*
X339089Y307273D01*
X339178Y307197D01*
X339184Y307195D01*
X339189Y307191D01*
X339297Y307149D01*
X339406Y307105D01*
X339414Y307104D01*
X339418Y307103D01*
X339437Y307102D01*
X339573Y307087D01*
X340441Y307087D01*
X340532Y307101D01*
X340622Y307109D01*
X340652Y307121D01*
X340684Y307126D01*
X340765Y307169D01*
X340849Y307205D01*
X340881Y307231D01*
X340902Y307242D01*
X340924Y307265D01*
X340980Y307310D01*
X349020Y315350D01*
X350583Y316913D01*
X386017Y316913D01*
X387580Y315350D01*
X396234Y306696D01*
X396272Y306669D01*
X396303Y306635D01*
X396371Y306598D01*
X396434Y306552D01*
X396478Y306539D01*
X396518Y306516D01*
X396595Y306503D01*
X396669Y306480D01*
X396715Y306481D01*
X396760Y306473D01*
X396837Y306484D01*
X396915Y306486D01*
X396958Y306502D01*
X397004Y306509D01*
X397073Y306544D01*
X397146Y306571D01*
X397182Y306599D01*
X397223Y306620D01*
X397277Y306676D01*
X397338Y306724D01*
X397363Y306763D01*
X397395Y306796D01*
X397461Y306915D01*
X397471Y306931D01*
X397472Y306936D01*
X397476Y306943D01*
X398715Y309935D01*
X401265Y312485D01*
X404597Y313865D01*
X408203Y313865D01*
X411535Y312485D01*
X413215Y310805D01*
X413252Y310778D01*
X413283Y310744D01*
X413351Y310706D01*
X413415Y310661D01*
X413458Y310648D01*
X413499Y310625D01*
X413575Y310612D01*
X413650Y310589D01*
X413696Y310590D01*
X413741Y310582D01*
X413818Y310593D01*
X413896Y310595D01*
X413939Y310611D01*
X413984Y310618D01*
X414053Y310653D01*
X414127Y310680D01*
X414162Y310708D01*
X414203Y310729D01*
X414258Y310785D01*
X414319Y310833D01*
X414343Y310872D01*
X414376Y310905D01*
X414442Y311024D01*
X414452Y311040D01*
X414453Y311045D01*
X414456Y311052D01*
X416188Y315232D01*
X421368Y320412D01*
X428137Y323216D01*
X435463Y323216D01*
X442232Y320412D01*
X447412Y315232D01*
X450216Y308463D01*
X450216Y301137D01*
X447412Y294368D01*
X442232Y289188D01*
X435463Y286384D01*
X428137Y286384D01*
X421368Y289188D01*
X416188Y294368D01*
X414456Y298548D01*
X414432Y298587D01*
X414416Y298631D01*
X414368Y298691D01*
X414327Y298757D01*
X414291Y298787D01*
X414263Y298823D01*
X414197Y298865D01*
X414137Y298914D01*
X414095Y298931D01*
X414056Y298956D01*
X413980Y298975D01*
X413908Y299002D01*
X413862Y299004D01*
X413817Y299016D01*
X413740Y299010D01*
X413662Y299013D01*
X413618Y299000D01*
X413572Y298997D01*
X413501Y298966D01*
X413426Y298944D01*
X413388Y298918D01*
X413346Y298900D01*
X413239Y298815D01*
X413224Y298804D01*
X413221Y298800D01*
X413215Y298795D01*
X411535Y297115D01*
X408203Y295735D01*
X404597Y295735D01*
X401265Y297115D01*
X400160Y298220D01*
X400102Y298262D01*
X400050Y298311D01*
X400003Y298333D01*
X399961Y298364D01*
X399892Y298385D01*
X399827Y298415D01*
X399775Y298421D01*
X399725Y298436D01*
X399654Y298434D01*
X399583Y298442D01*
X399532Y298431D01*
X399480Y298430D01*
X399412Y298405D01*
X399342Y298390D01*
X399297Y298363D01*
X399249Y298345D01*
X399193Y298300D01*
X399131Y298264D01*
X399097Y298224D01*
X399057Y298192D01*
X399018Y298131D01*
X398971Y298077D01*
X398952Y298029D01*
X398924Y297985D01*
X398906Y297915D01*
X398879Y297849D01*
X398871Y297777D01*
X398863Y297746D01*
X398865Y297723D01*
X398861Y297682D01*
X398861Y251079D01*
X398875Y250989D01*
X398883Y250898D01*
X398895Y250868D01*
X398900Y250837D01*
X398943Y250756D01*
X398979Y250672D01*
X399005Y250640D01*
X399016Y250619D01*
X399039Y250597D01*
X399084Y250541D01*
X421356Y228269D01*
X421414Y228227D01*
X421466Y228178D01*
X421513Y228156D01*
X421555Y228125D01*
X421624Y228104D01*
X421689Y228074D01*
X421741Y228068D01*
X421791Y228053D01*
X421862Y228055D01*
X421933Y228047D01*
X421984Y228058D01*
X422036Y228059D01*
X422104Y228084D01*
X422174Y228099D01*
X422219Y228126D01*
X422267Y228144D01*
X422323Y228189D01*
X422385Y228225D01*
X422419Y228265D01*
X422459Y228298D01*
X422498Y228358D01*
X422545Y228412D01*
X422564Y228461D01*
X422592Y228504D01*
X422610Y228574D01*
X422637Y228640D01*
X422645Y228712D01*
X422653Y228743D01*
X422651Y228766D01*
X422655Y228807D01*
X422655Y230419D01*
X424047Y233780D01*
X426620Y236353D01*
X429043Y237356D01*
X429143Y237418D01*
X429243Y237478D01*
X429247Y237483D01*
X429252Y237486D01*
X429327Y237576D01*
X429403Y237665D01*
X429405Y237671D01*
X429409Y237675D01*
X429451Y237784D01*
X429495Y237893D01*
X429496Y237900D01*
X429497Y237905D01*
X429498Y237923D01*
X429513Y238060D01*
X429513Y265927D01*
X461167Y297581D01*
X461220Y297655D01*
X461280Y297724D01*
X461292Y297754D01*
X461311Y297781D01*
X461338Y297868D01*
X461372Y297952D01*
X461376Y297993D01*
X461383Y298016D01*
X461382Y298048D01*
X461390Y298119D01*
X461390Y325048D01*
X461379Y325118D01*
X461377Y325190D01*
X461359Y325239D01*
X461351Y325290D01*
X461317Y325354D01*
X461292Y325421D01*
X461260Y325462D01*
X461235Y325508D01*
X461183Y325557D01*
X461139Y325613D01*
X461095Y325641D01*
X461057Y325677D01*
X460992Y325707D01*
X460932Y325746D01*
X460881Y325759D01*
X460834Y325781D01*
X460763Y325789D01*
X460693Y325806D01*
X460641Y325802D01*
X460590Y325808D01*
X460519Y325793D01*
X460448Y325787D01*
X460400Y325767D01*
X460349Y325756D01*
X460288Y325719D01*
X460222Y325691D01*
X460166Y325646D01*
X460138Y325629D01*
X460123Y325612D01*
X460091Y325586D01*
X459398Y324893D01*
X455002Y324893D01*
X452205Y327690D01*
X452131Y327743D01*
X452061Y327803D01*
X452031Y327815D01*
X452005Y327834D01*
X451918Y327861D01*
X451833Y327895D01*
X451792Y327899D01*
X451770Y327906D01*
X451738Y327905D01*
X451667Y327913D01*
X399233Y327913D01*
X399143Y327899D01*
X399052Y327891D01*
X399023Y327879D01*
X398991Y327874D01*
X398910Y327831D01*
X398826Y327795D01*
X398794Y327769D01*
X398773Y327758D01*
X398751Y327735D01*
X398695Y327690D01*
X395898Y324893D01*
X391502Y324893D01*
X388393Y328002D01*
X388393Y332398D01*
X391502Y335507D01*
X395898Y335507D01*
X398695Y332710D01*
X398769Y332657D01*
X398839Y332597D01*
X398869Y332585D01*
X398895Y332566D01*
X398982Y332539D01*
X399067Y332505D01*
X399108Y332501D01*
X399130Y332494D01*
X399162Y332495D01*
X399233Y332487D01*
X451667Y332487D01*
X451757Y332501D01*
X451848Y332509D01*
X451877Y332521D01*
X451909Y332526D01*
X451990Y332569D01*
X452074Y332605D01*
X452106Y332631D01*
X452127Y332642D01*
X452149Y332665D01*
X452205Y332710D01*
X455002Y335507D01*
X459398Y335507D01*
X460091Y334814D01*
X460149Y334772D01*
X460201Y334723D01*
X460248Y334701D01*
X460290Y334671D01*
X460359Y334649D01*
X460424Y334619D01*
X460476Y334614D01*
X460526Y334598D01*
X460597Y334600D01*
X460668Y334592D01*
X460719Y334603D01*
X460771Y334605D01*
X460839Y334629D01*
X460909Y334644D01*
X460954Y334671D01*
X461002Y334689D01*
X461058Y334734D01*
X461120Y334771D01*
X461154Y334810D01*
X461194Y334843D01*
X461233Y334903D01*
X461280Y334958D01*
X461299Y335006D01*
X461327Y335050D01*
X461345Y335119D01*
X461372Y335186D01*
X461380Y335257D01*
X461388Y335288D01*
X461386Y335311D01*
X461390Y335352D01*
X461390Y350448D01*
X461388Y350464D01*
X461389Y350479D01*
X461378Y350529D01*
X461377Y350590D01*
X461359Y350639D01*
X461351Y350690D01*
X461338Y350714D01*
X461337Y350719D01*
X461321Y350745D01*
X461317Y350754D01*
X461292Y350821D01*
X461260Y350862D01*
X461235Y350908D01*
X461183Y350957D01*
X461139Y351013D01*
X461095Y351041D01*
X461057Y351077D01*
X460992Y351107D01*
X460932Y351146D01*
X460881Y351159D01*
X460834Y351181D01*
X460763Y351189D01*
X460693Y351206D01*
X460641Y351202D01*
X460590Y351208D01*
X460519Y351193D01*
X460448Y351187D01*
X460400Y351167D01*
X460349Y351156D01*
X460288Y351119D01*
X460222Y351091D01*
X460175Y351054D01*
X460161Y351046D01*
X460154Y351039D01*
X460138Y351029D01*
X460123Y351012D01*
X460091Y350986D01*
X459398Y350293D01*
X455002Y350293D01*
X452205Y353090D01*
X452131Y353143D01*
X452061Y353203D01*
X452031Y353215D01*
X452005Y353234D01*
X451918Y353261D01*
X451833Y353295D01*
X451792Y353299D01*
X451770Y353306D01*
X451738Y353305D01*
X451667Y353313D01*
X399233Y353313D01*
X399143Y353299D01*
X399052Y353291D01*
X399023Y353279D01*
X398991Y353274D01*
X398910Y353231D01*
X398826Y353195D01*
X398794Y353169D01*
X398773Y353158D01*
X398751Y353135D01*
X398695Y353090D01*
X395898Y350293D01*
X391502Y350293D01*
X388393Y353402D01*
X388393Y357798D01*
X391502Y360907D01*
X395898Y360907D01*
X398695Y358110D01*
X398769Y358057D01*
X398839Y357997D01*
X398869Y357985D01*
X398895Y357966D01*
X398982Y357939D01*
X399067Y357905D01*
X399108Y357901D01*
X399130Y357894D01*
X399162Y357895D01*
X399233Y357887D01*
X451667Y357887D01*
X451757Y357901D01*
X451848Y357909D01*
X451877Y357921D01*
X451909Y357926D01*
X451990Y357969D01*
X452074Y358005D01*
X452106Y358031D01*
X452127Y358042D01*
X452149Y358065D01*
X452205Y358110D01*
X455002Y360907D01*
X459398Y360907D01*
X460091Y360214D01*
X460149Y360172D01*
X460201Y360123D01*
X460248Y360101D01*
X460290Y360071D01*
X460359Y360049D01*
X460424Y360019D01*
X460476Y360014D01*
X460526Y359998D01*
X460597Y360000D01*
X460668Y359992D01*
X460719Y360003D01*
X460771Y360005D01*
X460839Y360029D01*
X460909Y360044D01*
X460954Y360071D01*
X461002Y360089D01*
X461058Y360134D01*
X461120Y360171D01*
X461154Y360210D01*
X461194Y360243D01*
X461233Y360303D01*
X461280Y360358D01*
X461299Y360406D01*
X461327Y360450D01*
X461345Y360519D01*
X461372Y360586D01*
X461380Y360657D01*
X461388Y360688D01*
X461386Y360711D01*
X461390Y360752D01*
X461390Y451181D01*
X461376Y451271D01*
X461368Y451362D01*
X461356Y451392D01*
X461351Y451424D01*
X461308Y451504D01*
X461272Y451588D01*
X461246Y451620D01*
X461235Y451641D01*
X461212Y451663D01*
X461167Y451719D01*
X451515Y461371D01*
X451457Y461413D01*
X451405Y461462D01*
X451358Y461484D01*
X451316Y461515D01*
X451247Y461536D01*
X451182Y461566D01*
X451130Y461572D01*
X451080Y461587D01*
X451009Y461585D01*
X450938Y461593D01*
X450887Y461582D01*
X450835Y461581D01*
X450767Y461556D01*
X450697Y461541D01*
X450652Y461514D01*
X450604Y461496D01*
X450548Y461451D01*
X450486Y461415D01*
X450452Y461375D01*
X450412Y461343D01*
X450373Y461282D01*
X450326Y461228D01*
X450307Y461179D01*
X450279Y461136D01*
X450261Y461066D01*
X450250Y461040D01*
X450244Y461026D01*
X450244Y461023D01*
X450234Y461000D01*
X450226Y460928D01*
X450218Y460897D01*
X450220Y460874D01*
X450216Y460833D01*
X450216Y453537D01*
X447412Y446768D01*
X442232Y441588D01*
X435463Y438784D01*
X428137Y438784D01*
X421368Y441588D01*
X416188Y446768D01*
X415750Y447825D01*
X415726Y447864D01*
X415710Y447907D01*
X415661Y447968D01*
X415620Y448034D01*
X415585Y448064D01*
X415556Y448099D01*
X415491Y448142D01*
X415431Y448191D01*
X415388Y448208D01*
X415349Y448232D01*
X415274Y448251D01*
X415201Y448279D01*
X415156Y448281D01*
X415111Y448292D01*
X415033Y448286D01*
X414956Y448290D01*
X414912Y448277D01*
X414866Y448273D01*
X414794Y448243D01*
X414719Y448221D01*
X414682Y448195D01*
X414639Y448177D01*
X414587Y448135D01*
X398228Y448135D01*
X397335Y449028D01*
X397335Y465372D01*
X398228Y466265D01*
X414581Y466265D01*
X414645Y466230D01*
X414708Y466184D01*
X414752Y466171D01*
X414792Y466149D01*
X414869Y466135D01*
X414943Y466112D01*
X414989Y466113D01*
X415034Y466105D01*
X415111Y466116D01*
X415189Y466118D01*
X415232Y466134D01*
X415278Y466141D01*
X415347Y466176D01*
X415420Y466203D01*
X415456Y466231D01*
X415497Y466252D01*
X415552Y466308D01*
X415612Y466356D01*
X415637Y466395D01*
X415669Y466428D01*
X415735Y466548D01*
X415745Y466563D01*
X415746Y466568D01*
X415750Y466575D01*
X416188Y467632D01*
X421368Y472812D01*
X428137Y475616D01*
X435433Y475616D01*
X435504Y475627D01*
X435575Y475629D01*
X435624Y475647D01*
X435676Y475655D01*
X435739Y475689D01*
X435806Y475714D01*
X435847Y475746D01*
X435893Y475771D01*
X435942Y475823D01*
X435998Y475867D01*
X436027Y475911D01*
X436062Y475949D01*
X436093Y476014D01*
X436131Y476074D01*
X436144Y476125D01*
X436166Y476172D01*
X436174Y476243D01*
X436191Y476313D01*
X436187Y476365D01*
X436193Y476416D01*
X436178Y476487D01*
X436172Y476558D01*
X436152Y476606D01*
X436141Y476657D01*
X436104Y476718D01*
X436076Y476784D01*
X436031Y476840D01*
X436015Y476868D01*
X435997Y476883D01*
X435971Y476915D01*
X432796Y480090D01*
X432722Y480143D01*
X432653Y480203D01*
X432623Y480215D01*
X432596Y480234D01*
X432509Y480261D01*
X432425Y480295D01*
X432384Y480299D01*
X432361Y480306D01*
X432329Y480305D01*
X432258Y480313D01*
X189553Y480313D01*
X187990Y481876D01*
X155986Y513880D01*
X155928Y513922D01*
X155876Y513971D01*
X155829Y513993D01*
X155787Y514023D01*
X155718Y514044D01*
X155653Y514075D01*
X155601Y514080D01*
X155551Y514096D01*
X155480Y514094D01*
X155409Y514102D01*
X155358Y514091D01*
X155306Y514089D01*
X155238Y514065D01*
X155168Y514050D01*
X155123Y514023D01*
X155075Y514005D01*
X155019Y513960D01*
X154957Y513923D01*
X154923Y513884D01*
X154883Y513851D01*
X154844Y513791D01*
X154797Y513736D01*
X154778Y513688D01*
X154750Y513644D01*
X154732Y513575D01*
X154705Y513508D01*
X154697Y513437D01*
X154689Y513406D01*
X154691Y513382D01*
X154687Y513342D01*
X154687Y472359D01*
X154701Y472268D01*
X154709Y472178D01*
X154721Y472148D01*
X154726Y472116D01*
X154769Y472035D01*
X154805Y471951D01*
X154831Y471919D01*
X154842Y471898D01*
X154865Y471876D01*
X154910Y471820D01*
X164513Y462217D01*
X164513Y238506D01*
X164514Y238498D01*
X164514Y238496D01*
X164516Y238486D01*
X164514Y238467D01*
X164536Y238365D01*
X164552Y238263D01*
X164562Y238246D01*
X164566Y238226D01*
X164619Y238137D01*
X164668Y238046D01*
X164682Y238032D01*
X164692Y238015D01*
X164771Y237948D01*
X164846Y237876D01*
X164864Y237868D01*
X164879Y237855D01*
X164975Y237816D01*
X165069Y237773D01*
X165089Y237771D01*
X165107Y237763D01*
X165274Y237745D01*
X166919Y237745D01*
X170280Y236353D01*
X172853Y233780D01*
X174245Y230419D01*
X174245Y226781D01*
X172853Y223420D01*
X170280Y220847D01*
X166919Y219455D01*
X163281Y219455D01*
X159920Y220847D01*
X157347Y223420D01*
X155955Y226781D01*
X155955Y230419D01*
X157347Y233780D01*
X159716Y236149D01*
X159769Y236223D01*
X159829Y236292D01*
X159841Y236322D01*
X159860Y236349D01*
X159887Y236436D01*
X159921Y236520D01*
X159925Y236561D01*
X159932Y236584D01*
X159931Y236616D01*
X159939Y236687D01*
X159939Y297682D01*
X159928Y297753D01*
X159926Y297824D01*
X159908Y297873D01*
X159900Y297925D01*
X159866Y297988D01*
X159841Y298055D01*
X159809Y298096D01*
X159784Y298142D01*
X159732Y298191D01*
X159688Y298247D01*
X159644Y298276D01*
X159606Y298311D01*
X159541Y298342D01*
X159481Y298380D01*
X159430Y298393D01*
X159383Y298415D01*
X159312Y298423D01*
X159242Y298441D01*
X159190Y298436D01*
X159139Y298442D01*
X159068Y298427D01*
X158997Y298421D01*
X158949Y298401D01*
X158898Y298390D01*
X158837Y298353D01*
X158771Y298325D01*
X158715Y298280D01*
X158687Y298264D01*
X158672Y298246D01*
X158640Y298220D01*
X157535Y297115D01*
X154203Y295735D01*
X150597Y295735D01*
X147265Y297115D01*
X144715Y299665D01*
X143335Y302997D01*
X143335Y306603D01*
X144715Y309935D01*
X147265Y312485D01*
X150597Y313865D01*
X154203Y313865D01*
X157535Y312485D01*
X158640Y311380D01*
X158698Y311338D01*
X158750Y311289D01*
X158797Y311267D01*
X158839Y311236D01*
X158908Y311215D01*
X158973Y311185D01*
X159025Y311179D01*
X159075Y311164D01*
X159146Y311166D01*
X159217Y311158D01*
X159268Y311169D01*
X159320Y311170D01*
X159388Y311195D01*
X159458Y311210D01*
X159503Y311237D01*
X159551Y311255D01*
X159607Y311300D01*
X159669Y311336D01*
X159703Y311376D01*
X159743Y311408D01*
X159782Y311469D01*
X159829Y311523D01*
X159848Y311571D01*
X159876Y311615D01*
X159894Y311685D01*
X159921Y311751D01*
X159929Y311823D01*
X159937Y311854D01*
X159935Y311877D01*
X159939Y311918D01*
X159939Y450082D01*
X159928Y450153D01*
X159926Y450224D01*
X159908Y450273D01*
X159900Y450325D01*
X159866Y450388D01*
X159841Y450455D01*
X159809Y450496D01*
X159784Y450542D01*
X159732Y450591D01*
X159688Y450647D01*
X159644Y450676D01*
X159606Y450711D01*
X159541Y450742D01*
X159481Y450780D01*
X159430Y450793D01*
X159383Y450815D01*
X159312Y450823D01*
X159242Y450841D01*
X159190Y450836D01*
X159139Y450842D01*
X159068Y450827D01*
X158997Y450821D01*
X158949Y450801D01*
X158898Y450790D01*
X158837Y450753D01*
X158771Y450725D01*
X158715Y450680D01*
X158687Y450664D01*
X158672Y450646D01*
X158640Y450620D01*
X157535Y449515D01*
X154203Y448135D01*
X150597Y448135D01*
X147265Y449515D01*
X144715Y452065D01*
X143335Y455397D01*
X143335Y459003D01*
X144715Y462335D01*
X147265Y464885D01*
X150597Y466265D01*
X152160Y466265D01*
X152230Y466276D01*
X152302Y466278D01*
X152351Y466296D01*
X152402Y466304D01*
X152466Y466338D01*
X152533Y466363D01*
X152574Y466395D01*
X152620Y466420D01*
X152669Y466472D01*
X152725Y466516D01*
X152753Y466560D01*
X152789Y466598D01*
X152819Y466663D01*
X152858Y466723D01*
X152871Y466774D01*
X152893Y466821D01*
X152901Y466892D01*
X152918Y466962D01*
X152914Y467014D01*
X152920Y467065D01*
X152905Y467136D01*
X152899Y467207D01*
X152879Y467255D01*
X152868Y467306D01*
X152831Y467367D01*
X152803Y467433D01*
X152758Y467489D01*
X152741Y467517D01*
X152724Y467532D01*
X152698Y467564D01*
X151676Y468586D01*
X150113Y470149D01*
X150113Y519437D01*
X150110Y519457D01*
X150112Y519476D01*
X150097Y519546D01*
X150091Y519618D01*
X150079Y519648D01*
X150074Y519680D01*
X150064Y519698D01*
X150060Y519717D01*
X150024Y519777D01*
X149995Y519845D01*
X149969Y519877D01*
X149958Y519898D01*
X149943Y519912D01*
X149934Y519928D01*
X149917Y519942D01*
X149890Y519976D01*
X119354Y550512D01*
X119280Y550565D01*
X119210Y550625D01*
X119180Y550637D01*
X119154Y550656D01*
X119067Y550683D01*
X118982Y550717D01*
X118941Y550721D01*
X118919Y550728D01*
X118887Y550727D01*
X118815Y550735D01*
X106156Y550735D01*
X103192Y551963D01*
X100923Y554232D01*
X99695Y557196D01*
X99695Y560404D01*
X100923Y563368D01*
X103192Y565637D01*
X106156Y566865D01*
X122444Y566865D01*
X125408Y565637D01*
X127677Y563368D01*
X128427Y561557D01*
X128489Y561457D01*
X128549Y561357D01*
X128554Y561353D01*
X128557Y561348D01*
X128647Y561273D01*
X128736Y561197D01*
X128742Y561195D01*
X128746Y561191D01*
X128855Y561149D01*
X128964Y561105D01*
X128971Y561104D01*
X128976Y561103D01*
X128994Y561102D01*
X129131Y561087D01*
X534347Y561087D01*
X623165Y472269D01*
X686524Y408910D01*
X688087Y407347D01*
X688087Y238060D01*
X688106Y237945D01*
X688123Y237829D01*
X688125Y237823D01*
X688126Y237817D01*
X688181Y237714D01*
X688234Y237609D01*
X688239Y237605D01*
X688242Y237600D01*
X688326Y237520D01*
X688410Y237437D01*
X688416Y237434D01*
X688420Y237430D01*
X688437Y237422D01*
X688557Y237356D01*
X690980Y236353D01*
X693553Y233780D01*
X694945Y230419D01*
X694945Y226781D01*
X693553Y223420D01*
X690980Y220847D01*
X687619Y219455D01*
X683981Y219455D01*
X680620Y220847D01*
X678047Y223420D01*
X676655Y226781D01*
X676655Y230419D01*
X678047Y233780D01*
X680620Y236353D01*
X683043Y237356D01*
X683143Y237418D01*
X683243Y237478D01*
X683247Y237483D01*
X683252Y237486D01*
X683327Y237576D01*
X683403Y237665D01*
X683405Y237671D01*
X683409Y237675D01*
X683451Y237784D01*
X683495Y237893D01*
X683496Y237900D01*
X683497Y237905D01*
X683498Y237923D01*
X683513Y238060D01*
X683513Y405137D01*
X683499Y405228D01*
X683491Y405318D01*
X683479Y405348D01*
X683474Y405380D01*
X683431Y405461D01*
X683395Y405545D01*
X683369Y405577D01*
X683358Y405598D01*
X683335Y405620D01*
X683290Y405676D01*
X619338Y469628D01*
X532676Y556290D01*
X532602Y556343D01*
X532532Y556403D01*
X532502Y556415D01*
X532476Y556434D01*
X532389Y556461D01*
X532304Y556495D01*
X532263Y556499D01*
X532241Y556506D01*
X532209Y556505D01*
X532137Y556513D01*
X129131Y556513D01*
X129016Y556494D01*
X128900Y556477D01*
X128894Y556475D01*
X128888Y556474D01*
X128785Y556419D01*
X128680Y556366D01*
X128676Y556361D01*
X128671Y556358D01*
X128591Y556274D01*
X128508Y556190D01*
X128505Y556184D01*
X128501Y556180D01*
X128493Y556163D01*
X128427Y556043D01*
X127677Y554232D01*
X125428Y551983D01*
X125416Y551966D01*
X125401Y551954D01*
X125345Y551867D01*
X125284Y551783D01*
X125278Y551764D01*
X125268Y551747D01*
X125242Y551647D01*
X125212Y551548D01*
X125212Y551528D01*
X125208Y551509D01*
X125216Y551406D01*
X125218Y551302D01*
X125225Y551283D01*
X125227Y551263D01*
X125267Y551169D01*
X125303Y551071D01*
X125315Y551055D01*
X125323Y551037D01*
X125428Y550906D01*
X154910Y521424D01*
X171194Y505140D01*
X171252Y505098D01*
X171304Y505049D01*
X171351Y505027D01*
X171393Y504997D01*
X171462Y504976D01*
X171527Y504945D01*
X171579Y504940D01*
X171629Y504924D01*
X171700Y504926D01*
X171771Y504918D01*
X171822Y504929D01*
X171874Y504931D01*
X171942Y504955D01*
X172012Y504970D01*
X172056Y504997D01*
X172105Y505015D01*
X172161Y505060D01*
X172223Y505097D01*
X172257Y505136D01*
X172297Y505169D01*
X172336Y505229D01*
X172383Y505284D01*
X172402Y505332D01*
X172430Y505376D01*
X172448Y505445D01*
X172475Y505512D01*
X172483Y505583D01*
X172491Y505614D01*
X172489Y505638D01*
X172493Y505678D01*
X172493Y510198D01*
X175602Y513307D01*
X179998Y513307D01*
X182795Y510510D01*
X182869Y510457D01*
X182939Y510397D01*
X182969Y510385D01*
X182995Y510366D01*
X183082Y510339D01*
X183167Y510305D01*
X183208Y510301D01*
X183230Y510294D01*
X183262Y510295D01*
X183333Y510287D01*
X470847Y510287D01*
X472410Y508724D01*
X540712Y440422D01*
X540729Y440410D01*
X540741Y440394D01*
X540828Y440338D01*
X540912Y440278D01*
X540931Y440272D01*
X540948Y440261D01*
X541048Y440236D01*
X541147Y440206D01*
X541167Y440206D01*
X541186Y440201D01*
X541289Y440209D01*
X541393Y440212D01*
X541412Y440219D01*
X541432Y440220D01*
X541527Y440261D01*
X541624Y440296D01*
X541640Y440309D01*
X541658Y440317D01*
X541789Y440422D01*
X542312Y440945D01*
X549888Y440945D01*
X555214Y435619D01*
X555272Y435577D01*
X555324Y435528D01*
X555371Y435506D01*
X555413Y435475D01*
X555482Y435454D01*
X555547Y435424D01*
X555599Y435418D01*
X555649Y435403D01*
X555720Y435405D01*
X555791Y435397D01*
X555842Y435408D01*
X555894Y435409D01*
X555962Y435434D01*
X556032Y435449D01*
X556077Y435476D01*
X556125Y435494D01*
X556181Y435539D01*
X556243Y435575D01*
X556277Y435615D01*
X556317Y435647D01*
X556356Y435708D01*
X556403Y435762D01*
X556422Y435811D01*
X556450Y435854D01*
X556468Y435924D01*
X556495Y435990D01*
X556503Y436062D01*
X556511Y436093D01*
X556509Y436116D01*
X556513Y436157D01*
X556513Y443237D01*
X556499Y443328D01*
X556491Y443418D01*
X556479Y443448D01*
X556474Y443480D01*
X556431Y443561D01*
X556395Y443645D01*
X556369Y443677D01*
X556358Y443698D01*
X556335Y443720D01*
X556290Y443776D01*
X481876Y518190D01*
X481802Y518243D01*
X481732Y518303D01*
X481702Y518315D01*
X481676Y518334D01*
X481589Y518361D01*
X481504Y518395D01*
X481463Y518399D01*
X481441Y518406D01*
X481409Y518405D01*
X481337Y518413D01*
X361133Y518413D01*
X361043Y518399D01*
X360952Y518391D01*
X360923Y518379D01*
X360891Y518374D01*
X360810Y518331D01*
X360726Y518295D01*
X360694Y518269D01*
X360673Y518258D01*
X360651Y518235D01*
X360595Y518190D01*
X357798Y515393D01*
X353402Y515393D01*
X350293Y518502D01*
X350293Y522898D01*
X353402Y526007D01*
X357798Y526007D01*
X360595Y523210D01*
X360669Y523157D01*
X360739Y523097D01*
X360769Y523085D01*
X360795Y523066D01*
X360882Y523039D01*
X360967Y523005D01*
X361008Y523001D01*
X361030Y522994D01*
X361062Y522995D01*
X361133Y522987D01*
X483547Y522987D01*
X561087Y445447D01*
X561087Y436915D01*
X561098Y436848D01*
X561099Y436780D01*
X561117Y436727D01*
X561126Y436672D01*
X561158Y436612D01*
X561181Y436548D01*
X561215Y436504D01*
X561242Y436454D01*
X561291Y436408D01*
X561333Y436354D01*
X561379Y436324D01*
X561420Y436285D01*
X561482Y436256D01*
X561538Y436219D01*
X561592Y436205D01*
X561643Y436181D01*
X561710Y436174D01*
X561776Y436157D01*
X561832Y436160D01*
X561887Y436154D01*
X561954Y436169D01*
X562021Y436173D01*
X562073Y436195D01*
X562128Y436207D01*
X562186Y436241D01*
X562249Y436267D01*
X562291Y436304D01*
X562339Y436333D01*
X562383Y436384D01*
X562434Y436429D01*
X562477Y436495D01*
X562499Y436520D01*
X562507Y436539D01*
X562526Y436569D01*
X562810Y437125D01*
X563750Y438419D01*
X564881Y439550D01*
X566175Y440490D01*
X567600Y441216D01*
X569121Y441711D01*
X569977Y441846D01*
X569977Y432562D01*
X569980Y432542D01*
X569978Y432523D01*
X570000Y432421D01*
X570017Y432319D01*
X570026Y432302D01*
X570030Y432282D01*
X570083Y432193D01*
X570132Y432102D01*
X570146Y432088D01*
X570156Y432071D01*
X570235Y432004D01*
X570310Y431933D01*
X570328Y431924D01*
X570343Y431911D01*
X570439Y431873D01*
X570533Y431829D01*
X570553Y431827D01*
X570571Y431819D01*
X570738Y431801D01*
X571501Y431801D01*
X571501Y431799D01*
X570738Y431799D01*
X570718Y431796D01*
X570699Y431798D01*
X570597Y431776D01*
X570495Y431759D01*
X570478Y431750D01*
X570458Y431746D01*
X570369Y431693D01*
X570278Y431644D01*
X570264Y431630D01*
X570247Y431620D01*
X570180Y431541D01*
X570109Y431466D01*
X570100Y431448D01*
X570087Y431433D01*
X570048Y431337D01*
X570005Y431243D01*
X570003Y431223D01*
X569995Y431205D01*
X569977Y431038D01*
X569977Y421754D01*
X569121Y421889D01*
X567600Y422384D01*
X566175Y423110D01*
X564881Y424050D01*
X563750Y425181D01*
X562810Y426475D01*
X562809Y426477D01*
X562526Y427031D01*
X562486Y427086D01*
X562454Y427146D01*
X562414Y427184D01*
X562381Y427229D01*
X562325Y427268D01*
X562276Y427315D01*
X562225Y427339D01*
X562179Y427371D01*
X562115Y427390D01*
X562053Y427419D01*
X561997Y427425D01*
X561944Y427441D01*
X561876Y427438D01*
X561809Y427446D01*
X561754Y427434D01*
X561698Y427432D01*
X561634Y427408D01*
X561568Y427393D01*
X561520Y427365D01*
X561468Y427345D01*
X561415Y427302D01*
X561357Y427267D01*
X561321Y427225D01*
X561277Y427189D01*
X561241Y427132D01*
X561197Y427080D01*
X561176Y427028D01*
X561146Y426981D01*
X561131Y426915D01*
X561105Y426852D01*
X561097Y426774D01*
X561089Y426742D01*
X561091Y426721D01*
X561087Y426685D01*
X561087Y418153D01*
X554722Y411788D01*
X554710Y411771D01*
X554694Y411759D01*
X554638Y411672D01*
X554578Y411588D01*
X554572Y411569D01*
X554561Y411552D01*
X554536Y411452D01*
X554506Y411353D01*
X554506Y411333D01*
X554501Y411314D01*
X554509Y411211D01*
X554512Y411107D01*
X554519Y411088D01*
X554520Y411068D01*
X554561Y410973D01*
X554596Y410876D01*
X554609Y410860D01*
X554617Y410842D01*
X554722Y410711D01*
X555245Y410188D01*
X555245Y402612D01*
X549888Y397255D01*
X542312Y397255D01*
X536955Y402612D01*
X536955Y410188D01*
X542312Y415545D01*
X549888Y415545D01*
X550411Y415022D01*
X550427Y415010D01*
X550440Y414994D01*
X550527Y414938D01*
X550611Y414878D01*
X550630Y414872D01*
X550647Y414861D01*
X550747Y414836D01*
X550846Y414806D01*
X550866Y414806D01*
X550885Y414801D01*
X550988Y414809D01*
X551092Y414812D01*
X551111Y414819D01*
X551130Y414820D01*
X551225Y414861D01*
X551323Y414896D01*
X551338Y414909D01*
X551357Y414917D01*
X551488Y415022D01*
X556290Y419824D01*
X556343Y419898D01*
X556403Y419968D01*
X556415Y419998D01*
X556434Y420024D01*
X556461Y420111D01*
X556495Y420196D01*
X556499Y420237D01*
X556506Y420259D01*
X556505Y420291D01*
X556513Y420363D01*
X556513Y427443D01*
X556502Y427514D01*
X556500Y427585D01*
X556482Y427634D01*
X556474Y427686D01*
X556440Y427749D01*
X556415Y427816D01*
X556383Y427857D01*
X556358Y427903D01*
X556306Y427952D01*
X556262Y428008D01*
X556218Y428037D01*
X556180Y428072D01*
X556115Y428103D01*
X556055Y428141D01*
X556004Y428154D01*
X555957Y428176D01*
X555886Y428184D01*
X555816Y428201D01*
X555764Y428197D01*
X555713Y428203D01*
X555642Y428188D01*
X555571Y428182D01*
X555523Y428162D01*
X555472Y428151D01*
X555411Y428114D01*
X555345Y428086D01*
X555289Y428041D01*
X555261Y428025D01*
X555246Y428007D01*
X555214Y427981D01*
X549888Y422655D01*
X542312Y422655D01*
X536955Y428012D01*
X536955Y435588D01*
X537478Y436111D01*
X537490Y436127D01*
X537506Y436140D01*
X537562Y436227D01*
X537622Y436311D01*
X537628Y436330D01*
X537639Y436347D01*
X537664Y436447D01*
X537694Y436546D01*
X537694Y436566D01*
X537699Y436585D01*
X537691Y436688D01*
X537688Y436792D01*
X537681Y436811D01*
X537680Y436830D01*
X537639Y436925D01*
X537604Y437023D01*
X537591Y437038D01*
X537583Y437057D01*
X537478Y437188D01*
X469176Y505490D01*
X469102Y505543D01*
X469032Y505603D01*
X469002Y505615D01*
X468976Y505634D01*
X468889Y505661D01*
X468804Y505695D01*
X468763Y505699D01*
X468741Y505706D01*
X468709Y505705D01*
X468637Y505713D01*
X183333Y505713D01*
X183243Y505699D01*
X183152Y505691D01*
X183123Y505679D01*
X183091Y505674D01*
X183010Y505631D01*
X182926Y505595D01*
X182894Y505569D01*
X182873Y505558D01*
X182851Y505535D01*
X182795Y505490D01*
X179998Y502693D01*
X175478Y502693D01*
X175408Y502682D01*
X175336Y502680D01*
X175287Y502662D01*
X175236Y502654D01*
X175172Y502620D01*
X175105Y502595D01*
X175064Y502563D01*
X175018Y502538D01*
X174969Y502486D01*
X174913Y502442D01*
X174885Y502398D01*
X174849Y502360D01*
X174819Y502295D01*
X174780Y502235D01*
X174767Y502184D01*
X174745Y502137D01*
X174737Y502066D01*
X174720Y501996D01*
X174724Y501944D01*
X174718Y501893D01*
X174733Y501822D01*
X174739Y501751D01*
X174759Y501703D01*
X174770Y501652D01*
X174807Y501591D01*
X174835Y501525D01*
X174880Y501469D01*
X174897Y501441D01*
X174900Y501438D01*
X174900Y501437D01*
X174916Y501424D01*
X174940Y501394D01*
X191224Y485110D01*
X191298Y485057D01*
X191368Y484997D01*
X191398Y484985D01*
X191424Y484966D01*
X191511Y484939D01*
X191596Y484905D01*
X191637Y484901D01*
X191659Y484894D01*
X191691Y484895D01*
X191763Y484887D01*
X434468Y484887D01*
X465964Y453391D01*
X465964Y437206D01*
X465966Y437193D01*
X465965Y437183D01*
X465975Y437134D01*
X465977Y437064D01*
X465995Y437015D01*
X466003Y436964D01*
X466037Y436900D01*
X466062Y436833D01*
X466094Y436792D01*
X466119Y436746D01*
X466170Y436697D01*
X466215Y436641D01*
X466259Y436613D01*
X466297Y436577D01*
X466362Y436547D01*
X466422Y436508D01*
X466473Y436495D01*
X466520Y436473D01*
X466591Y436465D01*
X466661Y436448D01*
X466713Y436452D01*
X466764Y436446D01*
X466835Y436461D01*
X466906Y436467D01*
X466954Y436487D01*
X467005Y436498D01*
X467066Y436535D01*
X467132Y436563D01*
X467188Y436608D01*
X467216Y436625D01*
X467231Y436642D01*
X467263Y436668D01*
X467702Y437107D01*
X472098Y437107D01*
X474895Y434310D01*
X474969Y434257D01*
X475039Y434197D01*
X475069Y434185D01*
X475095Y434166D01*
X475182Y434139D01*
X475267Y434105D01*
X475308Y434101D01*
X475330Y434094D01*
X475362Y434095D01*
X475433Y434087D01*
X510794Y434087D01*
X510814Y434090D01*
X510833Y434088D01*
X510935Y434110D01*
X511037Y434126D01*
X511054Y434136D01*
X511074Y434140D01*
X511163Y434193D01*
X511254Y434242D01*
X511268Y434256D01*
X511285Y434266D01*
X511352Y434345D01*
X511424Y434420D01*
X511432Y434438D01*
X511445Y434453D01*
X511484Y434549D01*
X511527Y434643D01*
X511529Y434663D01*
X511537Y434681D01*
X511555Y434848D01*
X511555Y435588D01*
X516912Y440945D01*
X524488Y440945D01*
X529845Y435588D01*
X529845Y428012D01*
X524488Y422655D01*
X516912Y422655D01*
X511555Y428012D01*
X511555Y428752D01*
X511552Y428772D01*
X511554Y428791D01*
X511532Y428893D01*
X511516Y428995D01*
X511506Y429012D01*
X511502Y429032D01*
X511449Y429121D01*
X511400Y429212D01*
X511386Y429226D01*
X511376Y429243D01*
X511297Y429310D01*
X511222Y429382D01*
X511204Y429390D01*
X511189Y429403D01*
X511093Y429442D01*
X510999Y429485D01*
X510979Y429487D01*
X510961Y429495D01*
X510794Y429513D01*
X475433Y429513D01*
X475343Y429499D01*
X475252Y429491D01*
X475223Y429479D01*
X475191Y429474D01*
X475110Y429431D01*
X475026Y429395D01*
X474994Y429369D01*
X474973Y429358D01*
X474951Y429335D01*
X474895Y429290D01*
X472098Y426493D01*
X467702Y426493D01*
X467263Y426932D01*
X467205Y426974D01*
X467153Y427023D01*
X467106Y427045D01*
X467064Y427075D01*
X466995Y427097D01*
X466930Y427127D01*
X466878Y427132D01*
X466828Y427148D01*
X466757Y427146D01*
X466686Y427154D01*
X466635Y427143D01*
X466583Y427141D01*
X466515Y427117D01*
X466445Y427102D01*
X466400Y427075D01*
X466352Y427057D01*
X466296Y427012D01*
X466234Y426975D01*
X466200Y426936D01*
X466160Y426903D01*
X466121Y426843D01*
X466074Y426788D01*
X466055Y426740D01*
X466027Y426696D01*
X466009Y426627D01*
X465982Y426560D01*
X465974Y426489D01*
X465966Y426458D01*
X465968Y426435D01*
X465964Y426394D01*
X465964Y411806D01*
X465975Y411736D01*
X465977Y411664D01*
X465995Y411615D01*
X466003Y411564D01*
X466037Y411500D01*
X466062Y411433D01*
X466094Y411392D01*
X466119Y411346D01*
X466170Y411297D01*
X466215Y411241D01*
X466259Y411213D01*
X466297Y411177D01*
X466362Y411147D01*
X466422Y411108D01*
X466473Y411095D01*
X466520Y411073D01*
X466591Y411065D01*
X466661Y411048D01*
X466713Y411052D01*
X466764Y411046D01*
X466835Y411061D01*
X466906Y411067D01*
X466954Y411087D01*
X467005Y411098D01*
X467066Y411135D01*
X467132Y411163D01*
X467188Y411208D01*
X467216Y411225D01*
X467231Y411242D01*
X467263Y411268D01*
X467702Y411707D01*
X472098Y411707D01*
X474895Y408910D01*
X474969Y408857D01*
X475039Y408797D01*
X475069Y408785D01*
X475095Y408766D01*
X475182Y408739D01*
X475267Y408705D01*
X475308Y408701D01*
X475330Y408694D01*
X475362Y408695D01*
X475433Y408687D01*
X510794Y408687D01*
X510814Y408690D01*
X510833Y408688D01*
X510935Y408710D01*
X511037Y408726D01*
X511054Y408736D01*
X511074Y408740D01*
X511163Y408793D01*
X511254Y408842D01*
X511268Y408856D01*
X511285Y408866D01*
X511352Y408945D01*
X511424Y409020D01*
X511432Y409038D01*
X511445Y409053D01*
X511484Y409149D01*
X511527Y409243D01*
X511529Y409263D01*
X511537Y409281D01*
X511555Y409448D01*
X511555Y410188D01*
X516912Y415545D01*
X524488Y415545D01*
X529845Y410188D01*
X529845Y402612D01*
X524488Y397255D01*
X516912Y397255D01*
X511555Y402612D01*
G37*
%LPD*%
%LPC*%
G36*
X212456Y11939D02*
X212456Y11939D01*
X205802Y13722D01*
X199837Y17166D01*
X194966Y22037D01*
X191522Y28002D01*
X189739Y34656D01*
X189739Y41544D01*
X191522Y48198D01*
X194966Y54163D01*
X199837Y59034D01*
X205802Y62478D01*
X212456Y64261D01*
X219344Y64261D01*
X225998Y62478D01*
X231963Y59034D01*
X236834Y54163D01*
X240278Y48198D01*
X242061Y41544D01*
X242061Y34656D01*
X240278Y28002D01*
X236834Y22037D01*
X231963Y17166D01*
X225998Y13722D01*
X219344Y11939D01*
X212456Y11939D01*
G37*
%LPD*%
G36*
X425997Y215404D02*
X425997Y215404D01*
X426069Y215406D01*
X426118Y215424D01*
X426169Y215432D01*
X426232Y215466D01*
X426300Y215491D01*
X426340Y215523D01*
X426386Y215548D01*
X426436Y215600D01*
X426492Y215644D01*
X426520Y215688D01*
X426556Y215726D01*
X426586Y215791D01*
X426625Y215851D01*
X426637Y215902D01*
X426659Y215949D01*
X426667Y216020D01*
X426685Y216090D01*
X426681Y216142D01*
X426687Y216193D01*
X426671Y216264D01*
X426666Y216335D01*
X426645Y216383D01*
X426634Y216434D01*
X426597Y216495D01*
X426569Y216561D01*
X426525Y216617D01*
X426508Y216645D01*
X426490Y216660D01*
X426465Y216692D01*
X425187Y217970D01*
X394287Y248870D01*
X394287Y301860D01*
X394273Y301950D01*
X394265Y302041D01*
X394253Y302070D01*
X394248Y302102D01*
X394205Y302183D01*
X394169Y302267D01*
X394143Y302299D01*
X394132Y302320D01*
X394109Y302342D01*
X394064Y302398D01*
X392325Y304137D01*
X392315Y304144D01*
X392308Y304154D01*
X392215Y304216D01*
X392125Y304281D01*
X392114Y304284D01*
X392104Y304291D01*
X391997Y304320D01*
X391890Y304353D01*
X391878Y304353D01*
X391867Y304356D01*
X391756Y304349D01*
X391644Y304347D01*
X391633Y304342D01*
X391621Y304342D01*
X391519Y304301D01*
X391413Y304262D01*
X391404Y304255D01*
X391393Y304250D01*
X391308Y304178D01*
X391221Y304108D01*
X391215Y304098D01*
X391206Y304091D01*
X391149Y303995D01*
X391088Y303901D01*
X391085Y303890D01*
X391079Y303880D01*
X391035Y303718D01*
X390833Y302439D01*
X390342Y300930D01*
X389622Y299517D01*
X388689Y298233D01*
X387567Y297111D01*
X386283Y296178D01*
X384870Y295458D01*
X383361Y294967D01*
X382523Y294835D01*
X382523Y304038D01*
X382520Y304058D01*
X382522Y304077D01*
X382500Y304179D01*
X382483Y304281D01*
X382474Y304298D01*
X382470Y304318D01*
X382417Y304407D01*
X382368Y304498D01*
X382354Y304512D01*
X382344Y304529D01*
X382265Y304596D01*
X382190Y304667D01*
X382172Y304676D01*
X382157Y304689D01*
X382061Y304727D01*
X381967Y304771D01*
X381947Y304773D01*
X381929Y304781D01*
X381762Y304799D01*
X380999Y304799D01*
X380999Y305562D01*
X380996Y305582D01*
X380998Y305601D01*
X380976Y305703D01*
X380959Y305805D01*
X380950Y305822D01*
X380946Y305842D01*
X380893Y305931D01*
X380844Y306022D01*
X380830Y306036D01*
X380820Y306053D01*
X380741Y306120D01*
X380666Y306191D01*
X380648Y306200D01*
X380633Y306213D01*
X380537Y306252D01*
X380443Y306295D01*
X380423Y306297D01*
X380405Y306305D01*
X380238Y306323D01*
X371035Y306323D01*
X371167Y307161D01*
X371658Y308670D01*
X372378Y310083D01*
X373139Y311131D01*
X373144Y311141D01*
X373153Y311150D01*
X373200Y311251D01*
X373249Y311350D01*
X373251Y311362D01*
X373256Y311373D01*
X373268Y311484D01*
X373284Y311594D01*
X373282Y311606D01*
X373283Y311617D01*
X373260Y311726D01*
X373239Y311836D01*
X373234Y311846D01*
X373231Y311858D01*
X373174Y311954D01*
X373120Y312051D01*
X373111Y312059D01*
X373105Y312069D01*
X373020Y312141D01*
X372938Y312216D01*
X372927Y312221D01*
X372918Y312229D01*
X372814Y312271D01*
X372713Y312315D01*
X372701Y312316D01*
X372690Y312321D01*
X372523Y312339D01*
X362718Y312339D01*
X362647Y312328D01*
X362576Y312326D01*
X362527Y312308D01*
X362475Y312300D01*
X362412Y312266D01*
X362345Y312241D01*
X362304Y312209D01*
X362258Y312184D01*
X362209Y312132D01*
X362153Y312088D01*
X362124Y312044D01*
X362089Y312006D01*
X362058Y311941D01*
X362020Y311881D01*
X362007Y311830D01*
X361985Y311783D01*
X361977Y311712D01*
X361959Y311642D01*
X361964Y311590D01*
X361958Y311539D01*
X361973Y311468D01*
X361979Y311397D01*
X361999Y311349D01*
X362010Y311298D01*
X362047Y311237D01*
X362075Y311171D01*
X362120Y311115D01*
X362136Y311087D01*
X362154Y311072D01*
X362180Y311040D01*
X363285Y309935D01*
X364665Y306603D01*
X364665Y302997D01*
X363285Y299665D01*
X360735Y297115D01*
X357403Y295735D01*
X353797Y295735D01*
X350465Y297115D01*
X347915Y299665D01*
X346535Y302997D01*
X346535Y304560D01*
X346524Y304630D01*
X346522Y304702D01*
X346504Y304751D01*
X346496Y304802D01*
X346462Y304866D01*
X346437Y304933D01*
X346405Y304974D01*
X346380Y305020D01*
X346328Y305069D01*
X346284Y305125D01*
X346240Y305153D01*
X346202Y305189D01*
X346137Y305219D01*
X346077Y305258D01*
X346026Y305271D01*
X345979Y305293D01*
X345908Y305301D01*
X345838Y305318D01*
X345786Y305314D01*
X345735Y305320D01*
X345664Y305305D01*
X345593Y305299D01*
X345545Y305279D01*
X345494Y305268D01*
X345433Y305231D01*
X345367Y305203D01*
X345311Y305158D01*
X345283Y305141D01*
X345268Y305124D01*
X345236Y305098D01*
X342651Y302513D01*
X339573Y302513D01*
X339458Y302494D01*
X339342Y302477D01*
X339336Y302475D01*
X339330Y302474D01*
X339228Y302419D01*
X339123Y302366D01*
X339118Y302361D01*
X339113Y302358D01*
X339033Y302274D01*
X338951Y302190D01*
X338947Y302184D01*
X338944Y302180D01*
X338936Y302163D01*
X338870Y302043D01*
X338280Y300619D01*
X338253Y300505D01*
X338224Y300392D01*
X338225Y300385D01*
X338224Y300379D01*
X338235Y300263D01*
X338244Y300146D01*
X338246Y300141D01*
X338247Y300134D01*
X338294Y300027D01*
X338340Y299920D01*
X338345Y299914D01*
X338347Y299910D01*
X338359Y299896D01*
X338445Y299789D01*
X422618Y215616D01*
X422692Y215563D01*
X422762Y215503D01*
X422792Y215491D01*
X422818Y215472D01*
X422905Y215445D01*
X422990Y215411D01*
X423031Y215407D01*
X423053Y215400D01*
X423085Y215401D01*
X423157Y215393D01*
X425926Y215393D01*
X425997Y215404D01*
G37*
%LPC*%
G36*
X137502Y324893D02*
X137502Y324893D01*
X134393Y328002D01*
X134393Y331957D01*
X134379Y332048D01*
X134371Y332138D01*
X134359Y332168D01*
X134354Y332200D01*
X134311Y332281D01*
X134275Y332365D01*
X134249Y332397D01*
X134238Y332418D01*
X134215Y332440D01*
X134170Y332496D01*
X73913Y392753D01*
X73913Y447827D01*
X73894Y447942D01*
X73877Y448058D01*
X73875Y448064D01*
X73874Y448070D01*
X73819Y448172D01*
X73766Y448277D01*
X73761Y448282D01*
X73758Y448287D01*
X73674Y448367D01*
X73590Y448449D01*
X73584Y448453D01*
X73580Y448456D01*
X73563Y448464D01*
X73443Y448530D01*
X71065Y449515D01*
X68515Y452065D01*
X67135Y455397D01*
X67135Y459003D01*
X68515Y462335D01*
X71065Y464885D01*
X74397Y466265D01*
X78003Y466265D01*
X81335Y464885D01*
X83885Y462335D01*
X85265Y459003D01*
X85265Y455397D01*
X83885Y452065D01*
X81335Y449515D01*
X78957Y448530D01*
X78857Y448468D01*
X78757Y448409D01*
X78753Y448404D01*
X78748Y448401D01*
X78673Y448310D01*
X78597Y448222D01*
X78595Y448216D01*
X78591Y448211D01*
X78549Y448103D01*
X78505Y447994D01*
X78504Y447986D01*
X78503Y447982D01*
X78502Y447963D01*
X78487Y447827D01*
X78487Y394963D01*
X78501Y394872D01*
X78509Y394782D01*
X78521Y394752D01*
X78526Y394720D01*
X78569Y394639D01*
X78605Y394555D01*
X78631Y394523D01*
X78642Y394502D01*
X78665Y394480D01*
X78710Y394424D01*
X137404Y335730D01*
X137478Y335677D01*
X137548Y335617D01*
X137578Y335605D01*
X137604Y335586D01*
X137691Y335559D01*
X137776Y335525D01*
X137817Y335521D01*
X137839Y335514D01*
X137871Y335515D01*
X137943Y335507D01*
X141898Y335507D01*
X145007Y332398D01*
X145007Y328002D01*
X141898Y324893D01*
X137502Y324893D01*
G37*
%LPD*%
%LPC*%
G36*
X150202Y337593D02*
X150202Y337593D01*
X147093Y340702D01*
X147093Y344657D01*
X147079Y344748D01*
X147071Y344838D01*
X147059Y344868D01*
X147054Y344900D01*
X147011Y344981D01*
X146975Y345065D01*
X146949Y345097D01*
X146938Y345118D01*
X146915Y345140D01*
X146870Y345196D01*
X100876Y391190D01*
X99313Y392753D01*
X99313Y447827D01*
X99294Y447942D01*
X99277Y448058D01*
X99275Y448064D01*
X99274Y448070D01*
X99219Y448172D01*
X99166Y448277D01*
X99161Y448282D01*
X99158Y448287D01*
X99074Y448367D01*
X98990Y448449D01*
X98984Y448453D01*
X98980Y448456D01*
X98963Y448464D01*
X98843Y448530D01*
X96465Y449515D01*
X93915Y452065D01*
X92535Y455397D01*
X92535Y459003D01*
X93915Y462335D01*
X96465Y464885D01*
X99797Y466265D01*
X103403Y466265D01*
X106735Y464885D01*
X109285Y462335D01*
X110665Y459003D01*
X110665Y455397D01*
X109285Y452065D01*
X106735Y449515D01*
X104357Y448530D01*
X104257Y448468D01*
X104157Y448409D01*
X104153Y448404D01*
X104148Y448401D01*
X104073Y448310D01*
X103997Y448222D01*
X103995Y448216D01*
X103991Y448211D01*
X103949Y448103D01*
X103905Y447994D01*
X103904Y447986D01*
X103903Y447982D01*
X103902Y447963D01*
X103887Y447827D01*
X103887Y394962D01*
X103901Y394872D01*
X103909Y394781D01*
X103921Y394752D01*
X103926Y394720D01*
X103969Y394639D01*
X104005Y394555D01*
X104031Y394523D01*
X104042Y394502D01*
X104065Y394480D01*
X104110Y394424D01*
X150104Y348430D01*
X150178Y348377D01*
X150248Y348317D01*
X150278Y348305D01*
X150304Y348286D01*
X150391Y348259D01*
X150476Y348225D01*
X150517Y348221D01*
X150539Y348214D01*
X150571Y348215D01*
X150643Y348207D01*
X154598Y348207D01*
X157707Y345098D01*
X157707Y340702D01*
X154598Y337593D01*
X150202Y337593D01*
G37*
%LPD*%
%LPC*%
G36*
X201002Y337593D02*
X201002Y337593D01*
X197893Y340702D01*
X197893Y345098D01*
X201002Y348207D01*
X205398Y348207D01*
X208195Y345410D01*
X208269Y345357D01*
X208339Y345297D01*
X208369Y345285D01*
X208395Y345266D01*
X208482Y345239D01*
X208567Y345205D01*
X208608Y345201D01*
X208630Y345194D01*
X208662Y345195D01*
X208733Y345187D01*
X311967Y345187D01*
X312057Y345201D01*
X312148Y345209D01*
X312177Y345221D01*
X312209Y345226D01*
X312290Y345269D01*
X312374Y345305D01*
X312406Y345331D01*
X312427Y345342D01*
X312449Y345365D01*
X312505Y345410D01*
X315302Y348207D01*
X319698Y348207D01*
X322807Y345098D01*
X322807Y340702D01*
X319698Y337593D01*
X315302Y337593D01*
X312505Y340390D01*
X312431Y340443D01*
X312361Y340503D01*
X312331Y340515D01*
X312305Y340534D01*
X312218Y340561D01*
X312133Y340595D01*
X312092Y340599D01*
X312070Y340606D01*
X312038Y340605D01*
X311967Y340613D01*
X208733Y340613D01*
X208643Y340599D01*
X208552Y340591D01*
X208523Y340579D01*
X208491Y340574D01*
X208410Y340531D01*
X208326Y340495D01*
X208294Y340469D01*
X208273Y340458D01*
X208251Y340435D01*
X208195Y340390D01*
X205398Y337593D01*
X201002Y337593D01*
G37*
%LPD*%
%LPC*%
G36*
X201002Y324893D02*
X201002Y324893D01*
X197893Y328002D01*
X197893Y332398D01*
X201002Y335507D01*
X205398Y335507D01*
X208195Y332710D01*
X208269Y332657D01*
X208339Y332597D01*
X208369Y332585D01*
X208395Y332566D01*
X208482Y332539D01*
X208567Y332505D01*
X208608Y332501D01*
X208630Y332494D01*
X208662Y332495D01*
X208733Y332487D01*
X311967Y332487D01*
X312057Y332501D01*
X312148Y332509D01*
X312177Y332521D01*
X312209Y332526D01*
X312290Y332569D01*
X312374Y332605D01*
X312406Y332631D01*
X312427Y332642D01*
X312449Y332665D01*
X312505Y332710D01*
X315302Y335507D01*
X319698Y335507D01*
X322807Y332398D01*
X322807Y328002D01*
X319698Y324893D01*
X315302Y324893D01*
X312505Y327690D01*
X312431Y327743D01*
X312361Y327803D01*
X312331Y327815D01*
X312305Y327834D01*
X312218Y327861D01*
X312133Y327895D01*
X312092Y327899D01*
X312070Y327906D01*
X312038Y327905D01*
X311967Y327913D01*
X208733Y327913D01*
X208643Y327899D01*
X208552Y327891D01*
X208523Y327879D01*
X208491Y327874D01*
X208410Y327831D01*
X208326Y327795D01*
X208294Y327769D01*
X208273Y327758D01*
X208251Y327735D01*
X208195Y327690D01*
X205398Y324893D01*
X201002Y324893D01*
G37*
%LPD*%
%LPC*%
G36*
X473161Y117855D02*
X473161Y117855D01*
X469800Y119247D01*
X467227Y121820D01*
X465835Y125181D01*
X465835Y128819D01*
X467227Y132180D01*
X469800Y134753D01*
X473161Y136145D01*
X492039Y136145D01*
X495400Y134753D01*
X497973Y132180D01*
X499365Y128819D01*
X499365Y125181D01*
X497973Y121820D01*
X495400Y119247D01*
X492039Y117855D01*
X473161Y117855D01*
G37*
%LPD*%
%LPC*%
G36*
X203100Y170047D02*
X203100Y170047D01*
X200527Y172620D01*
X199135Y175981D01*
X199135Y179619D01*
X200527Y182980D01*
X203100Y185553D01*
X206461Y186945D01*
X225339Y186945D01*
X228700Y185553D01*
X231273Y182980D01*
X232665Y179619D01*
X232665Y175981D01*
X231273Y172620D01*
X228700Y170047D01*
X225339Y168655D01*
X206461Y168655D01*
X203100Y170047D01*
G37*
%LPD*%
%LPC*%
G36*
X206461Y92455D02*
X206461Y92455D01*
X203100Y93847D01*
X200527Y96420D01*
X199135Y99781D01*
X199135Y103419D01*
X200527Y106780D01*
X203100Y109353D01*
X206461Y110745D01*
X225339Y110745D01*
X228700Y109353D01*
X231273Y106780D01*
X232665Y103419D01*
X232665Y99781D01*
X231273Y96420D01*
X228700Y93847D01*
X225339Y92455D01*
X206461Y92455D01*
G37*
%LPD*%
%LPC*%
G36*
X727161Y168655D02*
X727161Y168655D01*
X723800Y170047D01*
X721227Y172620D01*
X719835Y175981D01*
X719835Y179619D01*
X721227Y182980D01*
X723800Y185553D01*
X727161Y186945D01*
X746039Y186945D01*
X749400Y185553D01*
X751973Y182980D01*
X753365Y179619D01*
X753365Y175981D01*
X751973Y172620D01*
X749400Y170047D01*
X746039Y168655D01*
X727161Y168655D01*
G37*
%LPD*%
%LPC*%
G36*
X473161Y92455D02*
X473161Y92455D01*
X469800Y93847D01*
X467227Y96420D01*
X465835Y99781D01*
X465835Y103419D01*
X467227Y106780D01*
X469800Y109353D01*
X473161Y110745D01*
X492039Y110745D01*
X495400Y109353D01*
X497973Y106780D01*
X499365Y103419D01*
X499365Y99781D01*
X497973Y96420D01*
X495400Y93847D01*
X492039Y92455D01*
X473161Y92455D01*
G37*
%LPD*%
%LPC*%
G36*
X206461Y117855D02*
X206461Y117855D01*
X203100Y119247D01*
X200527Y121820D01*
X199135Y125181D01*
X199135Y128819D01*
X200527Y132180D01*
X203100Y134753D01*
X206461Y136145D01*
X225339Y136145D01*
X228700Y134753D01*
X231273Y132180D01*
X232665Y128819D01*
X232665Y125181D01*
X231273Y121820D01*
X228700Y119247D01*
X225339Y117855D01*
X206461Y117855D01*
G37*
%LPD*%
%LPC*%
G36*
X727161Y117855D02*
X727161Y117855D01*
X723800Y119247D01*
X721227Y121820D01*
X719835Y125181D01*
X719835Y128819D01*
X721227Y132180D01*
X723800Y134753D01*
X727161Y136145D01*
X746039Y136145D01*
X749400Y134753D01*
X751973Y132180D01*
X753365Y128819D01*
X753365Y125181D01*
X751973Y121820D01*
X749400Y119247D01*
X746039Y117855D01*
X727161Y117855D01*
G37*
%LPD*%
%LPC*%
G36*
X473161Y143255D02*
X473161Y143255D01*
X469800Y144647D01*
X467227Y147220D01*
X465835Y150581D01*
X465835Y154219D01*
X467227Y157580D01*
X469800Y160153D01*
X473161Y161545D01*
X492039Y161545D01*
X495400Y160153D01*
X497973Y157580D01*
X499365Y154219D01*
X499365Y150581D01*
X497973Y147220D01*
X495400Y144647D01*
X492039Y143255D01*
X473161Y143255D01*
G37*
%LPD*%
%LPC*%
G36*
X727161Y143255D02*
X727161Y143255D01*
X723800Y144647D01*
X721227Y147220D01*
X719835Y150581D01*
X719835Y154219D01*
X721227Y157580D01*
X723800Y160153D01*
X727161Y161545D01*
X746039Y161545D01*
X749400Y160153D01*
X751973Y157580D01*
X753365Y154219D01*
X753365Y150581D01*
X751973Y147220D01*
X749400Y144647D01*
X746039Y143255D01*
X727161Y143255D01*
G37*
%LPD*%
%LPC*%
G36*
X206461Y143255D02*
X206461Y143255D01*
X203100Y144647D01*
X200527Y147220D01*
X199135Y150581D01*
X199135Y154219D01*
X200527Y157580D01*
X203100Y160153D01*
X206461Y161545D01*
X225339Y161545D01*
X228700Y160153D01*
X231273Y157580D01*
X232665Y154219D01*
X232665Y150581D01*
X231273Y147220D01*
X228700Y144647D01*
X225339Y143255D01*
X206461Y143255D01*
G37*
%LPD*%
%LPC*%
G36*
X727161Y92455D02*
X727161Y92455D01*
X723800Y93847D01*
X721227Y96420D01*
X719835Y99781D01*
X719835Y103419D01*
X721227Y106780D01*
X723800Y109353D01*
X727161Y110745D01*
X746039Y110745D01*
X749400Y109353D01*
X751973Y106780D01*
X753365Y103419D01*
X753365Y99781D01*
X751973Y96420D01*
X749400Y93847D01*
X746039Y92455D01*
X727161Y92455D01*
G37*
%LPD*%
%LPC*%
G36*
X55356Y550735D02*
X55356Y550735D01*
X52392Y551963D01*
X50123Y554232D01*
X48895Y557196D01*
X48895Y560404D01*
X50123Y563368D01*
X52392Y565637D01*
X55356Y566865D01*
X71644Y566865D01*
X74608Y565637D01*
X76877Y563368D01*
X78105Y560404D01*
X78105Y557196D01*
X76877Y554232D01*
X74608Y551963D01*
X71644Y550735D01*
X55356Y550735D01*
G37*
%LPD*%
%LPC*%
G36*
X55356Y525335D02*
X55356Y525335D01*
X52392Y526563D01*
X50123Y528832D01*
X48895Y531796D01*
X48895Y535004D01*
X50123Y537968D01*
X52392Y540237D01*
X55356Y541465D01*
X71644Y541465D01*
X74608Y540237D01*
X76877Y537968D01*
X78105Y535004D01*
X78105Y531796D01*
X76877Y528832D01*
X74608Y526563D01*
X71644Y525335D01*
X55356Y525335D01*
G37*
%LPD*%
%LPC*%
G36*
X302981Y168655D02*
X302981Y168655D01*
X299620Y170047D01*
X297047Y172620D01*
X295655Y175981D01*
X295655Y179619D01*
X297047Y182980D01*
X299620Y185553D01*
X302981Y186945D01*
X306619Y186945D01*
X309980Y185553D01*
X312553Y182980D01*
X313945Y179619D01*
X313945Y175981D01*
X312553Y172620D01*
X309980Y170047D01*
X306619Y168655D01*
X302981Y168655D01*
G37*
%LPD*%
%LPC*%
G36*
X36281Y194055D02*
X36281Y194055D01*
X32920Y195447D01*
X30347Y198020D01*
X28955Y201381D01*
X28955Y205019D01*
X30347Y208380D01*
X32920Y210953D01*
X36281Y212345D01*
X39919Y212345D01*
X43280Y210953D01*
X45853Y208380D01*
X47245Y205019D01*
X47245Y201381D01*
X45853Y198020D01*
X43280Y195447D01*
X39919Y194055D01*
X36281Y194055D01*
G37*
%LPD*%
%LPC*%
G36*
X556981Y117855D02*
X556981Y117855D01*
X553620Y119247D01*
X551047Y121820D01*
X549655Y125181D01*
X549655Y128819D01*
X551047Y132180D01*
X553620Y134753D01*
X556981Y136145D01*
X560619Y136145D01*
X563980Y134753D01*
X566553Y132180D01*
X567945Y128819D01*
X567945Y125181D01*
X566553Y121820D01*
X563980Y119247D01*
X560619Y117855D01*
X556981Y117855D01*
G37*
%LPD*%
%LPC*%
G36*
X429981Y117855D02*
X429981Y117855D01*
X426620Y119247D01*
X424047Y121820D01*
X422655Y125181D01*
X422655Y128819D01*
X424047Y132180D01*
X426620Y134753D01*
X429981Y136145D01*
X433619Y136145D01*
X436980Y134753D01*
X439553Y132180D01*
X440945Y128819D01*
X440945Y125181D01*
X439553Y121820D01*
X436980Y119247D01*
X433619Y117855D01*
X429981Y117855D01*
G37*
%LPD*%
%LPC*%
G36*
X302981Y117855D02*
X302981Y117855D01*
X299620Y119247D01*
X297047Y121820D01*
X295655Y125181D01*
X295655Y128819D01*
X297047Y132180D01*
X299620Y134753D01*
X302981Y136145D01*
X306619Y136145D01*
X309980Y134753D01*
X312553Y132180D01*
X313945Y128819D01*
X313945Y125181D01*
X312553Y121820D01*
X309980Y119247D01*
X306619Y117855D01*
X302981Y117855D01*
G37*
%LPD*%
%LPC*%
G36*
X556981Y92455D02*
X556981Y92455D01*
X553620Y93847D01*
X551047Y96420D01*
X549655Y99781D01*
X549655Y103419D01*
X551047Y106780D01*
X553620Y109353D01*
X556981Y110745D01*
X560619Y110745D01*
X563980Y109353D01*
X566553Y106780D01*
X567945Y103419D01*
X567945Y99781D01*
X566553Y96420D01*
X563980Y93847D01*
X560619Y92455D01*
X556981Y92455D01*
G37*
%LPD*%
%LPC*%
G36*
X683981Y92455D02*
X683981Y92455D01*
X680620Y93847D01*
X678047Y96420D01*
X676655Y99781D01*
X676655Y103419D01*
X678047Y106780D01*
X680620Y109353D01*
X683981Y110745D01*
X687619Y110745D01*
X690980Y109353D01*
X693553Y106780D01*
X694945Y103419D01*
X694945Y99781D01*
X693553Y96420D01*
X690980Y93847D01*
X687619Y92455D01*
X683981Y92455D01*
G37*
%LPD*%
%LPC*%
G36*
X683981Y117855D02*
X683981Y117855D01*
X680620Y119247D01*
X678047Y121820D01*
X676655Y125181D01*
X676655Y128819D01*
X678047Y132180D01*
X680620Y134753D01*
X683981Y136145D01*
X687619Y136145D01*
X690980Y134753D01*
X693553Y132180D01*
X694945Y128819D01*
X694945Y125181D01*
X693553Y121820D01*
X690980Y119247D01*
X687619Y117855D01*
X683981Y117855D01*
G37*
%LPD*%
%LPC*%
G36*
X36281Y117855D02*
X36281Y117855D01*
X32920Y119247D01*
X30347Y121820D01*
X28955Y125181D01*
X28955Y128819D01*
X30347Y132180D01*
X32920Y134753D01*
X36281Y136145D01*
X39919Y136145D01*
X43280Y134753D01*
X45853Y132180D01*
X47245Y128819D01*
X47245Y125181D01*
X45853Y121820D01*
X43280Y119247D01*
X39919Y117855D01*
X36281Y117855D01*
G37*
%LPD*%
%LPC*%
G36*
X429981Y92455D02*
X429981Y92455D01*
X426620Y93847D01*
X424047Y96420D01*
X422655Y99781D01*
X422655Y103419D01*
X424047Y106780D01*
X426620Y109353D01*
X429981Y110745D01*
X433619Y110745D01*
X436980Y109353D01*
X439553Y106780D01*
X440945Y103419D01*
X440945Y99781D01*
X439553Y96420D01*
X436980Y93847D01*
X433619Y92455D01*
X429981Y92455D01*
G37*
%LPD*%
%LPC*%
G36*
X302981Y143255D02*
X302981Y143255D01*
X299620Y144647D01*
X297047Y147220D01*
X295655Y150581D01*
X295655Y154219D01*
X297047Y157580D01*
X299620Y160153D01*
X302981Y161545D01*
X306619Y161545D01*
X309980Y160153D01*
X312553Y157580D01*
X313945Y154219D01*
X313945Y150581D01*
X312553Y147220D01*
X309980Y144647D01*
X306619Y143255D01*
X302981Y143255D01*
G37*
%LPD*%
%LPC*%
G36*
X429981Y143255D02*
X429981Y143255D01*
X426620Y144647D01*
X424047Y147220D01*
X422655Y150581D01*
X422655Y154219D01*
X424047Y157580D01*
X426620Y160153D01*
X429981Y161545D01*
X433619Y161545D01*
X436980Y160153D01*
X439553Y157580D01*
X440945Y154219D01*
X440945Y150581D01*
X439553Y147220D01*
X436980Y144647D01*
X433619Y143255D01*
X429981Y143255D01*
G37*
%LPD*%
%LPC*%
G36*
X36281Y219455D02*
X36281Y219455D01*
X32920Y220847D01*
X30347Y223420D01*
X28955Y226781D01*
X28955Y230419D01*
X30347Y233780D01*
X32920Y236353D01*
X36281Y237745D01*
X39919Y237745D01*
X43280Y236353D01*
X45853Y233780D01*
X47245Y230419D01*
X47245Y226781D01*
X45853Y223420D01*
X43280Y220847D01*
X39919Y219455D01*
X36281Y219455D01*
G37*
%LPD*%
%LPC*%
G36*
X429981Y168655D02*
X429981Y168655D01*
X426620Y170047D01*
X424047Y172620D01*
X422655Y175981D01*
X422655Y179619D01*
X424047Y182980D01*
X426620Y185553D01*
X429981Y186945D01*
X433619Y186945D01*
X436980Y185553D01*
X439553Y182980D01*
X440945Y179619D01*
X440945Y175981D01*
X439553Y172620D01*
X436980Y170047D01*
X433619Y168655D01*
X429981Y168655D01*
G37*
%LPD*%
%LPC*%
G36*
X556981Y143255D02*
X556981Y143255D01*
X553620Y144647D01*
X551047Y147220D01*
X549655Y150581D01*
X549655Y154219D01*
X551047Y157580D01*
X553620Y160153D01*
X556981Y161545D01*
X560619Y161545D01*
X563980Y160153D01*
X566553Y157580D01*
X567945Y154219D01*
X567945Y150581D01*
X566553Y147220D01*
X563980Y144647D01*
X560619Y143255D01*
X556981Y143255D01*
G37*
%LPD*%
%LPC*%
G36*
X683981Y143255D02*
X683981Y143255D01*
X680620Y144647D01*
X678047Y147220D01*
X676655Y150581D01*
X676655Y154219D01*
X678047Y157580D01*
X680620Y160153D01*
X683981Y161545D01*
X687619Y161545D01*
X690980Y160153D01*
X693553Y157580D01*
X694945Y154219D01*
X694945Y150581D01*
X693553Y147220D01*
X690980Y144647D01*
X687619Y143255D01*
X683981Y143255D01*
G37*
%LPD*%
%LPC*%
G36*
X302981Y92455D02*
X302981Y92455D01*
X299620Y93847D01*
X297047Y96420D01*
X295655Y99781D01*
X295655Y103419D01*
X297047Y106780D01*
X299620Y109353D01*
X302981Y110745D01*
X306619Y110745D01*
X309980Y109353D01*
X312553Y106780D01*
X313945Y103419D01*
X313945Y99781D01*
X312553Y96420D01*
X309980Y93847D01*
X306619Y92455D01*
X302981Y92455D01*
G37*
%LPD*%
%LPC*%
G36*
X302981Y194055D02*
X302981Y194055D01*
X299620Y195447D01*
X297047Y198020D01*
X295655Y201381D01*
X295655Y205019D01*
X297047Y208380D01*
X299620Y210953D01*
X302981Y212345D01*
X306619Y212345D01*
X309980Y210953D01*
X312553Y208380D01*
X313945Y205019D01*
X313945Y201381D01*
X312553Y198020D01*
X309980Y195447D01*
X306619Y194055D01*
X302981Y194055D01*
G37*
%LPD*%
%LPC*%
G36*
X683981Y168655D02*
X683981Y168655D01*
X680620Y170047D01*
X678047Y172620D01*
X676655Y175981D01*
X676655Y179619D01*
X678047Y182980D01*
X680620Y185553D01*
X683981Y186945D01*
X687619Y186945D01*
X690980Y185553D01*
X693553Y182980D01*
X694945Y179619D01*
X694945Y175981D01*
X693553Y172620D01*
X690980Y170047D01*
X687619Y168655D01*
X683981Y168655D01*
G37*
%LPD*%
%LPC*%
G36*
X556981Y219455D02*
X556981Y219455D01*
X553620Y220847D01*
X551047Y223420D01*
X549655Y226781D01*
X549655Y230419D01*
X551047Y233780D01*
X553620Y236353D01*
X556981Y237745D01*
X560619Y237745D01*
X563980Y236353D01*
X566553Y233780D01*
X567945Y230419D01*
X567945Y226781D01*
X566553Y223420D01*
X563980Y220847D01*
X560619Y219455D01*
X556981Y219455D01*
G37*
%LPD*%
%LPC*%
G36*
X302981Y219455D02*
X302981Y219455D01*
X299620Y220847D01*
X297047Y223420D01*
X295655Y226781D01*
X295655Y230419D01*
X297047Y233780D01*
X299620Y236353D01*
X302981Y237745D01*
X306619Y237745D01*
X309980Y236353D01*
X312553Y233780D01*
X313945Y230419D01*
X313945Y226781D01*
X312553Y223420D01*
X309980Y220847D01*
X306619Y219455D01*
X302981Y219455D01*
G37*
%LPD*%
%LPC*%
G36*
X36281Y143255D02*
X36281Y143255D01*
X32920Y144647D01*
X30347Y147220D01*
X28955Y150581D01*
X28955Y154219D01*
X30347Y157580D01*
X32920Y160153D01*
X36281Y161545D01*
X39919Y161545D01*
X43280Y160153D01*
X45853Y157580D01*
X47245Y154219D01*
X47245Y150581D01*
X45853Y147220D01*
X43280Y144647D01*
X39919Y143255D01*
X36281Y143255D01*
G37*
%LPD*%
%LPC*%
G36*
X36281Y92455D02*
X36281Y92455D01*
X32920Y93847D01*
X30347Y96420D01*
X28955Y99781D01*
X28955Y103419D01*
X30347Y106780D01*
X32920Y109353D01*
X36281Y110745D01*
X39919Y110745D01*
X43280Y109353D01*
X45853Y106780D01*
X47245Y103419D01*
X47245Y99781D01*
X45853Y96420D01*
X43280Y93847D01*
X39919Y92455D01*
X36281Y92455D01*
G37*
%LPD*%
%LPC*%
G36*
X36281Y67055D02*
X36281Y67055D01*
X32920Y68447D01*
X30347Y71020D01*
X28955Y74381D01*
X28955Y78019D01*
X30347Y81380D01*
X32920Y83953D01*
X36281Y85345D01*
X39919Y85345D01*
X43280Y83953D01*
X45853Y81380D01*
X47245Y78019D01*
X47245Y74381D01*
X45853Y71020D01*
X43280Y68447D01*
X39919Y67055D01*
X36281Y67055D01*
G37*
%LPD*%
%LPC*%
G36*
X556981Y67055D02*
X556981Y67055D01*
X553620Y68447D01*
X551047Y71020D01*
X549655Y74381D01*
X549655Y78019D01*
X551047Y81380D01*
X553620Y83953D01*
X556981Y85345D01*
X560619Y85345D01*
X563980Y83953D01*
X566553Y81380D01*
X567945Y78019D01*
X567945Y74381D01*
X566553Y71020D01*
X563980Y68447D01*
X560619Y67055D01*
X556981Y67055D01*
G37*
%LPD*%
%LPC*%
G36*
X302981Y67055D02*
X302981Y67055D01*
X299620Y68447D01*
X297047Y71020D01*
X295655Y74381D01*
X295655Y78019D01*
X297047Y81380D01*
X299620Y83953D01*
X302981Y85345D01*
X306619Y85345D01*
X309980Y83953D01*
X312553Y81380D01*
X313945Y78019D01*
X313945Y74381D01*
X312553Y71020D01*
X309980Y68447D01*
X306619Y67055D01*
X302981Y67055D01*
G37*
%LPD*%
%LPC*%
G36*
X36281Y168655D02*
X36281Y168655D01*
X32920Y170047D01*
X30347Y172620D01*
X28955Y175981D01*
X28955Y179619D01*
X30347Y182980D01*
X32920Y185553D01*
X36281Y186945D01*
X39919Y186945D01*
X43280Y185553D01*
X45853Y182980D01*
X47245Y179619D01*
X47245Y175981D01*
X45853Y172620D01*
X43280Y170047D01*
X39919Y168655D01*
X36281Y168655D01*
G37*
%LPD*%
%LPC*%
G36*
X36281Y41655D02*
X36281Y41655D01*
X32920Y43047D01*
X30347Y45620D01*
X28955Y48981D01*
X28955Y52619D01*
X30347Y55980D01*
X32920Y58553D01*
X36281Y59945D01*
X39919Y59945D01*
X43280Y58553D01*
X45853Y55980D01*
X47245Y52619D01*
X47245Y48981D01*
X45853Y45620D01*
X43280Y43047D01*
X39919Y41655D01*
X36281Y41655D01*
G37*
%LPD*%
%LPC*%
G36*
X556981Y41655D02*
X556981Y41655D01*
X553620Y43047D01*
X551047Y45620D01*
X549655Y48981D01*
X549655Y52619D01*
X551047Y55980D01*
X553620Y58553D01*
X556981Y59945D01*
X560619Y59945D01*
X563980Y58553D01*
X566553Y55980D01*
X567945Y52619D01*
X567945Y48981D01*
X566553Y45620D01*
X563980Y43047D01*
X560619Y41655D01*
X556981Y41655D01*
G37*
%LPD*%
%LPC*%
G36*
X302981Y41655D02*
X302981Y41655D01*
X299620Y43047D01*
X297047Y45620D01*
X295655Y48981D01*
X295655Y52619D01*
X297047Y55980D01*
X299620Y58553D01*
X302981Y59945D01*
X306619Y59945D01*
X309980Y58553D01*
X312553Y55980D01*
X313945Y52619D01*
X313945Y48981D01*
X312553Y45620D01*
X309980Y43047D01*
X306619Y41655D01*
X302981Y41655D01*
G37*
%LPD*%
%LPC*%
G36*
X125197Y295735D02*
X125197Y295735D01*
X121865Y297115D01*
X119315Y299665D01*
X117935Y302997D01*
X117935Y306603D01*
X119315Y309935D01*
X121865Y312485D01*
X125197Y313865D01*
X128803Y313865D01*
X132135Y312485D01*
X134685Y309935D01*
X136065Y306603D01*
X136065Y302997D01*
X134685Y299665D01*
X132135Y297115D01*
X128803Y295735D01*
X125197Y295735D01*
G37*
%LPD*%
%LPC*%
G36*
X201397Y295735D02*
X201397Y295735D01*
X198065Y297115D01*
X195515Y299665D01*
X194135Y302997D01*
X194135Y306603D01*
X195515Y309935D01*
X198065Y312485D01*
X201397Y313865D01*
X205003Y313865D01*
X208335Y312485D01*
X210885Y309935D01*
X212265Y306603D01*
X212265Y302997D01*
X210885Y299665D01*
X208335Y297115D01*
X205003Y295735D01*
X201397Y295735D01*
G37*
%LPD*%
%LPC*%
G36*
X99797Y295735D02*
X99797Y295735D01*
X96465Y297115D01*
X93915Y299665D01*
X92535Y302997D01*
X92535Y306603D01*
X93915Y309935D01*
X96465Y312485D01*
X99797Y313865D01*
X103403Y313865D01*
X106735Y312485D01*
X109285Y309935D01*
X110665Y306603D01*
X110665Y302997D01*
X109285Y299665D01*
X106735Y297115D01*
X103403Y295735D01*
X99797Y295735D01*
G37*
%LPD*%
%LPC*%
G36*
X175997Y295735D02*
X175997Y295735D01*
X172665Y297115D01*
X170115Y299665D01*
X168735Y302997D01*
X168735Y306603D01*
X170115Y309935D01*
X172665Y312485D01*
X175997Y313865D01*
X179603Y313865D01*
X182935Y312485D01*
X185485Y309935D01*
X186865Y306603D01*
X186865Y302997D01*
X185485Y299665D01*
X182935Y297115D01*
X179603Y295735D01*
X175997Y295735D01*
G37*
%LPD*%
%LPC*%
G36*
X226797Y295735D02*
X226797Y295735D01*
X223465Y297115D01*
X220915Y299665D01*
X219535Y302997D01*
X219535Y306603D01*
X220915Y309935D01*
X223465Y312485D01*
X226797Y313865D01*
X230403Y313865D01*
X233735Y312485D01*
X236285Y309935D01*
X237665Y306603D01*
X237665Y302997D01*
X236285Y299665D01*
X233735Y297115D01*
X230403Y295735D01*
X226797Y295735D01*
G37*
%LPD*%
%LPC*%
G36*
X252197Y295735D02*
X252197Y295735D01*
X248865Y297115D01*
X246315Y299665D01*
X244935Y302997D01*
X244935Y306603D01*
X246315Y309935D01*
X248865Y312485D01*
X252197Y313865D01*
X255803Y313865D01*
X259135Y312485D01*
X261685Y309935D01*
X263065Y306603D01*
X263065Y302997D01*
X261685Y299665D01*
X259135Y297115D01*
X255803Y295735D01*
X252197Y295735D01*
G37*
%LPD*%
%LPC*%
G36*
X302997Y295735D02*
X302997Y295735D01*
X299665Y297115D01*
X297115Y299665D01*
X295735Y302997D01*
X295735Y306603D01*
X297115Y309935D01*
X299665Y312485D01*
X302997Y313865D01*
X306603Y313865D01*
X309935Y312485D01*
X312485Y309935D01*
X313865Y306603D01*
X313865Y302997D01*
X312485Y299665D01*
X309935Y297115D01*
X306603Y295735D01*
X302997Y295735D01*
G37*
%LPD*%
%LPC*%
G36*
X74397Y295735D02*
X74397Y295735D01*
X71065Y297115D01*
X68515Y299665D01*
X67135Y302997D01*
X67135Y306603D01*
X68515Y309935D01*
X71065Y312485D01*
X74397Y313865D01*
X78003Y313865D01*
X81335Y312485D01*
X83885Y309935D01*
X85265Y306603D01*
X85265Y302997D01*
X83885Y299665D01*
X81335Y297115D01*
X78003Y295735D01*
X74397Y295735D01*
G37*
%LPD*%
%LPC*%
G36*
X125197Y448135D02*
X125197Y448135D01*
X121865Y449515D01*
X119315Y452065D01*
X117935Y455397D01*
X117935Y459003D01*
X119315Y462335D01*
X121865Y464885D01*
X125197Y466265D01*
X128803Y466265D01*
X132135Y464885D01*
X134685Y462335D01*
X136065Y459003D01*
X136065Y455397D01*
X134685Y452065D01*
X132135Y449515D01*
X128803Y448135D01*
X125197Y448135D01*
G37*
%LPD*%
%LPC*%
G36*
X277597Y295735D02*
X277597Y295735D01*
X274265Y297115D01*
X271715Y299665D01*
X270335Y302997D01*
X270335Y306603D01*
X271715Y309935D01*
X274265Y312485D01*
X277597Y313865D01*
X281203Y313865D01*
X284535Y312485D01*
X287085Y309935D01*
X288465Y306603D01*
X288465Y302997D01*
X287085Y299665D01*
X284535Y297115D01*
X281203Y295735D01*
X277597Y295735D01*
G37*
%LPD*%
%LPC*%
G36*
X277597Y448135D02*
X277597Y448135D01*
X274265Y449515D01*
X271715Y452065D01*
X270335Y455397D01*
X270335Y459003D01*
X271715Y462335D01*
X274265Y464885D01*
X277597Y466265D01*
X281203Y466265D01*
X284535Y464885D01*
X287085Y462335D01*
X288465Y459003D01*
X288465Y455397D01*
X287085Y452065D01*
X284535Y449515D01*
X281203Y448135D01*
X277597Y448135D01*
G37*
%LPD*%
%LPC*%
G36*
X252197Y448135D02*
X252197Y448135D01*
X248865Y449515D01*
X246315Y452065D01*
X244935Y455397D01*
X244935Y459003D01*
X246315Y462335D01*
X248865Y464885D01*
X252197Y466265D01*
X255803Y466265D01*
X259135Y464885D01*
X261685Y462335D01*
X263065Y459003D01*
X263065Y455397D01*
X261685Y452065D01*
X259135Y449515D01*
X255803Y448135D01*
X252197Y448135D01*
G37*
%LPD*%
%LPC*%
G36*
X226797Y448135D02*
X226797Y448135D01*
X223465Y449515D01*
X220915Y452065D01*
X219535Y455397D01*
X219535Y459003D01*
X220915Y462335D01*
X223465Y464885D01*
X226797Y466265D01*
X230403Y466265D01*
X233735Y464885D01*
X236285Y462335D01*
X237665Y459003D01*
X237665Y455397D01*
X236285Y452065D01*
X233735Y449515D01*
X230403Y448135D01*
X226797Y448135D01*
G37*
%LPD*%
%LPC*%
G36*
X302997Y448135D02*
X302997Y448135D01*
X299665Y449515D01*
X297115Y452065D01*
X295735Y455397D01*
X295735Y459003D01*
X297115Y462335D01*
X299665Y464885D01*
X302997Y466265D01*
X306603Y466265D01*
X309935Y464885D01*
X312485Y462335D01*
X313865Y459003D01*
X313865Y455397D01*
X312485Y452065D01*
X309935Y449515D01*
X306603Y448135D01*
X302997Y448135D01*
G37*
%LPD*%
%LPC*%
G36*
X175997Y448135D02*
X175997Y448135D01*
X172665Y449515D01*
X170115Y452065D01*
X168735Y455397D01*
X168735Y459003D01*
X170115Y462335D01*
X172665Y464885D01*
X175997Y466265D01*
X179603Y466265D01*
X182935Y464885D01*
X185485Y462335D01*
X186865Y459003D01*
X186865Y455397D01*
X185485Y452065D01*
X182935Y449515D01*
X179603Y448135D01*
X175997Y448135D01*
G37*
%LPD*%
%LPC*%
G36*
X379197Y448135D02*
X379197Y448135D01*
X375865Y449515D01*
X373315Y452065D01*
X371935Y455397D01*
X371935Y459003D01*
X373315Y462335D01*
X375865Y464885D01*
X379197Y466265D01*
X382803Y466265D01*
X386135Y464885D01*
X388685Y462335D01*
X390065Y459003D01*
X390065Y455397D01*
X388685Y452065D01*
X386135Y449515D01*
X382803Y448135D01*
X379197Y448135D01*
G37*
%LPD*%
%LPC*%
G36*
X353797Y448135D02*
X353797Y448135D01*
X350465Y449515D01*
X347915Y452065D01*
X346535Y455397D01*
X346535Y459003D01*
X347915Y462335D01*
X350465Y464885D01*
X353797Y466265D01*
X357403Y466265D01*
X360735Y464885D01*
X363285Y462335D01*
X364665Y459003D01*
X364665Y455397D01*
X363285Y452065D01*
X360735Y449515D01*
X357403Y448135D01*
X353797Y448135D01*
G37*
%LPD*%
%LPC*%
G36*
X328397Y448135D02*
X328397Y448135D01*
X325065Y449515D01*
X322515Y452065D01*
X321135Y455397D01*
X321135Y459003D01*
X322515Y462335D01*
X325065Y464885D01*
X328397Y466265D01*
X332003Y466265D01*
X335335Y464885D01*
X337885Y462335D01*
X339265Y459003D01*
X339265Y455397D01*
X337885Y452065D01*
X335335Y449515D01*
X332003Y448135D01*
X328397Y448135D01*
G37*
%LPD*%
%LPC*%
G36*
X201397Y448135D02*
X201397Y448135D01*
X198065Y449515D01*
X195515Y452065D01*
X194135Y455397D01*
X194135Y459003D01*
X195515Y462335D01*
X198065Y464885D01*
X201397Y466265D01*
X205003Y466265D01*
X208335Y464885D01*
X210885Y462335D01*
X212265Y459003D01*
X212265Y455397D01*
X210885Y452065D01*
X208335Y449515D01*
X205003Y448135D01*
X201397Y448135D01*
G37*
%LPD*%
%LPC*%
G36*
X115823Y534923D02*
X115823Y534923D01*
X115823Y542481D01*
X121734Y542481D01*
X123489Y542132D01*
X125141Y541447D01*
X126629Y540453D01*
X127893Y539189D01*
X128887Y537701D01*
X129572Y536049D01*
X129796Y534923D01*
X115823Y534923D01*
G37*
%LPD*%
%LPC*%
G36*
X98804Y534923D02*
X98804Y534923D01*
X99028Y536049D01*
X99713Y537701D01*
X100707Y539189D01*
X101971Y540453D01*
X103459Y541447D01*
X105111Y542132D01*
X106866Y542481D01*
X112777Y542481D01*
X112777Y534923D01*
X98804Y534923D01*
G37*
%LPD*%
%LPC*%
G36*
X115823Y524319D02*
X115823Y524319D01*
X115823Y531877D01*
X129796Y531877D01*
X129572Y530751D01*
X128887Y529099D01*
X127893Y527611D01*
X126629Y526347D01*
X125141Y525353D01*
X123489Y524668D01*
X121734Y524319D01*
X115823Y524319D01*
G37*
%LPD*%
%LPC*%
G36*
X106866Y524319D02*
X106866Y524319D01*
X105111Y524668D01*
X103459Y525353D01*
X101971Y526347D01*
X100707Y527611D01*
X99713Y529099D01*
X99028Y530751D01*
X98804Y531877D01*
X112777Y531877D01*
X112777Y524319D01*
X106866Y524319D01*
G37*
%LPD*%
%LPC*%
G36*
X573023Y319023D02*
X573023Y319023D01*
X573023Y327661D01*
X575709Y327661D01*
X581661Y321709D01*
X581661Y319023D01*
X573023Y319023D01*
G37*
%LPD*%
%LPC*%
G36*
X573023Y407923D02*
X573023Y407923D01*
X573023Y416561D01*
X575709Y416561D01*
X581661Y410609D01*
X581661Y407923D01*
X573023Y407923D01*
G37*
%LPD*%
%LPC*%
G36*
X561339Y319023D02*
X561339Y319023D01*
X561339Y321709D01*
X567291Y327661D01*
X569977Y327661D01*
X569977Y319023D01*
X561339Y319023D01*
G37*
%LPD*%
%LPC*%
G36*
X561339Y407923D02*
X561339Y407923D01*
X561339Y410609D01*
X567291Y416561D01*
X569977Y416561D01*
X569977Y407923D01*
X561339Y407923D01*
G37*
%LPD*%
%LPC*%
G36*
X573023Y307339D02*
X573023Y307339D01*
X573023Y315977D01*
X581661Y315977D01*
X581661Y313291D01*
X575709Y307339D01*
X573023Y307339D01*
G37*
%LPD*%
%LPC*%
G36*
X573023Y396239D02*
X573023Y396239D01*
X573023Y404877D01*
X581661Y404877D01*
X581661Y402191D01*
X575709Y396239D01*
X573023Y396239D01*
G37*
%LPD*%
%LPC*%
G36*
X567291Y307339D02*
X567291Y307339D01*
X561339Y313291D01*
X561339Y315977D01*
X569977Y315977D01*
X569977Y307339D01*
X567291Y307339D01*
G37*
%LPD*%
%LPC*%
G36*
X567291Y396239D02*
X567291Y396239D01*
X561339Y402191D01*
X561339Y404877D01*
X569977Y404877D01*
X569977Y396239D01*
X567291Y396239D01*
G37*
%LPD*%
%LPC*%
G36*
X573879Y441711D02*
X573879Y441711D01*
X575400Y441216D01*
X576825Y440490D01*
X578119Y439550D01*
X578932Y438738D01*
X578932Y438737D01*
X579250Y438419D01*
X580190Y437125D01*
X580916Y435700D01*
X581411Y434179D01*
X581546Y433323D01*
X573023Y433323D01*
X573023Y441846D01*
X573879Y441711D01*
G37*
%LPD*%
%LPC*%
G36*
X687323Y204723D02*
X687323Y204723D01*
X687323Y213246D01*
X688179Y213111D01*
X689700Y212616D01*
X691125Y211890D01*
X692419Y210950D01*
X693550Y209819D01*
X694490Y208525D01*
X695216Y207100D01*
X695711Y205579D01*
X695846Y204723D01*
X687323Y204723D01*
G37*
%LPD*%
%LPC*%
G36*
X433323Y52323D02*
X433323Y52323D01*
X433323Y60846D01*
X434179Y60711D01*
X435700Y60216D01*
X437125Y59490D01*
X438419Y58550D01*
X439550Y57419D01*
X440490Y56125D01*
X441216Y54700D01*
X441711Y53179D01*
X441846Y52323D01*
X433323Y52323D01*
G37*
%LPD*%
%LPC*%
G36*
X166623Y204723D02*
X166623Y204723D01*
X166623Y213246D01*
X167479Y213111D01*
X169000Y212616D01*
X170425Y211890D01*
X171719Y210950D01*
X172850Y209819D01*
X173790Y208525D01*
X174516Y207100D01*
X175011Y205579D01*
X175146Y204723D01*
X166623Y204723D01*
G37*
%LPD*%
%LPC*%
G36*
X687323Y52323D02*
X687323Y52323D01*
X687323Y60846D01*
X688179Y60711D01*
X689700Y60216D01*
X691125Y59490D01*
X692419Y58550D01*
X693550Y57419D01*
X694490Y56125D01*
X695216Y54700D01*
X695711Y53179D01*
X695846Y52323D01*
X687323Y52323D01*
G37*
%LPD*%
%LPC*%
G36*
X573023Y344423D02*
X573023Y344423D01*
X573023Y352946D01*
X573879Y352811D01*
X575400Y352316D01*
X576825Y351590D01*
X578119Y350650D01*
X579250Y349519D01*
X580190Y348225D01*
X580916Y346800D01*
X581411Y345279D01*
X581546Y344423D01*
X573023Y344423D01*
G37*
%LPD*%
%LPC*%
G36*
X166623Y52323D02*
X166623Y52323D01*
X166623Y60846D01*
X167479Y60711D01*
X169000Y60216D01*
X170425Y59490D01*
X171719Y58550D01*
X172850Y57419D01*
X173790Y56125D01*
X174516Y54700D01*
X175011Y53179D01*
X175146Y52323D01*
X166623Y52323D01*
G37*
%LPD*%
%LPC*%
G36*
X687323Y49277D02*
X687323Y49277D01*
X695846Y49277D01*
X695711Y48421D01*
X695216Y46900D01*
X694490Y45475D01*
X693550Y44181D01*
X692419Y43050D01*
X691125Y42110D01*
X689700Y41384D01*
X688179Y40889D01*
X687323Y40754D01*
X687323Y49277D01*
G37*
%LPD*%
%LPC*%
G36*
X433323Y49277D02*
X433323Y49277D01*
X441846Y49277D01*
X441711Y48421D01*
X441216Y46900D01*
X440490Y45475D01*
X439550Y44181D01*
X438419Y43050D01*
X437125Y42110D01*
X435700Y41384D01*
X434179Y40889D01*
X433323Y40754D01*
X433323Y49277D01*
G37*
%LPD*%
%LPC*%
G36*
X166623Y49277D02*
X166623Y49277D01*
X175146Y49277D01*
X175011Y48421D01*
X174516Y46900D01*
X173790Y45475D01*
X172850Y44181D01*
X171719Y43050D01*
X170425Y42110D01*
X169000Y41384D01*
X167479Y40889D01*
X166623Y40754D01*
X166623Y49277D01*
G37*
%LPD*%
%LPC*%
G36*
X573023Y341377D02*
X573023Y341377D01*
X581546Y341377D01*
X581411Y340521D01*
X580916Y339000D01*
X580190Y337575D01*
X579250Y336281D01*
X578119Y335150D01*
X576825Y334210D01*
X575400Y333484D01*
X573879Y332989D01*
X573023Y332854D01*
X573023Y341377D01*
G37*
%LPD*%
%LPC*%
G36*
X561454Y344423D02*
X561454Y344423D01*
X561589Y345279D01*
X562084Y346800D01*
X562810Y348225D01*
X563750Y349519D01*
X564881Y350650D01*
X566175Y351590D01*
X567600Y352316D01*
X569121Y352811D01*
X569977Y352946D01*
X569977Y344423D01*
X561454Y344423D01*
G37*
%LPD*%
%LPC*%
G36*
X573023Y430277D02*
X573023Y430277D01*
X581546Y430277D01*
X581411Y429421D01*
X580916Y427900D01*
X580190Y426475D01*
X579250Y425181D01*
X578119Y424050D01*
X576825Y423110D01*
X575400Y422384D01*
X573879Y421889D01*
X573023Y421754D01*
X573023Y430277D01*
G37*
%LPD*%
%LPC*%
G36*
X166623Y201677D02*
X166623Y201677D01*
X175146Y201677D01*
X175011Y200821D01*
X174516Y199300D01*
X173790Y197875D01*
X172850Y196581D01*
X171719Y195450D01*
X170425Y194510D01*
X169000Y193784D01*
X167479Y193289D01*
X166623Y193154D01*
X166623Y201677D01*
G37*
%LPD*%
%LPC*%
G36*
X687323Y201677D02*
X687323Y201677D01*
X695846Y201677D01*
X695711Y200821D01*
X695216Y199300D01*
X694490Y197875D01*
X693550Y196581D01*
X692419Y195450D01*
X691125Y194510D01*
X689700Y193784D01*
X688179Y193289D01*
X687323Y193154D01*
X687323Y201677D01*
G37*
%LPD*%
%LPC*%
G36*
X675754Y52323D02*
X675754Y52323D01*
X675889Y53179D01*
X676384Y54700D01*
X677110Y56125D01*
X678050Y57419D01*
X679181Y58550D01*
X680475Y59490D01*
X681900Y60216D01*
X683421Y60711D01*
X684277Y60846D01*
X684277Y52323D01*
X675754Y52323D01*
G37*
%LPD*%
%LPC*%
G36*
X155054Y52323D02*
X155054Y52323D01*
X155189Y53179D01*
X155684Y54700D01*
X156410Y56125D01*
X157350Y57419D01*
X158481Y58550D01*
X159775Y59490D01*
X161200Y60216D01*
X162721Y60711D01*
X163577Y60846D01*
X163577Y52323D01*
X155054Y52323D01*
G37*
%LPD*%
%LPC*%
G36*
X421754Y52323D02*
X421754Y52323D01*
X421889Y53179D01*
X422384Y54700D01*
X423110Y56125D01*
X424050Y57419D01*
X425181Y58550D01*
X426475Y59490D01*
X427900Y60216D01*
X429421Y60711D01*
X430277Y60846D01*
X430277Y52323D01*
X421754Y52323D01*
G37*
%LPD*%
%LPC*%
G36*
X155054Y204723D02*
X155054Y204723D01*
X155189Y205579D01*
X155684Y207100D01*
X156410Y208525D01*
X157350Y209819D01*
X158481Y210950D01*
X159775Y211890D01*
X161200Y212616D01*
X162721Y213111D01*
X163577Y213246D01*
X163577Y204723D01*
X155054Y204723D01*
G37*
%LPD*%
%LPC*%
G36*
X675754Y204723D02*
X675754Y204723D01*
X675889Y205579D01*
X676384Y207100D01*
X677110Y208525D01*
X678050Y209819D01*
X679181Y210950D01*
X680475Y211890D01*
X681900Y212616D01*
X683421Y213111D01*
X684277Y213246D01*
X684277Y204723D01*
X675754Y204723D01*
G37*
%LPD*%
%LPC*%
G36*
X683421Y193289D02*
X683421Y193289D01*
X681900Y193784D01*
X680475Y194510D01*
X679181Y195450D01*
X678050Y196581D01*
X677110Y197875D01*
X676384Y199300D01*
X675889Y200821D01*
X675754Y201677D01*
X684277Y201677D01*
X684277Y193154D01*
X683421Y193289D01*
G37*
%LPD*%
%LPC*%
G36*
X569121Y332989D02*
X569121Y332989D01*
X567600Y333484D01*
X566175Y334210D01*
X564881Y335150D01*
X563750Y336281D01*
X562810Y337575D01*
X562084Y339000D01*
X561589Y340521D01*
X561454Y341377D01*
X569977Y341377D01*
X569977Y332854D01*
X569121Y332989D01*
G37*
%LPD*%
%LPC*%
G36*
X429421Y193289D02*
X429421Y193289D01*
X427900Y193784D01*
X426475Y194510D01*
X425181Y195450D01*
X424050Y196581D01*
X423110Y197875D01*
X422384Y199300D01*
X421889Y200821D01*
X421754Y201677D01*
X430277Y201677D01*
X430277Y193154D01*
X429421Y193289D01*
G37*
%LPD*%
%LPC*%
G36*
X162721Y193289D02*
X162721Y193289D01*
X161200Y193784D01*
X159775Y194510D01*
X158481Y195450D01*
X157350Y196581D01*
X156410Y197875D01*
X155684Y199300D01*
X155189Y200821D01*
X155054Y201677D01*
X163577Y201677D01*
X163577Y193154D01*
X162721Y193289D01*
G37*
%LPD*%
%LPC*%
G36*
X162721Y40889D02*
X162721Y40889D01*
X161200Y41384D01*
X159775Y42110D01*
X158481Y43050D01*
X157350Y44181D01*
X156410Y45475D01*
X155684Y46900D01*
X155189Y48421D01*
X155054Y49277D01*
X163577Y49277D01*
X163577Y40754D01*
X162721Y40889D01*
G37*
%LPD*%
%LPC*%
G36*
X683421Y40889D02*
X683421Y40889D01*
X681900Y41384D01*
X680475Y42110D01*
X679181Y43050D01*
X678050Y44181D01*
X677110Y45475D01*
X676384Y46900D01*
X675889Y48421D01*
X675754Y49277D01*
X684277Y49277D01*
X684277Y40754D01*
X683421Y40889D01*
G37*
%LPD*%
%LPC*%
G36*
X429421Y40889D02*
X429421Y40889D01*
X427900Y41384D01*
X426475Y42110D01*
X425181Y43050D01*
X424050Y44181D01*
X423110Y45475D01*
X422384Y46900D01*
X421889Y48421D01*
X421754Y49277D01*
X430277Y49277D01*
X430277Y40754D01*
X429421Y40889D01*
G37*
%LPD*%
%LPC*%
G36*
X378639Y294967D02*
X378639Y294967D01*
X377130Y295458D01*
X375717Y296178D01*
X374433Y297111D01*
X373311Y298233D01*
X372378Y299517D01*
X371658Y300930D01*
X371167Y302439D01*
X371035Y303277D01*
X379477Y303277D01*
X379477Y294835D01*
X378639Y294967D01*
G37*
%LPD*%
%LPC*%
G36*
X685799Y203199D02*
X685799Y203199D01*
X685799Y203201D01*
X685801Y203201D01*
X685801Y203199D01*
X685799Y203199D01*
G37*
%LPD*%
%LPC*%
G36*
X571499Y317499D02*
X571499Y317499D01*
X571499Y317501D01*
X571501Y317501D01*
X571501Y317499D01*
X571499Y317499D01*
G37*
%LPD*%
%LPC*%
G36*
X165099Y203199D02*
X165099Y203199D01*
X165099Y203201D01*
X165101Y203201D01*
X165101Y203199D01*
X165099Y203199D01*
G37*
%LPD*%
%LPC*%
G36*
X685799Y50799D02*
X685799Y50799D01*
X685799Y50801D01*
X685801Y50801D01*
X685801Y50799D01*
X685799Y50799D01*
G37*
%LPD*%
%LPC*%
G36*
X431799Y50799D02*
X431799Y50799D01*
X431799Y50801D01*
X431801Y50801D01*
X431801Y50799D01*
X431799Y50799D01*
G37*
%LPD*%
%LPC*%
G36*
X114299Y533399D02*
X114299Y533399D01*
X114299Y533401D01*
X114301Y533401D01*
X114301Y533399D01*
X114299Y533399D01*
G37*
%LPD*%
%LPC*%
G36*
X571499Y406399D02*
X571499Y406399D01*
X571499Y406401D01*
X571501Y406401D01*
X571501Y406399D01*
X571499Y406399D01*
G37*
%LPD*%
%LPC*%
G36*
X571499Y342899D02*
X571499Y342899D01*
X571499Y342901D01*
X571501Y342901D01*
X571501Y342899D01*
X571499Y342899D01*
G37*
%LPD*%
%LPC*%
G36*
X165099Y50799D02*
X165099Y50799D01*
X165099Y50801D01*
X165101Y50801D01*
X165101Y50799D01*
X165099Y50799D01*
G37*
%LPD*%
D10*
X558800Y228600D03*
X558800Y203200D03*
X558800Y177800D03*
X558800Y152400D03*
X558800Y127000D03*
X558800Y101600D03*
X558800Y76200D03*
X558800Y50800D03*
X685800Y50800D03*
X685800Y76200D03*
X685800Y101600D03*
X685800Y127000D03*
X685800Y152400D03*
X685800Y177800D03*
X685800Y203200D03*
X685800Y228600D03*
X304800Y228600D03*
X304800Y203200D03*
X304800Y177800D03*
X304800Y152400D03*
X304800Y127000D03*
X304800Y101600D03*
X304800Y76200D03*
X304800Y50800D03*
X431800Y50800D03*
X431800Y76200D03*
X431800Y101600D03*
X431800Y127000D03*
X431800Y152400D03*
X431800Y177800D03*
X431800Y203200D03*
X431800Y228600D03*
X38100Y228600D03*
X38100Y203200D03*
X38100Y177800D03*
X38100Y152400D03*
X38100Y127000D03*
X38100Y101600D03*
X38100Y76200D03*
X38100Y50800D03*
X165100Y50800D03*
X165100Y76200D03*
X165100Y101600D03*
X165100Y127000D03*
X165100Y152400D03*
X165100Y177800D03*
X165100Y203200D03*
X165100Y228600D03*
D11*
X406400Y457200D03*
D12*
X381000Y457200D03*
X355600Y457200D03*
X330200Y457200D03*
X304800Y457200D03*
X279400Y457200D03*
X254000Y457200D03*
X228600Y457200D03*
X203200Y457200D03*
X177800Y457200D03*
X152400Y457200D03*
X127000Y457200D03*
X406400Y304800D03*
X381000Y304800D03*
X355600Y304800D03*
X330200Y304800D03*
X304800Y304800D03*
X279400Y304800D03*
X228600Y304800D03*
X203200Y304800D03*
X152400Y304800D03*
X127000Y304800D03*
X177800Y304800D03*
X254000Y304800D03*
X101600Y457200D03*
X76200Y457200D03*
X50800Y457200D03*
X101600Y304800D03*
X76200Y304800D03*
X50800Y304800D03*
D13*
X728980Y101600D02*
X744220Y101600D01*
X744220Y127000D02*
X728980Y127000D01*
X728980Y152400D02*
X744220Y152400D01*
X744220Y177800D02*
X728980Y177800D01*
X490220Y101600D02*
X474980Y101600D01*
X474980Y127000D02*
X490220Y127000D01*
X490220Y152400D02*
X474980Y152400D01*
X474980Y177800D02*
X490220Y177800D01*
X223520Y101600D02*
X208280Y101600D01*
X208280Y127000D02*
X223520Y127000D01*
X223520Y152400D02*
X208280Y152400D01*
X208280Y177800D02*
X223520Y177800D01*
D10*
X571500Y431800D03*
D14*
X546100Y431800D03*
X520700Y431800D03*
X571500Y406400D03*
X546100Y406400D03*
X520700Y406400D03*
D10*
X571500Y342900D03*
D14*
X546100Y342900D03*
X520700Y342900D03*
X571500Y317500D03*
X546100Y317500D03*
X520700Y317500D03*
D15*
X70040Y558800D02*
X56960Y558800D01*
X107760Y558800D02*
X120840Y558800D01*
X120840Y533400D02*
X107760Y533400D01*
X70040Y533400D02*
X56960Y533400D01*
D16*
X114300Y558800D02*
X533400Y558800D01*
X685800Y406400D01*
X685800Y228600D01*
X190500Y482600D02*
X114300Y558800D01*
X431800Y264980D02*
X431800Y228600D01*
X431800Y264980D02*
X463677Y296857D01*
X463677Y452443D01*
X433520Y482600D01*
X190500Y482600D01*
X152400Y520700D02*
X114300Y558800D01*
X152400Y471096D02*
X162226Y461270D01*
X162226Y231474D02*
X165100Y228600D01*
X162226Y231474D02*
X162226Y461270D01*
X152400Y471096D02*
X152400Y520700D01*
X427697Y218694D02*
X435903Y218694D01*
X441706Y224497D01*
X341704Y304800D02*
X330200Y304800D01*
X341704Y304800D02*
X351530Y314626D01*
X385070Y314626D02*
X396574Y303122D01*
X385070Y314626D02*
X351530Y314626D01*
X441706Y238506D02*
X441706Y224497D01*
X441706Y238506D02*
X520700Y317500D01*
X396574Y303122D02*
X396574Y249817D01*
X427697Y218694D01*
X330200Y304800D02*
X368300Y342900D01*
X419100Y342900D01*
D17*
X469900Y342900D03*
D16*
X520700Y342900D01*
X330200Y304800D02*
X330200Y381000D01*
X355600Y406400D01*
X419100Y406400D01*
D17*
X419100Y406400D03*
X469900Y406400D03*
D16*
X520700Y406400D01*
X330200Y406400D02*
X330200Y304800D01*
X330200Y406400D02*
X355600Y431800D01*
X419100Y431800D01*
D17*
X419100Y431800D03*
X469900Y431800D03*
D16*
X520700Y431800D01*
D17*
X419100Y342900D03*
D16*
X330200Y304800D02*
X330200Y177800D01*
X431800Y76200D01*
X228600Y203200D02*
X330200Y304800D01*
X228600Y203200D02*
X190500Y203200D01*
X175006Y187706D01*
X165100Y87591D02*
X165100Y76200D01*
X165100Y87591D02*
X175006Y97497D01*
X175006Y187706D01*
X330200Y304800D02*
X421894Y213106D01*
X435903Y213106D01*
X458509Y190500D02*
X622300Y190500D01*
X458509Y190500D02*
X435903Y213106D01*
X622300Y190500D02*
X660400Y152400D01*
X660400Y88900D01*
X673100Y76200D01*
X685800Y76200D01*
X546100Y431800D02*
X469900Y508000D01*
X177800Y508000D01*
D17*
X177800Y508000D03*
X355600Y520700D03*
D16*
X482600Y520700D02*
X558800Y444500D01*
X558800Y419100D01*
X546100Y406400D01*
X482600Y520700D02*
X355600Y520700D01*
X152400Y342900D02*
X101600Y393700D01*
D17*
X152400Y342900D03*
X203200Y342900D03*
D16*
X317500Y342900D01*
D17*
X317500Y342900D03*
X393700Y355600D03*
D16*
X457200Y355600D01*
D17*
X457200Y355600D03*
X482600Y355600D03*
D16*
X533400Y355600D01*
X546100Y342900D01*
X101600Y393700D02*
X101600Y457200D01*
X76200Y457200D02*
X76200Y393700D01*
X139700Y330200D01*
D17*
X139700Y330200D03*
X203200Y330200D03*
D16*
X317500Y330200D01*
D17*
X317500Y330200D03*
X393700Y330200D03*
D16*
X457200Y330200D01*
D17*
X457200Y330200D03*
X495300Y317500D03*
D16*
X516597Y327406D02*
X524803Y327406D01*
X506691Y317500D02*
X495300Y317500D01*
X534709Y317500D02*
X546100Y317500D01*
X516597Y327406D02*
X506691Y317500D01*
X524803Y327406D02*
X534709Y317500D01*
M02*
