G04 EAGLE Gerber RS-274X export*
G75*
%MOMM*%
%FSLAX34Y34*%
%LPD*%
%IN*%
%IPPOS*%
%AMOC8*
5,1,8,0,0,1.08239X$1,22.5*%
G01*
%ADD10C,0.254000*%


D10*
X0Y0D02*
X799900Y0D01*
X799900Y606300D01*
X0Y606300D01*
X0Y0D01*
X778000Y570976D02*
X777932Y569931D01*
X777795Y568892D01*
X777590Y567865D01*
X777319Y566853D01*
X776983Y565861D01*
X776582Y564893D01*
X776118Y563954D01*
X775595Y563046D01*
X775013Y562175D01*
X774375Y561344D01*
X773684Y560557D01*
X772943Y559816D01*
X772156Y559125D01*
X771325Y558488D01*
X770454Y557906D01*
X769546Y557382D01*
X768607Y556918D01*
X767639Y556517D01*
X766647Y556181D01*
X765635Y555910D01*
X764608Y555705D01*
X763569Y555569D01*
X762524Y555500D01*
X761476Y555500D01*
X760431Y555569D01*
X759392Y555705D01*
X758365Y555910D01*
X757353Y556181D01*
X756361Y556517D01*
X755393Y556918D01*
X754454Y557382D01*
X753546Y557906D01*
X752675Y558488D01*
X751844Y559125D01*
X751057Y559816D01*
X750316Y560557D01*
X749625Y561344D01*
X748988Y562175D01*
X748406Y563046D01*
X747882Y563954D01*
X747418Y564893D01*
X747017Y565861D01*
X746681Y566853D01*
X746410Y567865D01*
X746205Y568892D01*
X746069Y569931D01*
X746000Y570976D01*
X746000Y572024D01*
X746069Y573069D01*
X746205Y574108D01*
X746410Y575135D01*
X746681Y576147D01*
X747017Y577139D01*
X747418Y578107D01*
X747882Y579046D01*
X748406Y579954D01*
X748988Y580825D01*
X749625Y581656D01*
X750316Y582443D01*
X751057Y583184D01*
X751844Y583875D01*
X752675Y584513D01*
X753546Y585095D01*
X754454Y585618D01*
X755393Y586082D01*
X756361Y586483D01*
X757353Y586819D01*
X758365Y587090D01*
X759392Y587295D01*
X760431Y587432D01*
X761476Y587500D01*
X762524Y587500D01*
X763569Y587432D01*
X764608Y587295D01*
X765635Y587090D01*
X766647Y586819D01*
X767639Y586483D01*
X768607Y586082D01*
X769546Y585618D01*
X770454Y585095D01*
X771325Y584513D01*
X772156Y583875D01*
X772943Y583184D01*
X773684Y582443D01*
X774375Y581656D01*
X775013Y580825D01*
X775595Y579954D01*
X776118Y579046D01*
X776582Y578107D01*
X776983Y577139D01*
X777319Y576147D01*
X777590Y575135D01*
X777795Y574108D01*
X777932Y573069D01*
X778000Y572024D01*
X778000Y570976D01*
X778000Y37576D02*
X777932Y36531D01*
X777795Y35492D01*
X777590Y34465D01*
X777319Y33453D01*
X776983Y32461D01*
X776582Y31493D01*
X776118Y30554D01*
X775595Y29646D01*
X775013Y28775D01*
X774375Y27944D01*
X773684Y27157D01*
X772943Y26416D01*
X772156Y25725D01*
X771325Y25088D01*
X770454Y24506D01*
X769546Y23982D01*
X768607Y23518D01*
X767639Y23117D01*
X766647Y22781D01*
X765635Y22510D01*
X764608Y22305D01*
X763569Y22169D01*
X762524Y22100D01*
X761476Y22100D01*
X760431Y22169D01*
X759392Y22305D01*
X758365Y22510D01*
X757353Y22781D01*
X756361Y23117D01*
X755393Y23518D01*
X754454Y23982D01*
X753546Y24506D01*
X752675Y25088D01*
X751844Y25725D01*
X751057Y26416D01*
X750316Y27157D01*
X749625Y27944D01*
X748988Y28775D01*
X748406Y29646D01*
X747882Y30554D01*
X747418Y31493D01*
X747017Y32461D01*
X746681Y33453D01*
X746410Y34465D01*
X746205Y35492D01*
X746069Y36531D01*
X746000Y37576D01*
X746000Y38624D01*
X746069Y39669D01*
X746205Y40708D01*
X746410Y41735D01*
X746681Y42747D01*
X747017Y43739D01*
X747418Y44707D01*
X747882Y45646D01*
X748406Y46554D01*
X748988Y47425D01*
X749625Y48256D01*
X750316Y49043D01*
X751057Y49784D01*
X751844Y50475D01*
X752675Y51113D01*
X753546Y51695D01*
X754454Y52218D01*
X755393Y52682D01*
X756361Y53083D01*
X757353Y53419D01*
X758365Y53690D01*
X759392Y53895D01*
X760431Y54032D01*
X761476Y54100D01*
X762524Y54100D01*
X763569Y54032D01*
X764608Y53895D01*
X765635Y53690D01*
X766647Y53419D01*
X767639Y53083D01*
X768607Y52682D01*
X769546Y52218D01*
X770454Y51695D01*
X771325Y51113D01*
X772156Y50475D01*
X772943Y49784D01*
X773684Y49043D01*
X774375Y48256D01*
X775013Y47425D01*
X775595Y46554D01*
X776118Y45646D01*
X776582Y44707D01*
X776983Y43739D01*
X777319Y42747D01*
X777590Y41735D01*
X777795Y40708D01*
X777932Y39669D01*
X778000Y38624D01*
X778000Y37576D01*
X231900Y37576D02*
X231832Y36531D01*
X231695Y35492D01*
X231490Y34465D01*
X231219Y33453D01*
X230883Y32461D01*
X230482Y31493D01*
X230018Y30554D01*
X229495Y29646D01*
X228913Y28775D01*
X228275Y27944D01*
X227584Y27157D01*
X226843Y26416D01*
X226056Y25725D01*
X225225Y25088D01*
X224354Y24506D01*
X223446Y23982D01*
X222507Y23518D01*
X221539Y23117D01*
X220547Y22781D01*
X219535Y22510D01*
X218508Y22305D01*
X217469Y22169D01*
X216424Y22100D01*
X215376Y22100D01*
X214331Y22169D01*
X213292Y22305D01*
X212265Y22510D01*
X211253Y22781D01*
X210261Y23117D01*
X209293Y23518D01*
X208354Y23982D01*
X207446Y24506D01*
X206575Y25088D01*
X205744Y25725D01*
X204957Y26416D01*
X204216Y27157D01*
X203525Y27944D01*
X202888Y28775D01*
X202306Y29646D01*
X201782Y30554D01*
X201318Y31493D01*
X200917Y32461D01*
X200581Y33453D01*
X200310Y34465D01*
X200105Y35492D01*
X199969Y36531D01*
X199900Y37576D01*
X199900Y38624D01*
X199969Y39669D01*
X200105Y40708D01*
X200310Y41735D01*
X200581Y42747D01*
X200917Y43739D01*
X201318Y44707D01*
X201782Y45646D01*
X202306Y46554D01*
X202888Y47425D01*
X203525Y48256D01*
X204216Y49043D01*
X204957Y49784D01*
X205744Y50475D01*
X206575Y51113D01*
X207446Y51695D01*
X208354Y52218D01*
X209293Y52682D01*
X210261Y53083D01*
X211253Y53419D01*
X212265Y53690D01*
X213292Y53895D01*
X214331Y54032D01*
X215376Y54100D01*
X216424Y54100D01*
X217469Y54032D01*
X218508Y53895D01*
X219535Y53690D01*
X220547Y53419D01*
X221539Y53083D01*
X222507Y52682D01*
X223446Y52218D01*
X224354Y51695D01*
X225225Y51113D01*
X226056Y50475D01*
X226843Y49784D01*
X227584Y49043D01*
X228275Y48256D01*
X228913Y47425D01*
X229495Y46554D01*
X230018Y45646D01*
X230482Y44707D01*
X230883Y43739D01*
X231219Y42747D01*
X231490Y41735D01*
X231695Y40708D01*
X231832Y39669D01*
X231900Y38624D01*
X231900Y37576D01*
X33655Y456794D02*
X33576Y455987D01*
X33417Y455192D01*
X33182Y454416D01*
X32871Y453666D01*
X32489Y452951D01*
X32038Y452277D01*
X31524Y451650D01*
X30950Y451076D01*
X30323Y450562D01*
X29649Y450111D01*
X28934Y449729D01*
X28184Y449418D01*
X27408Y449183D01*
X26613Y449025D01*
X25806Y448945D01*
X24994Y448945D01*
X24187Y449025D01*
X23392Y449183D01*
X22616Y449418D01*
X21866Y449729D01*
X21151Y450111D01*
X20477Y450562D01*
X19850Y451076D01*
X19276Y451650D01*
X18762Y452277D01*
X18311Y452951D01*
X17929Y453666D01*
X17618Y454416D01*
X17383Y455192D01*
X17225Y455987D01*
X17145Y456794D01*
X17145Y457606D01*
X17225Y458413D01*
X17383Y459208D01*
X17618Y459984D01*
X17929Y460734D01*
X18311Y461449D01*
X18762Y462123D01*
X19276Y462750D01*
X19850Y463324D01*
X20477Y463838D01*
X21151Y464289D01*
X21866Y464671D01*
X22616Y464982D01*
X23392Y465217D01*
X24187Y465376D01*
X24994Y465455D01*
X25806Y465455D01*
X26613Y465376D01*
X27408Y465217D01*
X28184Y464982D01*
X28934Y464671D01*
X29649Y464289D01*
X30323Y463838D01*
X30950Y463324D01*
X31524Y462750D01*
X32038Y462123D01*
X32489Y461449D01*
X32871Y460734D01*
X33182Y459984D01*
X33417Y459208D01*
X33576Y458413D01*
X33655Y457606D01*
X33655Y456794D01*
X33655Y304394D02*
X33576Y303587D01*
X33417Y302792D01*
X33182Y302016D01*
X32871Y301266D01*
X32489Y300551D01*
X32038Y299877D01*
X31524Y299250D01*
X30950Y298676D01*
X30323Y298162D01*
X29649Y297711D01*
X28934Y297329D01*
X28184Y297018D01*
X27408Y296783D01*
X26613Y296625D01*
X25806Y296545D01*
X24994Y296545D01*
X24187Y296625D01*
X23392Y296783D01*
X22616Y297018D01*
X21866Y297329D01*
X21151Y297711D01*
X20477Y298162D01*
X19850Y298676D01*
X19276Y299250D01*
X18762Y299877D01*
X18311Y300551D01*
X17929Y301266D01*
X17618Y302016D01*
X17383Y302792D01*
X17225Y303587D01*
X17145Y304394D01*
X17145Y305206D01*
X17225Y306013D01*
X17383Y306808D01*
X17618Y307584D01*
X17929Y308334D01*
X18311Y309049D01*
X18762Y309723D01*
X19276Y310350D01*
X19850Y310924D01*
X20477Y311438D01*
X21151Y311889D01*
X21866Y312271D01*
X22616Y312582D01*
X23392Y312817D01*
X24187Y312976D01*
X24994Y313055D01*
X25806Y313055D01*
X26613Y312976D01*
X27408Y312817D01*
X28184Y312582D01*
X28934Y312271D01*
X29649Y311889D01*
X30323Y311438D01*
X30950Y310924D01*
X31524Y310350D01*
X32038Y309723D01*
X32489Y309049D01*
X32871Y308334D01*
X33182Y307584D01*
X33417Y306808D01*
X33576Y306013D01*
X33655Y305206D01*
X33655Y304394D01*
X440055Y304394D02*
X439976Y303587D01*
X439817Y302792D01*
X439582Y302016D01*
X439271Y301266D01*
X438889Y300551D01*
X438438Y299877D01*
X437924Y299250D01*
X437350Y298676D01*
X436723Y298162D01*
X436049Y297711D01*
X435334Y297329D01*
X434584Y297018D01*
X433808Y296783D01*
X433013Y296625D01*
X432206Y296545D01*
X431394Y296545D01*
X430587Y296625D01*
X429792Y296783D01*
X429016Y297018D01*
X428266Y297329D01*
X427551Y297711D01*
X426877Y298162D01*
X426250Y298676D01*
X425676Y299250D01*
X425162Y299877D01*
X424711Y300551D01*
X424329Y301266D01*
X424018Y302016D01*
X423783Y302792D01*
X423625Y303587D01*
X423545Y304394D01*
X423545Y305206D01*
X423625Y306013D01*
X423783Y306808D01*
X424018Y307584D01*
X424329Y308334D01*
X424711Y309049D01*
X425162Y309723D01*
X425676Y310350D01*
X426250Y310924D01*
X426877Y311438D01*
X427551Y311889D01*
X428266Y312271D01*
X429016Y312582D01*
X429792Y312817D01*
X430587Y312976D01*
X431394Y313055D01*
X432206Y313055D01*
X433013Y312976D01*
X433808Y312817D01*
X434584Y312582D01*
X435334Y312271D01*
X436049Y311889D01*
X436723Y311438D01*
X437350Y310924D01*
X437924Y310350D01*
X438438Y309723D01*
X438889Y309049D01*
X439271Y308334D01*
X439582Y307584D01*
X439817Y306808D01*
X439976Y306013D01*
X440055Y305206D01*
X440055Y304394D01*
X440055Y456794D02*
X439976Y455987D01*
X439817Y455192D01*
X439582Y454416D01*
X439271Y453666D01*
X438889Y452951D01*
X438438Y452277D01*
X437924Y451650D01*
X437350Y451076D01*
X436723Y450562D01*
X436049Y450111D01*
X435334Y449729D01*
X434584Y449418D01*
X433808Y449183D01*
X433013Y449025D01*
X432206Y448945D01*
X431394Y448945D01*
X430587Y449025D01*
X429792Y449183D01*
X429016Y449418D01*
X428266Y449729D01*
X427551Y450111D01*
X426877Y450562D01*
X426250Y451076D01*
X425676Y451650D01*
X425162Y452277D01*
X424711Y452951D01*
X424329Y453666D01*
X424018Y454416D01*
X423783Y455192D01*
X423625Y455987D01*
X423545Y456794D01*
X423545Y457606D01*
X423625Y458413D01*
X423783Y459208D01*
X424018Y459984D01*
X424329Y460734D01*
X424711Y461449D01*
X425162Y462123D01*
X425676Y462750D01*
X426250Y463324D01*
X426877Y463838D01*
X427551Y464289D01*
X428266Y464671D01*
X429016Y464982D01*
X429792Y465217D01*
X430587Y465376D01*
X431394Y465455D01*
X432206Y465455D01*
X433013Y465376D01*
X433808Y465217D01*
X434584Y464982D01*
X435334Y464671D01*
X436049Y464289D01*
X436723Y463838D01*
X437350Y463324D01*
X437924Y462750D01*
X438438Y462123D01*
X438889Y461449D01*
X439271Y460734D01*
X439582Y459984D01*
X439817Y459208D01*
X439976Y458413D01*
X440055Y457606D01*
X440055Y456794D01*
M02*
