G04 EAGLE Gerber RS-274X export*
G75*
%MOMM*%
%FSLAX34Y34*%
%LPD*%
%INSoldermask Bottom*%
%IPPOS*%
%AMOC8*
5,1,8,0,0,1.08239X$1,22.5*%
G01*
%ADD10C,3.403200*%
%ADD11C,1.727200*%
%ADD12R,1.711200X1.711200*%
%ADD13C,1.711200*%
%ADD14C,1.854200*%
%ADD15C,1.727200*%
%ADD16P,1.869504X8X202.500000*%
%ADD17C,1.511200*%
%ADD18C,0.959600*%


D10*
X762000Y571500D03*
X762000Y38100D03*
X215900Y38100D03*
D11*
X558800Y228600D03*
X558800Y203200D03*
X558800Y177800D03*
X558800Y152400D03*
X558800Y127000D03*
X558800Y101600D03*
X558800Y76200D03*
X558800Y50800D03*
X685800Y50800D03*
X685800Y76200D03*
X685800Y101600D03*
X685800Y127000D03*
X685800Y152400D03*
X685800Y177800D03*
X685800Y203200D03*
X685800Y228600D03*
X304800Y228600D03*
X304800Y203200D03*
X304800Y177800D03*
X304800Y152400D03*
X304800Y127000D03*
X304800Y101600D03*
X304800Y76200D03*
X304800Y50800D03*
X431800Y50800D03*
X431800Y76200D03*
X431800Y101600D03*
X431800Y127000D03*
X431800Y152400D03*
X431800Y177800D03*
X431800Y203200D03*
X431800Y228600D03*
X38100Y228600D03*
X38100Y203200D03*
X38100Y177800D03*
X38100Y152400D03*
X38100Y127000D03*
X38100Y101600D03*
X38100Y76200D03*
X38100Y50800D03*
X165100Y50800D03*
X165100Y76200D03*
X165100Y101600D03*
X165100Y127000D03*
X165100Y152400D03*
X165100Y177800D03*
X165100Y203200D03*
X165100Y228600D03*
D12*
X406400Y457200D03*
D13*
X381000Y457200D03*
X355600Y457200D03*
X330200Y457200D03*
X304800Y457200D03*
X279400Y457200D03*
X254000Y457200D03*
X228600Y457200D03*
X203200Y457200D03*
X177800Y457200D03*
X152400Y457200D03*
X127000Y457200D03*
X406400Y304800D03*
X381000Y304800D03*
X355600Y304800D03*
X330200Y304800D03*
X304800Y304800D03*
X279400Y304800D03*
X228600Y304800D03*
X203200Y304800D03*
X152400Y304800D03*
X127000Y304800D03*
X177800Y304800D03*
X254000Y304800D03*
X101600Y457200D03*
X76200Y457200D03*
X50800Y457200D03*
X101600Y304800D03*
X76200Y304800D03*
X50800Y304800D03*
D14*
X25400Y457200D03*
X25400Y304800D03*
X431800Y304800D03*
X431800Y457200D03*
D15*
X728980Y101600D02*
X744220Y101600D01*
X744220Y127000D02*
X728980Y127000D01*
X728980Y152400D02*
X744220Y152400D01*
X744220Y177800D02*
X728980Y177800D01*
X490220Y101600D02*
X474980Y101600D01*
X474980Y127000D02*
X490220Y127000D01*
X490220Y152400D02*
X474980Y152400D01*
X474980Y177800D02*
X490220Y177800D01*
X223520Y101600D02*
X208280Y101600D01*
X208280Y127000D02*
X223520Y127000D01*
X223520Y152400D02*
X208280Y152400D01*
X208280Y177800D02*
X223520Y177800D01*
D11*
X571500Y431800D03*
D16*
X546100Y431800D03*
X520700Y431800D03*
X571500Y406400D03*
X546100Y406400D03*
X520700Y406400D03*
D11*
X571500Y342900D03*
D16*
X546100Y342900D03*
X520700Y342900D03*
X571500Y317500D03*
X546100Y317500D03*
X520700Y317500D03*
D17*
X70040Y558800D02*
X56960Y558800D01*
X107760Y558800D02*
X120840Y558800D01*
X120840Y533400D02*
X107760Y533400D01*
X70040Y533400D02*
X56960Y533400D01*
D18*
X469900Y342900D03*
X419100Y406400D03*
X469900Y406400D03*
X419100Y431800D03*
X469900Y431800D03*
X419100Y342900D03*
X177800Y508000D03*
X355600Y520700D03*
X152400Y342900D03*
X203200Y342900D03*
X317500Y342900D03*
X393700Y355600D03*
X457200Y355600D03*
X482600Y355600D03*
X139700Y330200D03*
X203200Y330200D03*
X317500Y330200D03*
X393700Y330200D03*
X457200Y330200D03*
X495300Y317500D03*
M02*
