M48
;GenerationSoftware,Autodesk,EAGLE,9.6.2*%
;CreationDate,2020-12-30T18:20:33Z*%
FMAT,2
ICI,OFF
METRIC,TZ,000.000
T6C0.350
T5C0.800
T4C1.000
T3C1.016
T2C1.651
T1C3.200
%
G90
M71
T1
X76200Y57150
X76200Y3810
X21590Y3810
T2
X2540Y30480
X43180Y30480
X43180Y45720
X2540Y45720
T3
X55880Y10160
X21590Y12700
X21590Y10160
X48260Y17780
X48260Y15240
X48260Y12700
X48260Y10160
X73660Y17780
X73660Y15240
X73660Y12700
X73660Y10160
X21590Y17780
X16510Y22860
X16510Y20320
X16510Y17780
X16510Y15240
X3810Y5080
X16510Y12700
X16510Y10160
X16510Y7620
X55880Y22860
X55880Y20320
X55880Y17780
X55880Y15240
X55880Y12700
X16510Y5080
X55880Y7620
X55880Y5080
X68580Y5080
X68580Y7620
X68580Y10160
X68580Y12700
X68580Y15240
X68580Y17780
X68580Y20320
X68580Y22860
X30480Y22860
X30480Y20320
X30480Y17780
X30480Y15240
X30480Y12700
X30480Y10160
X30480Y7620
X30480Y5080
X43180Y5080
X43180Y7620
X43180Y10160
X43180Y12700
X43180Y15240
X43180Y17780
X43180Y20320
X43180Y22860
X3810Y22860
X3810Y20320
X3810Y17780
X3810Y15240
X3810Y12700
X3810Y10160
X3810Y7620
X21590Y15240
X57150Y43180
X54610Y43180
X52070Y43180
X57150Y40640
X54610Y40640
X52070Y40640
X57150Y34290
X54610Y34290
X52070Y34290
X57150Y31750
X54610Y31750
X52070Y31750
T4
X40640Y30480
X38100Y30480
X35560Y30480
X33020Y30480
X30480Y30480
X27940Y30480
X22860Y30480
X20320Y30480
X15240Y30480
X12700Y30480
X17780Y30480
X25400Y30480
X10160Y45720
X5080Y45720
X10160Y30480
X7620Y30480
X5080Y30480
X7620Y45720
X40640Y45720
X38100Y45720
X35560Y45720
X33020Y45720
X30480Y45720
X27940Y45720
X25400Y45720
X22860Y45720
X20320Y45720
X17780Y45720
X15240Y45720
X12700Y45720
T5
X6350Y55880
X11430Y55880
X11430Y53340
X6350Y53340
T6
X17780Y50800
X41910Y34290
X46990Y43180
X41910Y43180
X46990Y40640
X41910Y40640
X13970Y33020
X46990Y34290
X48260Y35560
X45720Y35560
X31750Y33020
X39370Y35560
X49530Y31750
X45720Y33020
X39370Y33020
X20320Y33020
X31750Y34290
X20320Y34290
X15240Y34290
X35560Y52070
M30